M48
; DRILL file {KiCad 7.0.11-7.0.11~ubuntu20.04.1} date Thu Feb  6 22:25:38 2025
; FORMAT={-:-/ absolute / metric / decimal}
; #@! TF.CreationDate,2025-02-06T22:25:38+00:00
; #@! TF.GenerationSoftware,Kicad,Pcbnew,7.0.11-7.0.11~ubuntu20.04.1
; #@! TF.FileFunction,MixedPlating,1,4
FMAT,2
METRIC
; #@! TA.AperFunction,Plated,PTH,ComponentDrill
T1C0.300
; #@! TA.AperFunction,Plated,PTH,ComponentDrill
T2C1.000
; #@! TA.AperFunction,Plated,PTH,ComponentDrill
T3C1.200
; #@! TA.AperFunction,Plated,PTH,ComponentDrill
T4C2.500
; #@! TA.AperFunction,NonPlated,NPTH,ComponentDrill
T5C0.991
%
G90
G05
T1
X-13.237Y18.559
X-13.237Y-16.521
X-12.707Y19.829
X-12.707Y17.289
X-12.707Y-15.251
X-12.707Y-17.791
X-11.438Y20.359
X-11.438Y16.759
X-11.438Y-14.721
X-11.438Y-18.321
X-11.318Y2.748
X-10.462Y2.248
X-10.168Y19.829
X-10.168Y17.289
X-10.168Y-15.251
X-10.168Y-17.791
X-9.637Y18.559
X-9.637Y-16.521
X-7.758Y7.091
X-7.547Y12.342
X-7.389Y5.459
X-6.935Y9.391
X-6.934Y1.925
X-6.17Y7.249
X-6.11Y12.104
X-5.992Y-14.999
X-5.414Y-0.883
X-4.568Y-1.833
X-4.531Y2.248
X-4.446Y3.495
X-3.787Y1.337
X-3.339Y-5.334
X-3.217Y-6.591
X-2.885Y-7.803
X-2.767Y8.797
X-1.923Y-10.298
X-1.885Y2.248
X-1.641Y15.668
X-0.885Y2.248
X-0.17Y10.405
X0.169Y-3.6
X0.695Y6.153
X0.695Y5.175
X1.717Y-6.572
X1.843Y-10.969
X1.895Y1.067
X3.975Y16.759
X4.19Y10.507
X4.429Y6.846
X4.915Y-5.334
X7.455Y-5.84
X7.6Y15.407
X7.655Y3.97
X8.175Y0.329
X8.448Y-2.302
X9.004Y6.304
X10.119Y4.686
X10.125Y-1.092
X11.772Y18.559
X11.772Y-16.521
X12.302Y19.829
X12.302Y17.289
X12.302Y-15.251
X12.302Y-17.791
X13.572Y20.359
X13.572Y16.759
X13.572Y-14.721
X13.572Y-18.321
X14.842Y19.829
X14.842Y17.289
X14.842Y-15.251
X14.842Y-17.791
X15.372Y18.559
X15.372Y-16.521
T2
X-5.725Y19.045
X-3.185Y19.045
X-1.967Y-13.981
X-1.967Y-16.521
X-0.645Y19.045
X0.573Y-13.981
X0.573Y-16.521
X1.895Y19.045
X3.113Y-13.981
X3.113Y-16.521
X4.435Y19.045
X6.975Y19.045
X14.072Y-1.363
X14.072Y1.177
X14.072Y3.717
X14.072Y6.257
X14.072Y8.797
X14.072Y11.337
T3
X-10.168Y-5.84
X-10.167Y-9.34
T4
X-11.438Y18.559
X-11.438Y-16.521
X-11.438Y-16.521
X13.572Y18.559
X13.572Y18.559
X13.572Y-16.521
X13.572Y-16.521
T5
X-5.307Y11.04
X-5.307Y13.072
X-0.227Y12.056
M30
