%TF.GenerationSoftware,Flux,Pcbnew,7.0.11-7.0.11~ubuntu20.04.1*%
%TF.CreationDate,2025-02-06T22:25:38+00:00*%
%TF.ProjectId,input,696e7075-742e-46b6-9963-61645f706362,rev?*%
%TF.SameCoordinates,Original*%
%TF.FileFunction,Soldermask,Bot*%
%TF.FilePolarity,Negative*%
%FSLAX46Y46*%
G04 Gerber Fmt 4.6, Leading zero omitted, Abs format (unit mm)*
G04 Filename: driverv4release*
G04 Build it with Flux! Visit our site at: https://www.flux.ai (PCBNEW 7.0.11-7.0.11~ubuntu20.04.1) date 2025-02-06 22:25:38*
%MOMM*%
%LPD*%
G01*
G04 APERTURE LIST*
G04 APERTURE END LIST*
%TO.C,*%
G36*
X7825399Y18195200D02*
G01*
X6125400Y18195200D01*
X6125400Y19895200D01*
X7825399Y19895200D01*
X7825399Y18195200D01*
G37*
G36*
X2220680Y19830492D02*
G01*
X2412847Y19719545D01*
X2569750Y19562642D01*
X2680697Y19370475D01*
X2738128Y19156142D01*
X2738128Y18934247D01*
X2680697Y18719913D01*
X2569750Y18527747D01*
X2412847Y18370844D01*
X2220680Y18259897D01*
X2006347Y18202466D01*
X1784452Y18202466D01*
X1570119Y18259897D01*
X1377952Y18370844D01*
X1221049Y18527747D01*
X1110102Y18719913D01*
X1052671Y18934247D01*
X1052671Y19156142D01*
X1110102Y19370475D01*
X1221049Y19562642D01*
X1377952Y19719545D01*
X1570119Y19830492D01*
X1784452Y19887922D01*
X2006347Y19887922D01*
X2220680Y19830492D01*
G37*
G36*
X-5399319Y19830484D02*
G01*
X-5207152Y19719537D01*
X-5050249Y19562634D01*
X-4939302Y19370467D01*
X-4881871Y19156134D01*
X-4881871Y18934239D01*
X-4939302Y18719906D01*
X-5050249Y18527739D01*
X-5207152Y18370836D01*
X-5399319Y18259889D01*
X-5613652Y18202458D01*
X-5835547Y18202458D01*
X-6049880Y18259889D01*
X-6242047Y18370836D01*
X-6398950Y18527739D01*
X-6509897Y18719906D01*
X-6567328Y18934239D01*
X-6567328Y19156134D01*
X-6509897Y19370467D01*
X-6398950Y19562634D01*
X-6242047Y19719537D01*
X-6049880Y19830484D01*
X-5835547Y19887915D01*
X-5613652Y19887915D01*
X-5399319Y19830484D01*
G37*
G36*
X-319319Y19830489D02*
G01*
X-127152Y19719542D01*
X29750Y19562639D01*
X140697Y19370473D01*
X198128Y19156139D01*
X198128Y18934244D01*
X140697Y18719911D01*
X29750Y18527745D01*
X-127152Y18370841D01*
X-319319Y18259894D01*
X-533652Y18202464D01*
X-755547Y18202464D01*
X-969880Y18259894D01*
X-1162047Y18370841D01*
X-1318950Y18527745D01*
X-1429897Y18719911D01*
X-1487328Y18934244D01*
X-1487328Y19156139D01*
X-1429897Y19370473D01*
X-1318950Y19562639D01*
X-1162047Y19719542D01*
X-969880Y19830489D01*
X-755547Y19887920D01*
X-533652Y19887920D01*
X-319319Y19830489D01*
G37*
G36*
X4760680Y19830495D02*
G01*
X4952847Y19719547D01*
X5109750Y19562644D01*
X5220697Y19370478D01*
X5278128Y19156144D01*
X5278128Y18934250D01*
X5220697Y18719916D01*
X5109750Y18527750D01*
X4952847Y18370847D01*
X4760680Y18259899D01*
X4546347Y18202469D01*
X4324452Y18202469D01*
X4110119Y18259899D01*
X3917952Y18370847D01*
X3761049Y18527750D01*
X3650102Y18719916D01*
X3592671Y18934250D01*
X3592671Y19156144D01*
X3650102Y19370478D01*
X3761049Y19562644D01*
X3917952Y19719547D01*
X4110119Y19830495D01*
X4324452Y19887925D01*
X4546347Y19887925D01*
X4760680Y19830495D01*
G37*
G36*
X-2859319Y19830487D02*
G01*
X-2667152Y19719539D01*
X-2510249Y19562636D01*
X-2399302Y19370470D01*
X-2341871Y19156136D01*
X-2341871Y18934242D01*
X-2399302Y18719908D01*
X-2510249Y18527742D01*
X-2667152Y18370839D01*
X-2859319Y18259892D01*
X-3073652Y18202461D01*
X-3295547Y18202461D01*
X-3509880Y18259892D01*
X-3702047Y18370839D01*
X-3858950Y18527742D01*
X-3969897Y18719908D01*
X-4027328Y18934242D01*
X-4027328Y19156136D01*
X-3969897Y19370470D01*
X-3858950Y19562636D01*
X-3702047Y19719539D01*
X-3509880Y19830487D01*
X-3295547Y19887917D01*
X-3073652Y19887917D01*
X-2859319Y19830487D01*
G37*
G36*
X-10480791Y-14211701D02*
G01*
X-9915596Y-14538016D01*
X-9454116Y-14999496D01*
X-9127801Y-15564691D01*
X-8958887Y-16195084D01*
X-8958887Y-16847715D01*
X-9127801Y-17478108D01*
X-9454116Y-18043303D01*
X-9915596Y-18504783D01*
X-10480791Y-18831098D01*
X-11111184Y-19000012D01*
X-11763815Y-19000012D01*
X-12394208Y-18831098D01*
X-12959403Y-18504783D01*
X-13420883Y-18043303D01*
X-13747198Y-17478108D01*
X-13916112Y-16847715D01*
X-13916112Y-16195084D01*
X-13747198Y-15564691D01*
X-13420883Y-14999496D01*
X-12959403Y-14538016D01*
X-12394208Y-14211701D01*
X-11763815Y-14042787D01*
X-11111184Y-14042787D01*
X-10480791Y-14211701D01*
G37*
G36*
X-10480791Y-14211701D02*
G01*
X-9915596Y-14538016D01*
X-9454116Y-14999496D01*
X-9127801Y-15564691D01*
X-8958887Y-16195084D01*
X-8958887Y-16847715D01*
X-9127801Y-17478108D01*
X-9454116Y-18043303D01*
X-9915596Y-18504783D01*
X-10480791Y-18831098D01*
X-11111184Y-19000012D01*
X-11763815Y-19000012D01*
X-12394208Y-18831098D01*
X-12959403Y-18504783D01*
X-13420883Y-18043303D01*
X-13747198Y-17478108D01*
X-13916112Y-16847715D01*
X-13916112Y-16195084D01*
X-13747198Y-15564691D01*
X-13420883Y-14999496D01*
X-12959403Y-14538016D01*
X-12394208Y-14211701D01*
X-11763815Y-14042787D01*
X-11111184Y-14042787D01*
X-10480791Y-14211701D01*
G37*
G36*
X1422899Y-14831400D02*
G01*
X-277100Y-14831400D01*
X-277100Y-13131400D01*
X1422899Y-13131400D01*
X1422899Y-14831400D01*
G37*
G36*
X898183Y-15736102D02*
G01*
X1090349Y-15847049D01*
X1247252Y-16003952D01*
X1358200Y-16196119D01*
X1415630Y-16410452D01*
X1415630Y-16632347D01*
X1358200Y-16846680D01*
X1247252Y-17038847D01*
X1090349Y-17195750D01*
X898183Y-17306697D01*
X683849Y-17364128D01*
X461955Y-17364128D01*
X247621Y-17306697D01*
X55455Y-17195750D01*
X-101447Y-17038847D01*
X-212395Y-16846680D01*
X-269825Y-16632347D01*
X-269825Y-16410452D01*
X-212395Y-16196119D01*
X-101447Y-16003952D01*
X55455Y-15847049D01*
X247621Y-15736102D01*
X461955Y-15678671D01*
X683849Y-15678671D01*
X898183Y-15736102D01*
G37*
G36*
X14922200Y-513100D02*
G01*
X14922200Y-2213100D01*
X13222200Y-2213100D01*
X13222200Y-513099D01*
X14922200Y-513100D01*
G37*
G36*
X14397494Y4502197D02*
G01*
X14589660Y4391250D01*
X14746563Y4234347D01*
X14857511Y4042180D01*
X14914941Y3827847D01*
X14914941Y3605952D01*
X14857511Y3391619D01*
X14746563Y3199452D01*
X14589660Y3042549D01*
X14397494Y2931602D01*
X14183160Y2874171D01*
X13961266Y2874171D01*
X13746932Y2931602D01*
X13554766Y3042549D01*
X13397863Y3199452D01*
X13286915Y3391619D01*
X13229485Y3605952D01*
X13229485Y3827847D01*
X13286915Y4042180D01*
X13397863Y4234347D01*
X13554766Y4391250D01*
X13746932Y4502197D01*
X13961266Y4559628D01*
X14183160Y4559628D01*
X14397494Y4502197D01*
G37*
G36*
X14397514Y12122197D02*
G01*
X14589680Y12011250D01*
X14746584Y11854347D01*
X14857531Y11662180D01*
X14914961Y11447847D01*
X14914961Y11225952D01*
X14857531Y11011619D01*
X14746584Y10819452D01*
X14589680Y10662549D01*
X14397514Y10551602D01*
X14183180Y10494171D01*
X13961286Y10494171D01*
X13746952Y10551602D01*
X13554786Y10662549D01*
X13397883Y10819452D01*
X13286936Y11011619D01*
X13229505Y11225952D01*
X13229505Y11447847D01*
X13286936Y11662180D01*
X13397883Y11854347D01*
X13554786Y12011250D01*
X13746952Y12122197D01*
X13961286Y12179628D01*
X14183180Y12179628D01*
X14397514Y12122197D01*
G37*
G36*
X14397501Y7042197D02*
G01*
X14589667Y6931250D01*
X14746570Y6774347D01*
X14857517Y6582180D01*
X14914948Y6367847D01*
X14914948Y6145952D01*
X14857517Y5931619D01*
X14746570Y5739452D01*
X14589667Y5582549D01*
X14397501Y5471602D01*
X14183167Y5414171D01*
X13961272Y5414171D01*
X13746939Y5471602D01*
X13554773Y5582549D01*
X13397869Y5739452D01*
X13286922Y5931619D01*
X13229492Y6145952D01*
X13229492Y6367847D01*
X13286922Y6582180D01*
X13397869Y6774347D01*
X13554773Y6931250D01*
X13746939Y7042197D01*
X13961272Y7099628D01*
X14183167Y7099628D01*
X14397501Y7042197D01*
G37*
G36*
X14397487Y1962197D02*
G01*
X14589653Y1851250D01*
X14746557Y1694347D01*
X14857504Y1502180D01*
X14914934Y1287847D01*
X14914934Y1065952D01*
X14857504Y851619D01*
X14746557Y659452D01*
X14589653Y502549D01*
X14397487Y391602D01*
X14183154Y334171D01*
X13961259Y334171D01*
X13746925Y391602D01*
X13554759Y502549D01*
X13397856Y659452D01*
X13286909Y851619D01*
X13229478Y1065952D01*
X13229478Y1287847D01*
X13286909Y1502180D01*
X13397856Y1694347D01*
X13554759Y1851250D01*
X13746925Y1962197D01*
X13961259Y2019628D01*
X14183154Y2019628D01*
X14397487Y1962197D01*
G37*
G36*
X14397507Y9582197D02*
G01*
X14589674Y9471250D01*
X14746577Y9314347D01*
X14857524Y9122180D01*
X14914955Y8907847D01*
X14914955Y8685952D01*
X14857524Y8471619D01*
X14746577Y8279452D01*
X14589674Y8122549D01*
X14397507Y8011602D01*
X14183174Y7954171D01*
X13961279Y7954171D01*
X13746946Y8011602D01*
X13554779Y8122549D01*
X13397876Y8279452D01*
X13286929Y8471619D01*
X13229498Y8685952D01*
X13229498Y8907847D01*
X13286929Y9122180D01*
X13397876Y9314347D01*
X13554779Y9471250D01*
X13746946Y9582197D01*
X13961279Y9639628D01*
X14183174Y9639628D01*
X14397507Y9582197D01*
G37*
G36*
X14528408Y-14211701D02*
G01*
X15093603Y-14538016D01*
X15555083Y-14999496D01*
X15881398Y-15564691D01*
X16050312Y-16195084D01*
X16050312Y-16847715D01*
X15881398Y-17478108D01*
X15555083Y-18043303D01*
X15093603Y-18504783D01*
X14528408Y-18831098D01*
X13898015Y-19000012D01*
X13245384Y-19000012D01*
X12614991Y-18831098D01*
X12049796Y-18504783D01*
X11588316Y-18043303D01*
X11262001Y-17478108D01*
X11093087Y-16847715D01*
X11093087Y-16195084D01*
X11262001Y-15564691D01*
X11588316Y-14999496D01*
X12049796Y-14538016D01*
X12614991Y-14211701D01*
X13245384Y-14042787D01*
X13898015Y-14042787D01*
X14528408Y-14211701D01*
G37*
G36*
X14528408Y-14211701D02*
G01*
X15093603Y-14538016D01*
X15555083Y-14999496D01*
X15881398Y-15564691D01*
X16050312Y-16195084D01*
X16050312Y-16847715D01*
X15881398Y-17478108D01*
X15555083Y-18043303D01*
X15093603Y-18504783D01*
X14528408Y-18831098D01*
X13898015Y-19000012D01*
X13245384Y-19000012D01*
X12614991Y-18831098D01*
X12049796Y-18504783D01*
X11588316Y-18043303D01*
X11262001Y-17478108D01*
X11093087Y-16847715D01*
X11093087Y-16195084D01*
X11262001Y-15564691D01*
X11588316Y-14999496D01*
X12049796Y-14538016D01*
X12614991Y-14211701D01*
X13245384Y-14042787D01*
X13898015Y-14042787D01*
X14528408Y-14211701D01*
G37*
G36*
X14528408Y20868598D02*
G01*
X15093603Y20542283D01*
X15555083Y20080803D01*
X15881398Y19515608D01*
X16050312Y18885215D01*
X16050312Y18232584D01*
X15881398Y17602191D01*
X15555083Y17036996D01*
X15093603Y16575516D01*
X14528408Y16249201D01*
X13898015Y16080287D01*
X13245384Y16080287D01*
X12614991Y16249201D01*
X12049796Y16575516D01*
X11588316Y17036996D01*
X11262001Y17602191D01*
X11093087Y18232584D01*
X11093087Y18885215D01*
X11262001Y19515608D01*
X11588316Y20080803D01*
X12049796Y20542283D01*
X12614991Y20868598D01*
X13245384Y21037512D01*
X13898015Y21037512D01*
X14528408Y20868598D01*
G37*
G36*
X14528408Y20868598D02*
G01*
X15093603Y20542283D01*
X15555083Y20080803D01*
X15881398Y19515608D01*
X16050312Y18885215D01*
X16050312Y18232584D01*
X15881398Y17602191D01*
X15555083Y17036996D01*
X15093603Y16575516D01*
X14528408Y16249201D01*
X13898015Y16080287D01*
X13245384Y16080287D01*
X12614991Y16249201D01*
X12049796Y16575516D01*
X11588316Y17036996D01*
X11262001Y17602191D01*
X11093087Y18232584D01*
X11093087Y18885215D01*
X11262001Y19515608D01*
X11588316Y20080803D01*
X12049796Y20542283D01*
X12614991Y20868598D01*
X13245384Y21037512D01*
X13898015Y21037512D01*
X14528408Y20868598D01*
G37*
G36*
X3962900Y-14831400D02*
G01*
X2262899Y-14831400D01*
X2262899Y-13131400D01*
X3962900Y-13131400D01*
X3962900Y-14831400D01*
G37*
G36*
X3438183Y-15736102D02*
G01*
X3630349Y-15847049D01*
X3787252Y-16003952D01*
X3898200Y-16196119D01*
X3955630Y-16410452D01*
X3955630Y-16632347D01*
X3898200Y-16846680D01*
X3787252Y-17038847D01*
X3630349Y-17195750D01*
X3438183Y-17306697D01*
X3223849Y-17364128D01*
X3001955Y-17364128D01*
X2787621Y-17306697D01*
X2595455Y-17195750D01*
X2438552Y-17038847D01*
X2327604Y-16846680D01*
X2270174Y-16632347D01*
X2270174Y-16410452D01*
X2327604Y-16196119D01*
X2438552Y-16003952D01*
X2595455Y-15847049D01*
X2787621Y-15736102D01*
X3001955Y-15678671D01*
X3223849Y-15678671D01*
X3438183Y-15736102D01*
G37*
G36*
X-10480791Y20868598D02*
G01*
X-9915596Y20542283D01*
X-9454116Y20080803D01*
X-9127801Y19515608D01*
X-8958887Y18885215D01*
X-8958887Y18232584D01*
X-9127801Y17602191D01*
X-9454116Y17036996D01*
X-9915596Y16575516D01*
X-10480791Y16249201D01*
X-11111184Y16080287D01*
X-11763815Y16080287D01*
X-12394208Y16249201D01*
X-12959403Y16575516D01*
X-13420883Y17036996D01*
X-13747198Y17602191D01*
X-13916112Y18232584D01*
X-13916112Y18885215D01*
X-13747198Y19515608D01*
X-13420883Y20080803D01*
X-12959403Y20542283D01*
X-12394208Y20868598D01*
X-11763815Y21037512D01*
X-11111184Y21037512D01*
X-10480791Y20868598D01*
G37*
G36*
X-9267500Y-6740200D02*
G01*
X-11067500Y-6740200D01*
X-11067500Y-4940200D01*
X-9267500Y-4940200D01*
X-9267500Y-6740200D01*
G37*
G36*
X-9823081Y-8508708D02*
G01*
X-9619611Y-8626181D01*
X-9453478Y-8792314D01*
X-9336004Y-8995784D01*
X-9275196Y-9222726D01*
X-9275196Y-9457673D01*
X-9336004Y-9684615D01*
X-9453478Y-9888085D01*
X-9619611Y-10054218D01*
X-9823081Y-10171691D01*
X-10050022Y-10232500D01*
X-10284970Y-10232500D01*
X-10511911Y-10171691D01*
X-10715381Y-10054218D01*
X-10881514Y-9888085D01*
X-10998988Y-9684615D01*
X-11059796Y-9457673D01*
X-11059796Y-9222726D01*
X-10998988Y-8995784D01*
X-10881514Y-8792314D01*
X-10715381Y-8626181D01*
X-10511911Y-8508708D01*
X-10284970Y-8447899D01*
X-10050022Y-8447899D01*
X-9823081Y-8508708D01*
G37*
G36*
X-1117100Y-14831400D02*
G01*
X-2817100Y-14831400D01*
X-2817100Y-13131400D01*
X-1117100Y-13131400D01*
X-1117100Y-14831400D01*
G37*
G36*
X-1641816Y-15736102D02*
G01*
X-1449650Y-15847049D01*
X-1292747Y-16003952D01*
X-1181799Y-16196119D01*
X-1124369Y-16410452D01*
X-1124369Y-16632347D01*
X-1181799Y-16846680D01*
X-1292747Y-17038847D01*
X-1449650Y-17195750D01*
X-1641816Y-17306697D01*
X-1856150Y-17364128D01*
X-2078044Y-17364128D01*
X-2292378Y-17306697D01*
X-2484544Y-17195750D01*
X-2641447Y-17038847D01*
X-2752395Y-16846680D01*
X-2809825Y-16632347D01*
X-2809825Y-16410452D01*
X-2752395Y-16196119D01*
X-2641447Y-16003952D01*
X-2484544Y-15847049D01*
X-2292378Y-15736102D01*
X-2078044Y-15678671D01*
X-1856150Y-15678671D01*
X-1641816Y-15736102D01*
G37*
%TD*%
M02*
