%TF.GenerationSoftware,Flux,Pcbnew,7.0.11-7.0.11~ubuntu20.04.1*%
%TF.CreationDate,2025-02-06T22:25:38+00:00*%
%TF.ProjectId,input,696e7075-742e-46b6-9963-61645f706362,rev?*%
%TF.SameCoordinates,Original*%
%TF.FileFunction,Profile,NP*%
%FSLAX46Y46*%
G04 Gerber Fmt 4.6, Leading zero omitted, Abs format (unit mm)*
G04 Filename: driverv4release*
G04 Build it with Flux! Visit our site at: https://www.flux.ai (PCBNEW 7.0.11-7.0.11~ubuntu20.04.1) date 2025-02-06 22:25:38*
%MOMM*%
%LPD*%
G01*
G04 APERTURE LIST*
%TA.AperFunction,Profile*%
%ADD10C,0.050000*%
%TD*%
G04 APERTURE END LIST*
D10*
X-11432900Y-18932900D02*
X-11463579Y-18932712D01*
X-11463579Y-18932712D02*
X-11494253Y-18932147D01*
X-11494253Y-18932147D02*
X-11524918Y-18931206D01*
X-11524918Y-18931206D02*
X-11555569Y-18929889D01*
X-11555569Y-18929889D02*
X-11586202Y-18928195D01*
X-11586202Y-18928195D02*
X-11616811Y-18926126D01*
X-11616811Y-18926126D02*
X-11647393Y-18923682D01*
X-11647393Y-18923682D02*
X-11677943Y-18920862D01*
X-11677943Y-18920862D02*
X-11708456Y-18917667D01*
X-11708456Y-18917667D02*
X-11738927Y-18914099D01*
X-11738927Y-18914099D02*
X-11769352Y-18910157D01*
X-11769352Y-18910157D02*
X-11799726Y-18905841D01*
X-11799726Y-18905841D02*
X-11830045Y-18901154D01*
X-11830045Y-18901154D02*
X-11860305Y-18896094D01*
X-11860305Y-18896094D02*
X-11890500Y-18890664D01*
X-11890500Y-18890664D02*
X-11920626Y-18884863D01*
X-11920626Y-18884863D02*
X-11950678Y-18878693D01*
X-11950678Y-18878693D02*
X-11980653Y-18872155D01*
X-11980653Y-18872155D02*
X-12010545Y-18865250D01*
X-12010545Y-18865250D02*
X-12040350Y-18857978D01*
X-12040350Y-18857978D02*
X-12070064Y-18850341D01*
X-12070064Y-18850341D02*
X-12099682Y-18842340D01*
X-12099682Y-18842340D02*
X-12129199Y-18833976D01*
X-12129199Y-18833976D02*
X-12158612Y-18825251D01*
X-12158612Y-18825251D02*
X-12187915Y-18816165D01*
X-12187915Y-18816165D02*
X-12217104Y-18806720D01*
X-12217104Y-18806720D02*
X-12246176Y-18796918D01*
X-12246176Y-18796918D02*
X-12275125Y-18786760D01*
X-12275125Y-18786760D02*
X-12303947Y-18776248D01*
X-12303947Y-18776248D02*
X-12332638Y-18765382D01*
X-12332638Y-18765382D02*
X-12361193Y-18754165D01*
X-12361193Y-18754165D02*
X-12389609Y-18742599D01*
X-12389609Y-18742599D02*
X-12417880Y-18730685D01*
X-12417880Y-18730685D02*
X-12446003Y-18718424D01*
X-12446003Y-18718424D02*
X-12473974Y-18705820D01*
X-12473974Y-18705820D02*
X-12501788Y-18692873D01*
X-12501788Y-18692873D02*
X-12529441Y-18679586D01*
X-12529441Y-18679586D02*
X-12556928Y-18665961D01*
X-12556928Y-18665961D02*
X-12584247Y-18651999D01*
X-12584247Y-18651999D02*
X-12611392Y-18637703D01*
X-12611392Y-18637703D02*
X-12638359Y-18623075D01*
X-12638359Y-18623075D02*
X-12665145Y-18608117D01*
X-12665145Y-18608117D02*
X-12691746Y-18592832D01*
X-12691746Y-18592832D02*
X-12718157Y-18577222D01*
X-12718157Y-18577222D02*
X-12744374Y-18561288D01*
X-12744374Y-18561288D02*
X-12770394Y-18545034D01*
X-12770394Y-18545034D02*
X-12796212Y-18528462D01*
X-12796212Y-18528462D02*
X-12821826Y-18511574D01*
X-12821826Y-18511574D02*
X-12847230Y-18494373D01*
X-12847230Y-18494373D02*
X-12872420Y-18476862D01*
X-12872420Y-18476862D02*
X-12897395Y-18459043D01*
X-12897395Y-18459043D02*
X-12922148Y-18440919D01*
X-12922148Y-18440919D02*
X-12946678Y-18422492D01*
X-12946678Y-18422492D02*
X-12970979Y-18403766D01*
X-12970979Y-18403766D02*
X-12995049Y-18384743D01*
X-12995049Y-18384743D02*
X-13018883Y-18365426D01*
X-13018883Y-18365426D02*
X-13042479Y-18345818D01*
X-13042479Y-18345818D02*
X-13065832Y-18325922D01*
X-13065832Y-18325922D02*
X-13088939Y-18305741D01*
X-13088939Y-18305741D02*
X-13111797Y-18285278D01*
X-13111797Y-18285278D02*
X-13134402Y-18264536D01*
X-13134402Y-18264536D02*
X-13156751Y-18243518D01*
X-13156751Y-18243518D02*
X-13178841Y-18222227D01*
X-13178841Y-18222227D02*
X-13200667Y-18200667D01*
X-13200667Y-18200667D02*
X-13222227Y-18178841D01*
X-13222227Y-18178841D02*
X-13243518Y-18156751D01*
X-13243518Y-18156751D02*
X-13264536Y-18134402D01*
X-13264536Y-18134402D02*
X-13285278Y-18111797D01*
X-13285278Y-18111797D02*
X-13305741Y-18088939D01*
X-13305741Y-18088939D02*
X-13325922Y-18065832D01*
X-13325922Y-18065832D02*
X-13345818Y-18042479D01*
X-13345818Y-18042479D02*
X-13365426Y-18018883D01*
X-13365426Y-18018883D02*
X-13384743Y-17995049D01*
X-13384743Y-17995049D02*
X-13403766Y-17970979D01*
X-13403766Y-17970979D02*
X-13422492Y-17946678D01*
X-13422492Y-17946678D02*
X-13440919Y-17922148D01*
X-13440919Y-17922148D02*
X-13459043Y-17897395D01*
X-13459043Y-17897395D02*
X-13476862Y-17872420D01*
X-13476862Y-17872420D02*
X-13494373Y-17847230D01*
X-13494373Y-17847230D02*
X-13511574Y-17821826D01*
X-13511574Y-17821826D02*
X-13528462Y-17796212D01*
X-13528462Y-17796212D02*
X-13545034Y-17770394D01*
X-13545034Y-17770394D02*
X-13561288Y-17744374D01*
X-13561288Y-17744374D02*
X-13577222Y-17718157D01*
X-13577222Y-17718157D02*
X-13592832Y-17691746D01*
X-13592832Y-17691746D02*
X-13608117Y-17665145D01*
X-13608117Y-17665145D02*
X-13623075Y-17638359D01*
X-13623075Y-17638359D02*
X-13637703Y-17611392D01*
X-13637703Y-17611392D02*
X-13651999Y-17584247D01*
X-13651999Y-17584247D02*
X-13665961Y-17556928D01*
X-13665961Y-17556928D02*
X-13679586Y-17529441D01*
X-13679586Y-17529441D02*
X-13692873Y-17501788D01*
X-13692873Y-17501788D02*
X-13705820Y-17473974D01*
X-13705820Y-17473974D02*
X-13718424Y-17446003D01*
X-13718424Y-17446003D02*
X-13730685Y-17417880D01*
X-13730685Y-17417880D02*
X-13742599Y-17389609D01*
X-13742599Y-17389609D02*
X-13754165Y-17361193D01*
X-13754165Y-17361193D02*
X-13765382Y-17332638D01*
X-13765382Y-17332638D02*
X-13776248Y-17303947D01*
X-13776248Y-17303947D02*
X-13786760Y-17275125D01*
X-13786760Y-17275125D02*
X-13796918Y-17246176D01*
X-13796918Y-17246176D02*
X-13806720Y-17217104D01*
X-13806720Y-17217104D02*
X-13816165Y-17187915D01*
X-13816165Y-17187915D02*
X-13825251Y-17158612D01*
X-13825251Y-17158612D02*
X-13833976Y-17129199D01*
X-13833976Y-17129199D02*
X-13842340Y-17099682D01*
X-13842340Y-17099682D02*
X-13850341Y-17070064D01*
X-13850341Y-17070064D02*
X-13857978Y-17040350D01*
X-13857978Y-17040350D02*
X-13865250Y-17010545D01*
X-13865250Y-17010545D02*
X-13872155Y-16980653D01*
X-13872155Y-16980653D02*
X-13878693Y-16950678D01*
X-13878693Y-16950678D02*
X-13884863Y-16920626D01*
X-13884863Y-16920626D02*
X-13890664Y-16890500D01*
X-13890664Y-16890500D02*
X-13896094Y-16860305D01*
X-13896094Y-16860305D02*
X-13901154Y-16830045D01*
X-13901154Y-16830045D02*
X-13905841Y-16799726D01*
X-13905841Y-16799726D02*
X-13910157Y-16769352D01*
X-13910157Y-16769352D02*
X-13914099Y-16738927D01*
X-13914099Y-16738927D02*
X-13917667Y-16708456D01*
X-13917667Y-16708456D02*
X-13920862Y-16677943D01*
X-13920862Y-16677943D02*
X-13923682Y-16647393D01*
X-13923682Y-16647393D02*
X-13926126Y-16616811D01*
X-13926126Y-16616811D02*
X-13928195Y-16586202D01*
X-13928195Y-16586202D02*
X-13929889Y-16555569D01*
X-13929889Y-16555569D02*
X-13931206Y-16524918D01*
X-13931206Y-16524918D02*
X-13932147Y-16494253D01*
X-13932147Y-16494253D02*
X-13932712Y-16463579D01*
X-13932712Y-16463579D02*
X-13932900Y-16432900D01*
X-13932900Y-16432900D02*
X-13932900Y18567100D01*
X-13932900Y18567100D02*
X-13932712Y18597779D01*
X-13932712Y18597779D02*
X-13932147Y18628453D01*
X-13932147Y18628453D02*
X-13931206Y18659118D01*
X-13931206Y18659118D02*
X-13929889Y18689769D01*
X-13929889Y18689769D02*
X-13928195Y18720402D01*
X-13928195Y18720402D02*
X-13926126Y18751011D01*
X-13926126Y18751011D02*
X-13923682Y18781593D01*
X-13923682Y18781593D02*
X-13920862Y18812143D01*
X-13920862Y18812143D02*
X-13917667Y18842656D01*
X-13917667Y18842656D02*
X-13914099Y18873127D01*
X-13914099Y18873127D02*
X-13910157Y18903552D01*
X-13910157Y18903552D02*
X-13905841Y18933926D01*
X-13905841Y18933926D02*
X-13901154Y18964245D01*
X-13901154Y18964245D02*
X-13896094Y18994505D01*
X-13896094Y18994505D02*
X-13890664Y19024700D01*
X-13890664Y19024700D02*
X-13884863Y19054826D01*
X-13884863Y19054826D02*
X-13878693Y19084878D01*
X-13878693Y19084878D02*
X-13872155Y19114853D01*
X-13872155Y19114853D02*
X-13865250Y19144745D01*
X-13865250Y19144745D02*
X-13857978Y19174550D01*
X-13857978Y19174550D02*
X-13850341Y19204264D01*
X-13850341Y19204264D02*
X-13842340Y19233882D01*
X-13842340Y19233882D02*
X-13833976Y19263399D01*
X-13833976Y19263399D02*
X-13825251Y19292812D01*
X-13825251Y19292812D02*
X-13816165Y19322115D01*
X-13816165Y19322115D02*
X-13806720Y19351304D01*
X-13806720Y19351304D02*
X-13796918Y19380376D01*
X-13796918Y19380376D02*
X-13786760Y19409325D01*
X-13786760Y19409325D02*
X-13776248Y19438147D01*
X-13776248Y19438147D02*
X-13765382Y19466838D01*
X-13765382Y19466838D02*
X-13754165Y19495393D01*
X-13754165Y19495393D02*
X-13742599Y19523809D01*
X-13742599Y19523809D02*
X-13730685Y19552080D01*
X-13730685Y19552080D02*
X-13718424Y19580203D01*
X-13718424Y19580203D02*
X-13705820Y19608174D01*
X-13705820Y19608174D02*
X-13692873Y19635988D01*
X-13692873Y19635988D02*
X-13679586Y19663641D01*
X-13679586Y19663641D02*
X-13665961Y19691128D01*
X-13665961Y19691128D02*
X-13651999Y19718447D01*
X-13651999Y19718447D02*
X-13637703Y19745592D01*
X-13637703Y19745592D02*
X-13623075Y19772559D01*
X-13623075Y19772559D02*
X-13608117Y19799345D01*
X-13608117Y19799345D02*
X-13592832Y19825946D01*
X-13592832Y19825946D02*
X-13577222Y19852357D01*
X-13577222Y19852357D02*
X-13561288Y19878574D01*
X-13561288Y19878574D02*
X-13545034Y19904594D01*
X-13545034Y19904594D02*
X-13528462Y19930412D01*
X-13528462Y19930412D02*
X-13511574Y19956026D01*
X-13511574Y19956026D02*
X-13494373Y19981430D01*
X-13494373Y19981430D02*
X-13476862Y20006620D01*
X-13476862Y20006620D02*
X-13459043Y20031595D01*
X-13459043Y20031595D02*
X-13440919Y20056348D01*
X-13440919Y20056348D02*
X-13422492Y20080878D01*
X-13422492Y20080878D02*
X-13403766Y20105179D01*
X-13403766Y20105179D02*
X-13384743Y20129249D01*
X-13384743Y20129249D02*
X-13365426Y20153083D01*
X-13365426Y20153083D02*
X-13345818Y20176679D01*
X-13345818Y20176679D02*
X-13325922Y20200032D01*
X-13325922Y20200032D02*
X-13305741Y20223139D01*
X-13305741Y20223139D02*
X-13285278Y20245997D01*
X-13285278Y20245997D02*
X-13264536Y20268602D01*
X-13264536Y20268602D02*
X-13243518Y20290951D01*
X-13243518Y20290951D02*
X-13222227Y20313041D01*
X-13222227Y20313041D02*
X-13200667Y20334867D01*
X-13200667Y20334867D02*
X-13178841Y20356427D01*
X-13178841Y20356427D02*
X-13156751Y20377718D01*
X-13156751Y20377718D02*
X-13134402Y20398736D01*
X-13134402Y20398736D02*
X-13111797Y20419478D01*
X-13111797Y20419478D02*
X-13088939Y20439941D01*
X-13088939Y20439941D02*
X-13065832Y20460122D01*
X-13065832Y20460122D02*
X-13042479Y20480018D01*
X-13042479Y20480018D02*
X-13018883Y20499626D01*
X-13018883Y20499626D02*
X-12995049Y20518943D01*
X-12995049Y20518943D02*
X-12970979Y20537966D01*
X-12970979Y20537966D02*
X-12946678Y20556692D01*
X-12946678Y20556692D02*
X-12922148Y20575119D01*
X-12922148Y20575119D02*
X-12897395Y20593243D01*
X-12897395Y20593243D02*
X-12872420Y20611062D01*
X-12872420Y20611062D02*
X-12847230Y20628573D01*
X-12847230Y20628573D02*
X-12821826Y20645774D01*
X-12821826Y20645774D02*
X-12796212Y20662662D01*
X-12796212Y20662662D02*
X-12770394Y20679234D01*
X-12770394Y20679234D02*
X-12744374Y20695488D01*
X-12744374Y20695488D02*
X-12718157Y20711422D01*
X-12718157Y20711422D02*
X-12691746Y20727032D01*
X-12691746Y20727032D02*
X-12665145Y20742317D01*
X-12665145Y20742317D02*
X-12638359Y20757275D01*
X-12638359Y20757275D02*
X-12611392Y20771903D01*
X-12611392Y20771903D02*
X-12584247Y20786199D01*
X-12584247Y20786199D02*
X-12556928Y20800161D01*
X-12556928Y20800161D02*
X-12529441Y20813786D01*
X-12529441Y20813786D02*
X-12501788Y20827073D01*
X-12501788Y20827073D02*
X-12473974Y20840020D01*
X-12473974Y20840020D02*
X-12446003Y20852624D01*
X-12446003Y20852624D02*
X-12417880Y20864885D01*
X-12417880Y20864885D02*
X-12389609Y20876799D01*
X-12389609Y20876799D02*
X-12361193Y20888365D01*
X-12361193Y20888365D02*
X-12332638Y20899582D01*
X-12332638Y20899582D02*
X-12303947Y20910448D01*
X-12303947Y20910448D02*
X-12275125Y20920960D01*
X-12275125Y20920960D02*
X-12246176Y20931118D01*
X-12246176Y20931118D02*
X-12217104Y20940920D01*
X-12217104Y20940920D02*
X-12187915Y20950365D01*
X-12187915Y20950365D02*
X-12158612Y20959451D01*
X-12158612Y20959451D02*
X-12129199Y20968176D01*
X-12129199Y20968176D02*
X-12099682Y20976540D01*
X-12099682Y20976540D02*
X-12070064Y20984541D01*
X-12070064Y20984541D02*
X-12040350Y20992178D01*
X-12040350Y20992178D02*
X-12010545Y20999450D01*
X-12010545Y20999450D02*
X-11980653Y21006355D01*
X-11980653Y21006355D02*
X-11950678Y21012893D01*
X-11950678Y21012893D02*
X-11920626Y21019063D01*
X-11920626Y21019063D02*
X-11890500Y21024864D01*
X-11890500Y21024864D02*
X-11860305Y21030294D01*
X-11860305Y21030294D02*
X-11830045Y21035354D01*
X-11830045Y21035354D02*
X-11799726Y21040041D01*
X-11799726Y21040041D02*
X-11769352Y21044357D01*
X-11769352Y21044357D02*
X-11738927Y21048299D01*
X-11738927Y21048299D02*
X-11708456Y21051867D01*
X-11708456Y21051867D02*
X-11677943Y21055062D01*
X-11677943Y21055062D02*
X-11647393Y21057882D01*
X-11647393Y21057882D02*
X-11616811Y21060326D01*
X-11616811Y21060326D02*
X-11586202Y21062395D01*
X-11586202Y21062395D02*
X-11555569Y21064089D01*
X-11555569Y21064089D02*
X-11524918Y21065406D01*
X-11524918Y21065406D02*
X-11494253Y21066347D01*
X-11494253Y21066347D02*
X-11463579Y21066912D01*
X-11463579Y21066912D02*
X-11432900Y21067100D01*
X-11432900Y21067100D02*
X13567100Y21067100D01*
X13567100Y21067100D02*
X13597779Y21066912D01*
X13597779Y21066912D02*
X13628453Y21066347D01*
X13628453Y21066347D02*
X13659118Y21065406D01*
X13659118Y21065406D02*
X13689769Y21064089D01*
X13689769Y21064089D02*
X13720402Y21062395D01*
X13720402Y21062395D02*
X13751011Y21060326D01*
X13751011Y21060326D02*
X13781593Y21057882D01*
X13781593Y21057882D02*
X13812143Y21055062D01*
X13812143Y21055062D02*
X13842656Y21051867D01*
X13842656Y21051867D02*
X13873127Y21048299D01*
X13873127Y21048299D02*
X13903552Y21044357D01*
X13903552Y21044357D02*
X13933926Y21040041D01*
X13933926Y21040041D02*
X13964245Y21035354D01*
X13964245Y21035354D02*
X13994505Y21030294D01*
X13994505Y21030294D02*
X14024700Y21024864D01*
X14024700Y21024864D02*
X14054826Y21019063D01*
X14054826Y21019063D02*
X14084878Y21012893D01*
X14084878Y21012893D02*
X14114853Y21006355D01*
X14114853Y21006355D02*
X14144745Y20999450D01*
X14144745Y20999450D02*
X14174550Y20992178D01*
X14174550Y20992178D02*
X14204264Y20984541D01*
X14204264Y20984541D02*
X14233882Y20976540D01*
X14233882Y20976540D02*
X14263399Y20968176D01*
X14263399Y20968176D02*
X14292812Y20959451D01*
X14292812Y20959451D02*
X14322115Y20950365D01*
X14322115Y20950365D02*
X14351304Y20940920D01*
X14351304Y20940920D02*
X14380376Y20931118D01*
X14380376Y20931118D02*
X14409325Y20920960D01*
X14409325Y20920960D02*
X14438147Y20910448D01*
X14438147Y20910448D02*
X14466838Y20899582D01*
X14466838Y20899582D02*
X14495393Y20888365D01*
X14495393Y20888365D02*
X14523809Y20876799D01*
X14523809Y20876799D02*
X14552080Y20864885D01*
X14552080Y20864885D02*
X14580203Y20852624D01*
X14580203Y20852624D02*
X14608174Y20840020D01*
X14608174Y20840020D02*
X14635988Y20827073D01*
X14635988Y20827073D02*
X14663641Y20813786D01*
X14663641Y20813786D02*
X14691128Y20800161D01*
X14691128Y20800161D02*
X14718447Y20786199D01*
X14718447Y20786199D02*
X14745592Y20771903D01*
X14745592Y20771903D02*
X14772559Y20757275D01*
X14772559Y20757275D02*
X14799345Y20742317D01*
X14799345Y20742317D02*
X14825946Y20727032D01*
X14825946Y20727032D02*
X14852357Y20711422D01*
X14852357Y20711422D02*
X14878574Y20695488D01*
X14878574Y20695488D02*
X14904594Y20679234D01*
X14904594Y20679234D02*
X14930412Y20662662D01*
X14930412Y20662662D02*
X14956026Y20645774D01*
X14956026Y20645774D02*
X14981430Y20628573D01*
X14981430Y20628573D02*
X15006620Y20611062D01*
X15006620Y20611062D02*
X15031595Y20593243D01*
X15031595Y20593243D02*
X15056348Y20575119D01*
X15056348Y20575119D02*
X15080878Y20556692D01*
X15080878Y20556692D02*
X15105179Y20537966D01*
X15105179Y20537966D02*
X15129249Y20518943D01*
X15129249Y20518943D02*
X15153083Y20499626D01*
X15153083Y20499626D02*
X15176679Y20480018D01*
X15176679Y20480018D02*
X15200032Y20460122D01*
X15200032Y20460122D02*
X15223139Y20439941D01*
X15223139Y20439941D02*
X15245997Y20419478D01*
X15245997Y20419478D02*
X15268602Y20398736D01*
X15268602Y20398736D02*
X15290951Y20377718D01*
X15290951Y20377718D02*
X15313041Y20356427D01*
X15313041Y20356427D02*
X15334867Y20334867D01*
X15334867Y20334867D02*
X15356427Y20313041D01*
X15356427Y20313041D02*
X15377718Y20290951D01*
X15377718Y20290951D02*
X15398736Y20268602D01*
X15398736Y20268602D02*
X15419478Y20245997D01*
X15419478Y20245997D02*
X15439941Y20223139D01*
X15439941Y20223139D02*
X15460122Y20200032D01*
X15460122Y20200032D02*
X15480018Y20176679D01*
X15480018Y20176679D02*
X15499626Y20153083D01*
X15499626Y20153083D02*
X15518943Y20129249D01*
X15518943Y20129249D02*
X15537966Y20105179D01*
X15537966Y20105179D02*
X15556692Y20080878D01*
X15556692Y20080878D02*
X15575119Y20056348D01*
X15575119Y20056348D02*
X15593243Y20031595D01*
X15593243Y20031595D02*
X15611062Y20006620D01*
X15611062Y20006620D02*
X15628573Y19981430D01*
X15628573Y19981430D02*
X15645774Y19956026D01*
X15645774Y19956026D02*
X15662662Y19930412D01*
X15662662Y19930412D02*
X15679234Y19904594D01*
X15679234Y19904594D02*
X15695488Y19878574D01*
X15695488Y19878574D02*
X15711422Y19852357D01*
X15711422Y19852357D02*
X15727032Y19825946D01*
X15727032Y19825946D02*
X15742317Y19799345D01*
X15742317Y19799345D02*
X15757275Y19772559D01*
X15757275Y19772559D02*
X15771903Y19745592D01*
X15771903Y19745592D02*
X15786199Y19718447D01*
X15786199Y19718447D02*
X15800161Y19691128D01*
X15800161Y19691128D02*
X15813786Y19663641D01*
X15813786Y19663641D02*
X15827073Y19635988D01*
X15827073Y19635988D02*
X15840020Y19608174D01*
X15840020Y19608174D02*
X15852624Y19580203D01*
X15852624Y19580203D02*
X15864885Y19552080D01*
X15864885Y19552080D02*
X15876799Y19523809D01*
X15876799Y19523809D02*
X15888365Y19495393D01*
X15888365Y19495393D02*
X15899582Y19466838D01*
X15899582Y19466838D02*
X15910448Y19438147D01*
X15910448Y19438147D02*
X15920960Y19409325D01*
X15920960Y19409325D02*
X15931118Y19380376D01*
X15931118Y19380376D02*
X15940920Y19351304D01*
X15940920Y19351304D02*
X15950365Y19322115D01*
X15950365Y19322115D02*
X15959451Y19292812D01*
X15959451Y19292812D02*
X15968176Y19263399D01*
X15968176Y19263399D02*
X15976540Y19233882D01*
X15976540Y19233882D02*
X15984541Y19204264D01*
X15984541Y19204264D02*
X15992178Y19174550D01*
X15992178Y19174550D02*
X15999450Y19144745D01*
X15999450Y19144745D02*
X16006355Y19114853D01*
X16006355Y19114853D02*
X16012893Y19084878D01*
X16012893Y19084878D02*
X16019063Y19054826D01*
X16019063Y19054826D02*
X16024864Y19024700D01*
X16024864Y19024700D02*
X16030294Y18994505D01*
X16030294Y18994505D02*
X16035354Y18964245D01*
X16035354Y18964245D02*
X16040041Y18933926D01*
X16040041Y18933926D02*
X16044357Y18903552D01*
X16044357Y18903552D02*
X16048299Y18873127D01*
X16048299Y18873127D02*
X16051867Y18842656D01*
X16051867Y18842656D02*
X16055062Y18812143D01*
X16055062Y18812143D02*
X16057882Y18781593D01*
X16057882Y18781593D02*
X16060326Y18751011D01*
X16060326Y18751011D02*
X16062395Y18720402D01*
X16062395Y18720402D02*
X16064089Y18689769D01*
X16064089Y18689769D02*
X16065406Y18659118D01*
X16065406Y18659118D02*
X16066347Y18628453D01*
X16066347Y18628453D02*
X16066912Y18597779D01*
X16066912Y18597779D02*
X16067100Y18567100D01*
X16067100Y18567100D02*
X16067100Y-16432900D01*
X16067100Y-16432900D02*
X16066912Y-16463579D01*
X16066912Y-16463579D02*
X16066347Y-16494253D01*
X16066347Y-16494253D02*
X16065406Y-16524918D01*
X16065406Y-16524918D02*
X16064089Y-16555569D01*
X16064089Y-16555569D02*
X16062395Y-16586202D01*
X16062395Y-16586202D02*
X16060326Y-16616811D01*
X16060326Y-16616811D02*
X16057882Y-16647393D01*
X16057882Y-16647393D02*
X16055062Y-16677943D01*
X16055062Y-16677943D02*
X16051867Y-16708456D01*
X16051867Y-16708456D02*
X16048299Y-16738927D01*
X16048299Y-16738927D02*
X16044357Y-16769352D01*
X16044357Y-16769352D02*
X16040041Y-16799726D01*
X16040041Y-16799726D02*
X16035354Y-16830045D01*
X16035354Y-16830045D02*
X16030294Y-16860305D01*
X16030294Y-16860305D02*
X16024864Y-16890500D01*
X16024864Y-16890500D02*
X16019063Y-16920626D01*
X16019063Y-16920626D02*
X16012893Y-16950678D01*
X16012893Y-16950678D02*
X16006355Y-16980653D01*
X16006355Y-16980653D02*
X15999450Y-17010545D01*
X15999450Y-17010545D02*
X15992178Y-17040350D01*
X15992178Y-17040350D02*
X15984541Y-17070064D01*
X15984541Y-17070064D02*
X15976540Y-17099682D01*
X15976540Y-17099682D02*
X15968176Y-17129199D01*
X15968176Y-17129199D02*
X15959451Y-17158612D01*
X15959451Y-17158612D02*
X15950365Y-17187915D01*
X15950365Y-17187915D02*
X15940920Y-17217104D01*
X15940920Y-17217104D02*
X15931118Y-17246176D01*
X15931118Y-17246176D02*
X15920960Y-17275125D01*
X15920960Y-17275125D02*
X15910448Y-17303947D01*
X15910448Y-17303947D02*
X15899582Y-17332638D01*
X15899582Y-17332638D02*
X15888365Y-17361193D01*
X15888365Y-17361193D02*
X15876799Y-17389609D01*
X15876799Y-17389609D02*
X15864885Y-17417880D01*
X15864885Y-17417880D02*
X15852624Y-17446003D01*
X15852624Y-17446003D02*
X15840020Y-17473974D01*
X15840020Y-17473974D02*
X15827073Y-17501788D01*
X15827073Y-17501788D02*
X15813786Y-17529441D01*
X15813786Y-17529441D02*
X15800161Y-17556928D01*
X15800161Y-17556928D02*
X15786199Y-17584247D01*
X15786199Y-17584247D02*
X15771903Y-17611392D01*
X15771903Y-17611392D02*
X15757275Y-17638359D01*
X15757275Y-17638359D02*
X15742317Y-17665145D01*
X15742317Y-17665145D02*
X15727032Y-17691746D01*
X15727032Y-17691746D02*
X15711422Y-17718157D01*
X15711422Y-17718157D02*
X15695488Y-17744374D01*
X15695488Y-17744374D02*
X15679234Y-17770394D01*
X15679234Y-17770394D02*
X15662662Y-17796212D01*
X15662662Y-17796212D02*
X15645774Y-17821826D01*
X15645774Y-17821826D02*
X15628573Y-17847230D01*
X15628573Y-17847230D02*
X15611062Y-17872420D01*
X15611062Y-17872420D02*
X15593243Y-17897395D01*
X15593243Y-17897395D02*
X15575119Y-17922148D01*
X15575119Y-17922148D02*
X15556692Y-17946678D01*
X15556692Y-17946678D02*
X15537966Y-17970979D01*
X15537966Y-17970979D02*
X15518943Y-17995049D01*
X15518943Y-17995049D02*
X15499626Y-18018883D01*
X15499626Y-18018883D02*
X15480018Y-18042479D01*
X15480018Y-18042479D02*
X15460122Y-18065832D01*
X15460122Y-18065832D02*
X15439941Y-18088939D01*
X15439941Y-18088939D02*
X15419478Y-18111797D01*
X15419478Y-18111797D02*
X15398736Y-18134402D01*
X15398736Y-18134402D02*
X15377718Y-18156751D01*
X15377718Y-18156751D02*
X15356427Y-18178841D01*
X15356427Y-18178841D02*
X15334867Y-18200667D01*
X15334867Y-18200667D02*
X15313041Y-18222227D01*
X15313041Y-18222227D02*
X15290951Y-18243518D01*
X15290951Y-18243518D02*
X15268602Y-18264536D01*
X15268602Y-18264536D02*
X15245997Y-18285278D01*
X15245997Y-18285278D02*
X15223139Y-18305741D01*
X15223139Y-18305741D02*
X15200032Y-18325922D01*
X15200032Y-18325922D02*
X15176679Y-18345818D01*
X15176679Y-18345818D02*
X15153083Y-18365426D01*
X15153083Y-18365426D02*
X15129249Y-18384743D01*
X15129249Y-18384743D02*
X15105179Y-18403766D01*
X15105179Y-18403766D02*
X15080878Y-18422492D01*
X15080878Y-18422492D02*
X15056348Y-18440919D01*
X15056348Y-18440919D02*
X15031595Y-18459043D01*
X15031595Y-18459043D02*
X15006620Y-18476862D01*
X15006620Y-18476862D02*
X14981430Y-18494373D01*
X14981430Y-18494373D02*
X14956026Y-18511574D01*
X14956026Y-18511574D02*
X14930412Y-18528462D01*
X14930412Y-18528462D02*
X14904594Y-18545034D01*
X14904594Y-18545034D02*
X14878574Y-18561288D01*
X14878574Y-18561288D02*
X14852357Y-18577222D01*
X14852357Y-18577222D02*
X14825946Y-18592832D01*
X14825946Y-18592832D02*
X14799345Y-18608117D01*
X14799345Y-18608117D02*
X14772559Y-18623075D01*
X14772559Y-18623075D02*
X14745592Y-18637703D01*
X14745592Y-18637703D02*
X14718447Y-18651999D01*
X14718447Y-18651999D02*
X14691128Y-18665961D01*
X14691128Y-18665961D02*
X14663641Y-18679586D01*
X14663641Y-18679586D02*
X14635988Y-18692873D01*
X14635988Y-18692873D02*
X14608174Y-18705820D01*
X14608174Y-18705820D02*
X14580203Y-18718424D01*
X14580203Y-18718424D02*
X14552080Y-18730685D01*
X14552080Y-18730685D02*
X14523809Y-18742599D01*
X14523809Y-18742599D02*
X14495393Y-18754165D01*
X14495393Y-18754165D02*
X14466838Y-18765382D01*
X14466838Y-18765382D02*
X14438147Y-18776248D01*
X14438147Y-18776248D02*
X14409325Y-18786760D01*
X14409325Y-18786760D02*
X14380376Y-18796918D01*
X14380376Y-18796918D02*
X14351304Y-18806720D01*
X14351304Y-18806720D02*
X14322115Y-18816165D01*
X14322115Y-18816165D02*
X14292812Y-18825251D01*
X14292812Y-18825251D02*
X14263399Y-18833976D01*
X14263399Y-18833976D02*
X14233882Y-18842340D01*
X14233882Y-18842340D02*
X14204264Y-18850341D01*
X14204264Y-18850341D02*
X14174550Y-18857978D01*
X14174550Y-18857978D02*
X14144745Y-18865250D01*
X14144745Y-18865250D02*
X14114853Y-18872155D01*
X14114853Y-18872155D02*
X14084878Y-18878693D01*
X14084878Y-18878693D02*
X14054826Y-18884863D01*
X14054826Y-18884863D02*
X14024700Y-18890664D01*
X14024700Y-18890664D02*
X13994505Y-18896094D01*
X13994505Y-18896094D02*
X13964245Y-18901154D01*
X13964245Y-18901154D02*
X13933926Y-18905841D01*
X13933926Y-18905841D02*
X13903552Y-18910157D01*
X13903552Y-18910157D02*
X13873127Y-18914099D01*
X13873127Y-18914099D02*
X13842656Y-18917667D01*
X13842656Y-18917667D02*
X13812143Y-18920862D01*
X13812143Y-18920862D02*
X13781593Y-18923682D01*
X13781593Y-18923682D02*
X13751011Y-18926126D01*
X13751011Y-18926126D02*
X13720402Y-18928195D01*
X13720402Y-18928195D02*
X13689769Y-18929889D01*
X13689769Y-18929889D02*
X13659118Y-18931206D01*
X13659118Y-18931206D02*
X13628453Y-18932147D01*
X13628453Y-18932147D02*
X13597779Y-18932712D01*
X13597779Y-18932712D02*
X13567100Y-18932900D01*
X13567100Y-18932900D02*
X-11432900Y-18932900D01*
M02*
