%TF.GenerationSoftware,Flux,Pcbnew,7.0.11-7.0.11~ubuntu20.04.1*%
%TF.CreationDate,2025-02-06T22:25:38+00:00*%
%TF.ProjectId,input,696e7075-742e-46b6-9963-61645f706362,rev?*%
%TF.SameCoordinates,Original*%
%TF.FileFunction,Copper,L2,Inr*%
%TF.FilePolarity,Positive*%
%FSLAX46Y46*%
G04 Gerber Fmt 4.6, Leading zero omitted, Abs format (unit mm)*
G04 Filename: driverv4release*
G04 Build it with Flux! Visit our site at: https://www.flux.ai (PCBNEW 7.0.11-7.0.11~ubuntu20.04.1) date 2025-02-06 22:25:38*
%MOMM*%
%LPD*%
G01*
G04 APERTURE LIST*
G04 Aperture macros list*
%AMFreePoly0*
4,1,5,0.850000,-0.850000,-0.850000,-0.850000,-0.850000,0.850000,0.850000,0.850000,0.850000,-0.850000,0.850000,-0.850000,$1*%
%AMFreePoly1*
4,1,65,0.124721,0.840800,0.206533,0.824527,0.286356,0.800312,0.363422,0.768391,0.436987,0.729069,0.506344,0.682726,0.570825,0.629808,0.629808,0.570825,0.682726,0.506344,0.729069,0.436987,0.768391,0.363422,0.800312,0.286356,0.824527,0.206533,0.840800,0.124721,0.848976,0.041708,0.848976,-0.041708,0.840800,-0.124721,0.824527,-0.206533,0.800312,-0.286356,0.768391,-0.363422,
0.729069,-0.436987,0.682726,-0.506344,0.629808,-0.570825,0.570825,-0.629808,0.506344,-0.682726,0.436987,-0.729069,0.363422,-0.768391,0.286356,-0.800312,0.206533,-0.824527,0.124721,-0.840800,0.041708,-0.848976,-0.041708,-0.848976,-0.124721,-0.840800,-0.206533,-0.824527,-0.286356,-0.800312,-0.363422,-0.768391,-0.436987,-0.729069,-0.506344,-0.682726,-0.570825,-0.629808,-0.629808,-0.570825,
-0.682726,-0.506344,-0.729069,-0.436987,-0.768391,-0.363422,-0.800312,-0.286356,-0.824527,-0.206533,-0.840800,-0.124721,-0.848976,-0.041708,-0.848976,0.041708,-0.840800,0.124721,-0.824527,0.206533,-0.800312,0.286356,-0.768391,0.363422,-0.729069,0.436987,-0.682726,0.506344,-0.629808,0.570825,-0.570825,0.629808,-0.506344,0.682726,-0.436987,0.729069,-0.363422,0.768391,-0.286356,0.800312,
-0.206533,0.824527,-0.124721,0.840800,-0.041708,0.848976,0.041708,0.848976,0.124721,0.840800,0.124721,0.840800,$1*%
%AMFreePoly2*
4,1,129,0.022069,0.299187,0.036723,0.297744,0.051289,0.295583,0.065730,0.292711,0.080014,0.289133,0.094105,0.284858,0.107969,0.279898,0.121572,0.274263,0.134883,0.267967,0.147869,0.261026,0.160499,0.253456,0.172742,0.245275,0.184569,0.236504,0.195952,0.227163,0.206862,0.217274,0.217274,0.206862,0.227163,0.195952,0.236504,0.184569,0.245275,0.172742,0.253456,0.160499,
0.261026,0.147869,0.267967,0.134883,0.274263,0.121572,0.279898,0.107969,0.284858,0.094105,0.289133,0.080014,0.292711,0.065730,0.295583,0.051289,0.297744,0.036723,0.299187,0.022069,0.299910,0.007362,0.299910,-0.007362,0.299187,-0.022069,0.297744,-0.036723,0.295583,-0.051289,0.292711,-0.065730,0.289133,-0.080014,0.284858,-0.094105,0.279898,-0.107969,0.274263,-0.121572,
0.267967,-0.134883,0.261026,-0.147869,0.253456,-0.160499,0.245275,-0.172742,0.236504,-0.184569,0.227163,-0.195952,0.217274,-0.206862,0.206862,-0.217274,0.195952,-0.227163,0.184569,-0.236504,0.172742,-0.245275,0.160499,-0.253456,0.147869,-0.261026,0.134883,-0.267967,0.121572,-0.274263,0.107969,-0.279898,0.094105,-0.284858,0.080014,-0.289133,0.065730,-0.292711,0.051289,-0.295583,
0.036723,-0.297744,0.022069,-0.299187,0.007362,-0.299910,-0.007362,-0.299910,-0.022069,-0.299187,-0.036723,-0.297744,-0.051289,-0.295583,-0.065730,-0.292711,-0.080014,-0.289133,-0.094105,-0.284858,-0.107969,-0.279898,-0.121572,-0.274263,-0.134883,-0.267967,-0.147869,-0.261026,-0.160499,-0.253456,-0.172742,-0.245275,-0.184569,-0.236504,-0.195952,-0.227163,-0.206862,-0.217274,-0.217274,-0.206862,
-0.227163,-0.195952,-0.236504,-0.184569,-0.245275,-0.172742,-0.253456,-0.160499,-0.261026,-0.147869,-0.267967,-0.134883,-0.274263,-0.121572,-0.279898,-0.107969,-0.284858,-0.094105,-0.289133,-0.080014,-0.292711,-0.065730,-0.295583,-0.051289,-0.297744,-0.036723,-0.299187,-0.022069,-0.299910,-0.007362,-0.299910,0.007362,-0.299187,0.022069,-0.297744,0.036723,-0.295583,0.051289,-0.292711,0.065730,
-0.289133,0.080014,-0.284858,0.094105,-0.279898,0.107969,-0.274263,0.121572,-0.267967,0.134883,-0.261026,0.147869,-0.253456,0.160499,-0.245275,0.172742,-0.236504,0.184569,-0.227163,0.195952,-0.217274,0.206862,-0.206862,0.217274,-0.195952,0.227163,-0.184569,0.236504,-0.172742,0.245275,-0.160499,0.253456,-0.147869,0.261026,-0.134883,0.267967,-0.121572,0.274263,-0.107969,0.279898,
-0.094105,0.284858,-0.080014,0.289133,-0.065730,0.292711,-0.051289,0.295583,-0.036723,0.297744,-0.022069,0.299187,-0.007362,0.299910,0.007362,0.299910,0.022069,0.299187,0.022069,0.299187,$1*%
%AMFreePoly3*
4,1,65,0.366826,2.472941,0.607450,2.425078,0.842225,2.353860,1.068888,2.259973,1.285257,2.144322,1.489248,2.008019,1.678897,1.852378,1.852378,1.678897,2.008019,1.489248,2.144322,1.285257,2.259973,1.068888,2.353860,0.842225,2.425078,0.607450,2.472941,0.366826,2.496989,0.122669,2.496989,-0.122669,2.472941,-0.366826,2.425078,-0.607450,2.353860,-0.842225,2.259973,-1.068888,
2.144322,-1.285257,2.008019,-1.489248,1.852378,-1.678897,1.678897,-1.852378,1.489248,-2.008019,1.285257,-2.144322,1.068888,-2.259973,0.842225,-2.353860,0.607450,-2.425078,0.366826,-2.472941,0.122669,-2.496989,-0.122669,-2.496989,-0.366826,-2.472941,-0.607450,-2.425078,-0.842225,-2.353860,-1.068888,-2.259973,-1.285257,-2.144322,-1.489248,-2.008019,-1.678897,-1.852378,-1.852378,-1.678897,
-2.008019,-1.489248,-2.144322,-1.285257,-2.259973,-1.068888,-2.353860,-0.842225,-2.425078,-0.607450,-2.472941,-0.366826,-2.496989,-0.122669,-2.496989,0.122669,-2.472941,0.366826,-2.425078,0.607450,-2.353860,0.842225,-2.259973,1.068888,-2.144322,1.285257,-2.008019,1.489248,-1.852378,1.678897,-1.678897,1.852378,-1.489248,2.008019,-1.285257,2.144322,-1.068888,2.259973,-0.842225,2.353860,
-0.607450,2.425078,-0.366826,2.472941,-0.122669,2.496989,0.122669,2.496989,0.366826,2.472941,0.366826,2.472941,$1*%
%AMFreePoly4*
4,1,5,0.900000,-0.900000,-0.900000,-0.900000,-0.900000,0.900000,0.900000,0.900000,0.900000,-0.900000,0.900000,-0.900000,$1*%
%AMFreePoly5*
4,1,65,0.132057,0.890259,0.218682,0.873028,0.303201,0.847390,0.384800,0.813590,0.462692,0.771956,0.536129,0.722887,0.604403,0.666856,0.666856,0.604403,0.722887,0.536129,0.771956,0.462692,0.813590,0.384800,0.847390,0.303201,0.873028,0.218682,0.890259,0.132057,0.898916,0.044161,0.898916,-0.044161,0.890259,-0.132057,0.873028,-0.218682,0.847390,-0.303201,0.813590,-0.384800,
0.771956,-0.462692,0.722887,-0.536129,0.666856,-0.604403,0.604403,-0.666856,0.536129,-0.722887,0.462692,-0.771956,0.384800,-0.813590,0.303201,-0.847390,0.218682,-0.873028,0.132057,-0.890259,0.044161,-0.898916,-0.044161,-0.898916,-0.132057,-0.890259,-0.218682,-0.873028,-0.303201,-0.847390,-0.384800,-0.813590,-0.462692,-0.771956,-0.536129,-0.722887,-0.604403,-0.666856,-0.666856,-0.604403,
-0.722887,-0.536129,-0.771956,-0.462692,-0.813590,-0.384800,-0.847390,-0.303201,-0.873028,-0.218682,-0.890259,-0.132057,-0.898916,-0.044161,-0.898916,0.044161,-0.890259,0.132057,-0.873028,0.218682,-0.847390,0.303201,-0.813590,0.384800,-0.771956,0.462692,-0.722887,0.536129,-0.666856,0.604403,-0.604403,0.666856,-0.536129,0.722887,-0.462692,0.771956,-0.384800,0.813590,-0.303201,0.847390,
-0.218682,0.873028,-0.132057,0.890259,-0.044161,0.898916,0.044161,0.898916,0.132057,0.890259,0.132057,0.890259,$1*%
G04 Aperture macros list end*
%TA.AperFunction,ComponentPad*%
%ADD10FreePoly0,270.000000*%
%TD*%
%TA.AperFunction,ComponentPad*%
%ADD11FreePoly1,270.000000*%
%TD*%
%TA.AperFunction,ComponentPad*%
%ADD12FreePoly2,0.000000*%
%TD*%
%TA.AperFunction,ComponentPad*%
%ADD13FreePoly3,0.000000*%
%TD*%
%TA.AperFunction,ComponentPad*%
%ADD14FreePoly0,180.000000*%
%TD*%
%TA.AperFunction,ComponentPad*%
%ADD15FreePoly1,180.000000*%
%TD*%
%TA.AperFunction,ComponentPad*%
%ADD16FreePoly4,270.000000*%
%TD*%
%TA.AperFunction,ComponentPad*%
%ADD17FreePoly5,270.000000*%
%TD*%
G04 APERTURE END LIST*
D10*
%TO.N,N/C*%
%TO.C,*%
X6975400Y19045200D03*
D11*
X1895400Y19045195D03*
X-5724600Y19045187D03*
X-644600Y19045192D03*
X4435400Y19045197D03*
X-3184600Y19045190D03*
D12*
X-10167500Y-17791400D03*
X-13237500Y-16521400D03*
X-11437500Y-14721400D03*
X-10167500Y-15251400D03*
D13*
X-11437500Y-16521400D03*
D12*
X-9637500Y-16521400D03*
X-12707500Y-15251400D03*
X-12707500Y-17791400D03*
X-11437500Y-18321400D03*
D13*
X-11437500Y-16521400D03*
D10*
X572900Y-13981400D03*
D11*
X572903Y-16521400D03*
D14*
X14072200Y-1363100D03*
D15*
X14072213Y3716900D03*
X14072234Y11336900D03*
X14072220Y6256900D03*
X14072207Y1176900D03*
X14072227Y8796900D03*
D12*
X14841700Y-17791400D03*
X11771700Y-16521400D03*
X13571700Y-14721400D03*
X14841700Y-15251400D03*
D13*
X13571700Y-16521400D03*
D12*
X15371700Y-16521400D03*
X12301700Y-15251400D03*
X12301700Y-17791400D03*
X13571700Y-18321400D03*
D13*
X13571700Y-16521400D03*
D12*
X14841700Y17288900D03*
X11771700Y18558900D03*
X13571700Y20358900D03*
X14841700Y19828900D03*
D13*
X13571700Y18558900D03*
D12*
X15371700Y18558900D03*
X12301700Y19828900D03*
X12301700Y17288900D03*
X13571700Y16758900D03*
D13*
X13571700Y18558900D03*
D10*
X3112900Y-13981400D03*
D11*
X3112903Y-16521400D03*
D12*
X-10167500Y17288900D03*
X-13237500Y18558900D03*
X-11437500Y20358900D03*
X-10167500Y19828900D03*
D13*
X-11437500Y18558900D03*
D12*
X-9637500Y18558900D03*
X-12707500Y19828900D03*
X-12707500Y17288900D03*
X-11437500Y16758900D03*
D16*
X-10167500Y-5840200D03*
D17*
X-10167496Y-9340200D03*
D10*
X-1967100Y-13981400D03*
D11*
X-1967097Y-16521400D03*
D12*
%TO.N,Net 10*%
X1895400Y1067100D03*
X-7389200Y5459100D03*
X3974800Y16758900D03*
X-5414300Y-882900D03*
X-3787300Y1337100D03*
%TO.N,Net 9*%
X-6169700Y7249000D03*
X-6934600Y9390900D03*
X-3339400Y-5334100D03*
X-169700Y10405200D03*
X-4531100Y2247900D03*
%TO.N,Net 29*%
X1717400Y-6572000D03*
X-2884600Y-7803300D03*
%TO.N,Net 7*%
X-1884600Y2247800D03*
%TO.N,Net 15*%
X-884600Y2247900D03*
%TO.N,Net 2*%
X695400Y5174700D03*
X8175000Y328700D03*
%TO.N,Net 24*%
X9004200Y6303700D03*
X8447800Y-2302100D03*
%TO.N,Net 19*%
X7455400Y-5840200D03*
%TO.N,Net 8*%
X-10462000Y2247800D03*
X-7757700Y7090900D03*
X-1641100Y15667900D03*
%TO.N,Net 25*%
X10118600Y4686100D03*
X10125400Y-1092400D03*
%TO.N,Net 18*%
X4915400Y-5334100D03*
%TO.N,Net 16*%
X-4567700Y-1832900D03*
%TO.N,Net 1*%
X7654900Y3970300D03*
X695400Y6152800D03*
%TO.N,Net 28*%
X-2767000Y8796900D03*
X-4446300Y3495400D03*
%TO.N,GND*%
X-11317900Y2747800D03*
X-6934400Y1924700D03*
X4429100Y6845800D03*
X4190000Y10507100D03*
X-6110300Y12104100D03*
X-7546800Y12341700D03*
X-5992400Y-14998600D03*
X-1922600Y-10298300D03*
X169100Y-3599900D03*
X7600100Y15407100D03*
X1843100Y-10968900D03*
X-3217300Y-6591300D03*
%TD*%
%TA.AperFunction,Conductor*%
%TO.N,GND*%
G36*
X11187100Y-18348900D02*
G01*
X11336100Y-18497900D01*
X11259100Y-18682900D01*
X-9124900Y-18682900D01*
X-9201900Y-18497900D01*
X-9052900Y-18348900D01*
X-8662900Y-17671900D01*
X-8458900Y-16910900D01*
X-8458900Y-16131900D01*
X-8662900Y-15370900D01*
X-9052900Y-14693900D01*
X-9609900Y-14136900D01*
X-10286900Y-13746900D01*
X-10285900Y-13746900D01*
X-11047900Y-13542900D01*
X-11826900Y-13542900D01*
X-12587900Y-13746900D01*
X-13267900Y-14138900D01*
X-13497900Y-14368900D01*
X-13682900Y-14291900D01*
X-13682900Y-12631900D01*
X-3316900Y-12631900D01*
X-3316900Y-15331900D01*
X-2938900Y-15331900D01*
X-2861900Y-15516900D01*
X-3041900Y-15696900D01*
X-3216900Y-16001900D01*
X-3309900Y-16347900D01*
X-3309900Y-16694900D01*
X-3216900Y-17040900D01*
X-3041900Y-17345900D01*
X-2792900Y-17594900D01*
X-2484900Y-17771900D01*
X-2139900Y-17863900D01*
X-1792900Y-17863900D01*
X-1447900Y-17771900D01*
X-1444900Y-17770900D01*
X-1143900Y-17596900D01*
X-891900Y-17344900D01*
X-782900Y-17157900D01*
X-609900Y-17157900D01*
X-501900Y-17345900D01*
X-252900Y-17594900D01*
X55100Y-17771900D01*
X400100Y-17863900D01*
X747100Y-17863900D01*
X1092100Y-17771900D01*
X1095100Y-17770900D01*
X1396100Y-17596900D01*
X1648100Y-17344900D01*
X1757100Y-17157900D01*
X1930100Y-17157900D01*
X2038100Y-17345900D01*
X2287100Y-17594900D01*
X2595100Y-17771900D01*
X2940100Y-17863900D01*
X3287100Y-17863900D01*
X3632100Y-17771900D01*
X3635100Y-17770900D01*
X3936100Y-17596900D01*
X4188100Y-17344900D01*
X4363100Y-17043900D01*
X4456100Y-16694900D01*
X4456100Y-16347900D01*
X4363100Y-16000900D01*
X4362100Y-15997900D01*
X4188100Y-15697900D01*
X4006100Y-15515900D01*
X4083100Y-15330900D01*
X4463100Y-15330900D01*
X4463100Y-12630900D01*
X1956100Y-12631900D01*
X1954100Y-12630900D01*
X-583900Y-12631900D01*
X-585900Y-12630900D01*
X-3316900Y-12631900D01*
X-13682900Y-12631900D01*
X-13682900Y-9159900D01*
X-11559900Y-9159900D01*
X-11559900Y-9520900D01*
X-11463900Y-9878900D01*
X-11282900Y-10194900D01*
X-11281900Y-10195900D01*
X-11022900Y-10452900D01*
X-10706900Y-10636900D01*
X-10347900Y-10732900D01*
X-9986900Y-10732900D01*
X-9627900Y-10636900D01*
X-9624900Y-10635900D01*
X-9312900Y-10454900D01*
X-9052900Y-10194900D01*
X-8870900Y-9881900D01*
X-8774900Y-9520900D01*
X-8774900Y-9159900D01*
X-8870900Y-8801900D01*
X-8871900Y-8798900D01*
X-9052900Y-8485900D01*
X-9313900Y-8224900D01*
X-9628900Y-8043900D01*
X-9627900Y-8043900D01*
X-9986900Y-7947900D01*
X-10347900Y-7947900D01*
X-10705900Y-8043900D01*
X-11021900Y-8225900D01*
X-11280900Y-8483900D01*
X-11463900Y-8802900D01*
X-11559900Y-9159900D01*
X-13682900Y-9159900D01*
X-13682900Y-7700900D01*
X-3681900Y-7700900D01*
X-3681900Y-7907900D01*
X-3626900Y-8111900D01*
X-3625900Y-8112900D01*
X-3522900Y-8292900D01*
X-3521900Y-8293900D01*
X-3376900Y-8437900D01*
X-3374900Y-8439900D01*
X-3195900Y-8546900D01*
X-2990900Y-8600900D01*
X-2779900Y-8600900D01*
X-2574900Y-8545900D01*
X-2573900Y-8545900D01*
X-2392900Y-8437900D01*
X-2391900Y-8437900D01*
X-2246900Y-8292900D01*
X-2143900Y-8115900D01*
X-2086900Y-7908900D01*
X-2086900Y-7697900D01*
X-2143900Y-7492900D01*
X-2244900Y-7315900D01*
X-2393900Y-7165900D01*
X-2394900Y-7164900D01*
X-2581900Y-7057900D01*
X-2778900Y-7005900D01*
X-2987900Y-7005900D01*
X-3191900Y-7059900D01*
X-3193900Y-7060900D01*
X-3375900Y-7166900D01*
X-3522900Y-7313900D01*
X-3626900Y-7495900D01*
X-3681900Y-7700900D01*
X-13682900Y-7700900D01*
X-13682900Y-6465900D01*
X920100Y-6465900D01*
X920100Y-6677900D01*
X972100Y-6874900D01*
X1080100Y-7062900D01*
X1229100Y-7210900D01*
X1230100Y-7211900D01*
X1403100Y-7312900D01*
X1613100Y-7369900D01*
X1821100Y-7369900D01*
X2028100Y-7312900D01*
X2027100Y-7312900D01*
X2207100Y-7209900D01*
X2354100Y-7062900D01*
X2458100Y-6882900D01*
X2515100Y-6675900D01*
X2515100Y-6467900D01*
X2458100Y-6261900D01*
X2357100Y-6084900D01*
X2355100Y-6081900D01*
X2207100Y-5933900D01*
X2021100Y-5826900D01*
X1823100Y-5774900D01*
X1614100Y-5774900D01*
X1409100Y-5828900D01*
X1228100Y-5933900D01*
X1080100Y-6081900D01*
X971100Y-6268900D01*
X971100Y-6270900D01*
X920100Y-6465900D01*
X-13682900Y-6465900D01*
X-13682900Y-5762900D01*
X-10761900Y-5762900D01*
X-10761900Y-5918900D01*
X-10760900Y-5921900D01*
X-10720900Y-6071900D01*
X-10719900Y-6073900D01*
X-10642900Y-6206900D01*
X-10532900Y-6315900D01*
X-10531900Y-6316900D01*
X-10400900Y-6392900D01*
X-10395900Y-6394900D01*
X-10244900Y-6434900D01*
X-10089900Y-6434900D01*
X-9938900Y-6394900D01*
X-9933900Y-6392900D01*
X-9802900Y-6316900D01*
X-9690900Y-6204900D01*
X-9614900Y-6073900D01*
X-9611900Y-6065900D01*
X-9573900Y-5921900D01*
X-9572900Y-5918900D01*
X-9572900Y-5762900D01*
X-9611900Y-5614900D01*
X-9614900Y-5606900D01*
X-9690900Y-5475900D01*
X-9691900Y-5474900D01*
X-9800900Y-5364900D01*
X-9936900Y-5286900D01*
X-9937900Y-5285900D01*
X-10090900Y-5244900D01*
X-10243900Y-5244900D01*
X-10396900Y-5285900D01*
X-10397900Y-5286900D01*
X-10533900Y-5364900D01*
X-10642900Y-5473900D01*
X-10720900Y-5609900D01*
X-10722900Y-5614900D01*
X-10761900Y-5762900D01*
X-13682900Y-5762900D01*
X-13682900Y-5230900D01*
X-4136900Y-5230900D01*
X-4136900Y-5439900D01*
X-4084900Y-5636900D01*
X-3977900Y-5823900D01*
X-3974900Y-5826900D01*
X-3827900Y-5972900D01*
X-3649900Y-6074900D01*
X-3444900Y-6131900D01*
X-3233900Y-6131900D01*
X-3027900Y-6074900D01*
X-3028900Y-6074900D01*
X-2850900Y-5972900D01*
X-2703900Y-5826900D01*
X-2700900Y-5823900D01*
X-2593900Y-5636900D01*
X-2541900Y-5439900D01*
X-2541900Y-5230900D01*
X4118100Y-5230900D01*
X4118100Y-5439900D01*
X4170100Y-5636900D01*
X4277100Y-5823900D01*
X4280100Y-5826900D01*
X4427100Y-5972900D01*
X4428100Y-5973900D01*
X4601100Y-6074900D01*
X4811100Y-6131900D01*
X5019100Y-6131900D01*
X5226100Y-6074900D01*
X5225100Y-6074900D01*
X5405100Y-5971900D01*
X5553100Y-5823900D01*
X5603161Y-5736900D01*
X6658100Y-5736900D01*
X6658100Y-5947900D01*
X6710100Y-6142900D01*
X6817100Y-6329900D01*
X6818100Y-6330900D01*
X6967100Y-6478900D01*
X6968100Y-6479900D01*
X7141100Y-6580900D01*
X7351100Y-6637900D01*
X7559100Y-6637900D01*
X7766100Y-6580900D01*
X7765100Y-6580900D01*
X7945100Y-6477900D01*
X8093100Y-6329900D01*
X8196100Y-6150900D01*
X8253100Y-5943900D01*
X8253100Y-5735900D01*
X8196100Y-5525900D01*
X8095100Y-5352900D01*
X8094100Y-5351900D01*
X7946100Y-5202900D01*
X7945100Y-5201900D01*
X7759100Y-5094900D01*
X7561100Y-5042900D01*
X7352100Y-5042900D01*
X7148100Y-5096900D01*
X7146100Y-5097900D01*
X6964100Y-5203900D01*
X6819100Y-5348900D01*
X6713100Y-5530900D01*
X6711100Y-5535900D01*
X6658100Y-5736900D01*
X5603161Y-5736900D01*
X5656100Y-5644900D01*
X5713100Y-5437900D01*
X5713100Y-5229900D01*
X5656100Y-5019900D01*
X5555100Y-4846900D01*
X5554100Y-4845900D01*
X5406100Y-4696900D01*
X5405100Y-4695900D01*
X5219100Y-4588900D01*
X5021100Y-4536900D01*
X4812100Y-4536900D01*
X4608100Y-4590900D01*
X4606100Y-4591900D01*
X4424100Y-4697900D01*
X4279100Y-4842900D01*
X4173100Y-5024900D01*
X4171100Y-5029900D01*
X4118100Y-5230900D01*
X-2541900Y-5230900D01*
X-2594900Y-5029900D01*
X-2596900Y-5024900D01*
X-2702900Y-4842900D01*
X-2849900Y-4695900D01*
X-3031900Y-4591900D01*
X-3236900Y-4536900D01*
X-3441900Y-4536900D01*
X-3646900Y-4591900D01*
X-3828900Y-4695900D01*
X-3975900Y-4842900D01*
X-4081900Y-5024900D01*
X-4083900Y-5029900D01*
X-4136900Y-5230900D01*
X-13682900Y-5230900D01*
X-13682900Y-777900D01*
X-6211900Y-777900D01*
X-6211900Y-987900D01*
X-6156900Y-1192900D01*
X-6156900Y-1193900D01*
X-6048900Y-1374900D01*
X-6047900Y-1376900D01*
X-5903900Y-1520900D01*
X-5721900Y-1624900D01*
X-5516900Y-1679900D01*
X-5452900Y-1679900D01*
X-5364900Y-1767900D01*
X-5364900Y-1938900D01*
X-5312900Y-2135900D01*
X-5205900Y-2322900D01*
X-5204900Y-2323900D01*
X-5056900Y-2470900D01*
X-4876900Y-2574900D01*
X-4875900Y-2575900D01*
X-4670900Y-2629900D01*
X-4461900Y-2629900D01*
X-4264900Y-2577900D01*
X-4077900Y-2470900D01*
X-3929900Y-2322900D01*
X-3857973Y-2197900D01*
X7650100Y-2197900D01*
X7650100Y-2407900D01*
X7707100Y-2612900D01*
X7810100Y-2791900D01*
X7958100Y-2939900D01*
X8138100Y-3042900D01*
X8344100Y-3099900D01*
X8552100Y-3099900D01*
X8762100Y-3042900D01*
X8935100Y-2941900D01*
X8936100Y-2940900D01*
X9085100Y-2792900D01*
X9086100Y-2791900D01*
X9193100Y-2604900D01*
X9245100Y-2407900D01*
X9245100Y-2198900D01*
X9192100Y-1997900D01*
X9190100Y-1992900D01*
X9084100Y-1810900D01*
X8939100Y-1665900D01*
X8757100Y-1559900D01*
X8755100Y-1558900D01*
X8551100Y-1504900D01*
X8342100Y-1504900D01*
X8145100Y-1556900D01*
X7958100Y-1663900D01*
X7957100Y-1664900D01*
X7809100Y-1813900D01*
X7808100Y-1814900D01*
X7707100Y-1987900D01*
X7650100Y-2197900D01*
X-3857973Y-2197900D01*
X-3826900Y-2143900D01*
X-3769900Y-1936900D01*
X-3769900Y-1729900D01*
X-3826900Y-1522900D01*
X-3929900Y-1342900D01*
X-4077900Y-1194900D01*
X-4264900Y-1087900D01*
X-4461900Y-1035900D01*
X-4528900Y-1035900D01*
X-4574900Y-989900D01*
X9328100Y-989900D01*
X9328100Y-1194900D01*
X9383100Y-1399900D01*
X9487100Y-1581900D01*
X9634100Y-1728900D01*
X9816100Y-1834900D01*
X9818100Y-1835900D01*
X10022100Y-1889900D01*
X10231100Y-1889900D01*
X10428100Y-1837900D01*
X10615100Y-1730900D01*
X10616100Y-1729900D01*
X10764100Y-1580900D01*
X10866100Y-1402900D01*
X10923100Y-1198900D01*
X10923100Y-986900D01*
X10866100Y-781900D01*
X10764100Y-603900D01*
X10616100Y-454900D01*
X10615100Y-453900D01*
X10428100Y-346900D01*
X10231100Y-294900D01*
X10022100Y-294900D01*
X9818100Y-348900D01*
X9816100Y-349900D01*
X9634100Y-455900D01*
X9487100Y-602900D01*
X9383100Y-784900D01*
X9382100Y-787900D01*
X9328100Y-989900D01*
X-4574900Y-989900D01*
X-4616900Y-947900D01*
X-4616900Y-776900D01*
X-4668900Y-579900D01*
X-4775900Y-392900D01*
X-4776900Y-391900D01*
X-4925900Y-243900D01*
X-4926900Y-242900D01*
X-5103900Y-141900D01*
X-5105900Y-140900D01*
X-5311900Y-85900D01*
X-5516900Y-85900D01*
X-5721900Y-140900D01*
X-5903900Y-244900D01*
X-6047900Y-388900D01*
X-6048900Y-390900D01*
X-6156900Y-571900D01*
X-6156900Y-572900D01*
X-6211900Y-777900D01*
X-13682900Y-777900D01*
X-13682900Y2352100D01*
X-11259900Y2352100D01*
X-11259900Y2144100D01*
X-11202900Y1937100D01*
X-11099900Y1758100D01*
X-10951900Y1610100D01*
X-10771900Y1507100D01*
X-10565900Y1450100D01*
X-10357900Y1450100D01*
X-10150900Y1507100D01*
X-10151900Y1507100D01*
X-9971900Y1610100D01*
X-9823900Y1758100D01*
X-9716900Y1945100D01*
X-9664900Y2142100D01*
X-9664900Y2351100D01*
X-9665164Y2352100D01*
X-5328900Y2352100D01*
X-5328900Y2144100D01*
X-5271900Y1937100D01*
X-5168900Y1758100D01*
X-5020900Y1610100D01*
X-4840900Y1507100D01*
X-4833900Y1504100D01*
X-4645900Y1452100D01*
X-4584900Y1371100D01*
X-4584900Y1232100D01*
X-4529900Y1026100D01*
X-4421900Y844100D01*
X-4276900Y699100D01*
X-4094900Y595100D01*
X-3889900Y540100D01*
X-3684900Y540100D01*
X-3478900Y595100D01*
X-3476900Y596100D01*
X-3302900Y695100D01*
X-3298900Y698100D01*
X-3149900Y846100D01*
X-3148900Y847100D01*
X-3041900Y1034100D01*
X-3005210Y1173100D01*
X1098100Y1173100D01*
X1098100Y961100D01*
X1150100Y764100D01*
X1258100Y577100D01*
X1406100Y429100D01*
X1409100Y427100D01*
X1586100Y325100D01*
X1587100Y324100D01*
X1792100Y270100D01*
X2001100Y270100D01*
X2198100Y322100D01*
X2382100Y427100D01*
X2385100Y429100D01*
X2389100Y433100D01*
X7377100Y433100D01*
X7377100Y223100D01*
X7434100Y16100D01*
X7537100Y-160900D01*
X7682100Y-305900D01*
X7685100Y-307900D01*
X7864100Y-413900D01*
X8070100Y-468900D01*
X8280100Y-468900D01*
X8485100Y-413900D01*
X8486100Y-413900D01*
X8665100Y-307900D01*
X8669100Y-304900D01*
X8813100Y-160900D01*
X8897671Y-12900D01*
X12722100Y-12900D01*
X12722100Y-2712900D01*
X15422100Y-2712900D01*
X15422100Y-12900D01*
X15044100Y-12900D01*
X14967100Y172100D01*
X15147100Y354100D01*
X15322100Y658100D01*
X15323100Y659100D01*
X15415100Y1001100D01*
X15415100Y1353100D01*
X15323100Y1696100D01*
X15145100Y2001100D01*
X14897100Y2251100D01*
X14896100Y2252100D01*
X14592100Y2427100D01*
X14593100Y2427100D01*
X14248100Y2520100D01*
X13896100Y2520100D01*
X13551100Y2427100D01*
X13249100Y2252100D01*
X12997100Y2000100D01*
X12822100Y1698100D01*
X12729100Y1353100D01*
X12729100Y1001100D01*
X12822100Y657100D01*
X12999100Y351100D01*
X13178100Y172100D01*
X13101100Y-12900D01*
X12722100Y-12900D01*
X8897671Y-12900D01*
X8917100Y21100D01*
X8972100Y226100D01*
X8972100Y431100D01*
X8917100Y637100D01*
X8916100Y639100D01*
X8816100Y814100D01*
X8814100Y817100D01*
X8667100Y965100D01*
X8665100Y967100D01*
X8478100Y1074100D01*
X8281100Y1126100D01*
X8069100Y1126100D01*
X7872100Y1074100D01*
X7685100Y967100D01*
X7683100Y965100D01*
X7536100Y817100D01*
X7434100Y639100D01*
X7377100Y433100D01*
X2389100Y433100D01*
X2533100Y577100D01*
X2636100Y756100D01*
X2693100Y961100D01*
X2693100Y1171100D01*
X2636100Y1377100D01*
X2533100Y1557100D01*
X2385100Y1705100D01*
X2199100Y1812100D01*
X2001100Y1864100D01*
X1792100Y1864100D01*
X1587100Y1810100D01*
X1406100Y1705100D01*
X1258100Y1558100D01*
X1257100Y1557100D01*
X1149100Y1370100D01*
X1149100Y1368100D01*
X1098100Y1173100D01*
X-3005210Y1173100D01*
X-2989900Y1231100D01*
X-2989900Y1442100D01*
X-3040900Y1639100D01*
X-3148900Y1827100D01*
X-3149900Y1828100D01*
X-3298900Y1976100D01*
X-3301900Y1978100D01*
X-3476900Y2078100D01*
X-3480900Y2080100D01*
X-3671900Y2130100D01*
X-3733900Y2211100D01*
X-3733900Y2351100D01*
X-2681900Y2351100D01*
X-2681900Y2142100D01*
X-2629900Y1945100D01*
X-2522900Y1758100D01*
X-2521900Y1757100D01*
X-2372900Y1609100D01*
X-2371900Y1608100D01*
X-2198900Y1507100D01*
X-1988900Y1450100D01*
X-1780900Y1450100D01*
X-1573900Y1507100D01*
X-1570900Y1508100D01*
X-1423900Y1592100D01*
X-1343900Y1592100D01*
X-1198900Y1507100D01*
X-988900Y1450100D01*
X-780900Y1450100D01*
X-573900Y1507100D01*
X-574900Y1507100D01*
X-394900Y1610100D01*
X-246900Y1758100D01*
X-143900Y1937100D01*
X-86900Y2144100D01*
X-86900Y2352100D01*
X-143900Y2562100D01*
X-244900Y2735100D01*
X-245900Y2736100D01*
X-393900Y2885100D01*
X-394900Y2886100D01*
X-581900Y2993100D01*
X-778900Y3045100D01*
X-987900Y3045100D01*
X-1191900Y2991100D01*
X-1193900Y2990100D01*
X-1343900Y2903100D01*
X-1424900Y2903100D01*
X-1581900Y2993100D01*
X-1778900Y3045100D01*
X-1987900Y3045100D01*
X-2191900Y2991100D01*
X-2193900Y2990100D01*
X-2375900Y2884100D01*
X-2520900Y2739100D01*
X-2626900Y2557100D01*
X-2628900Y2552100D01*
X-2681900Y2351100D01*
X-3733900Y2351100D01*
X-3786900Y2552100D01*
X-3788900Y2557100D01*
X-3894900Y2740100D01*
X-3925900Y2777100D01*
X-3920900Y2893100D01*
X-3809900Y3004100D01*
X-3703900Y3186100D01*
X-3701900Y3191100D01*
X-3648900Y3392100D01*
X-3648900Y3601100D01*
X-3700900Y3798100D01*
X-3807900Y3985100D01*
X-3808900Y3986100D01*
X-3897495Y4074100D01*
X6857100Y4074100D01*
X6857100Y3866100D01*
X6914100Y3656100D01*
X7015100Y3483100D01*
X7016100Y3482100D01*
X7164100Y3333100D01*
X7165100Y3332100D01*
X7352100Y3225100D01*
X7549100Y3173100D01*
X7758100Y3173100D01*
X7962100Y3227100D01*
X7964100Y3228100D01*
X8146100Y3334100D01*
X8291100Y3479100D01*
X8397100Y3661100D01*
X8398100Y3662100D01*
X8399100Y3665100D01*
X8399100Y3666100D01*
X8429160Y3780100D01*
X13576100Y3780100D01*
X13576100Y3655100D01*
X13611100Y3524100D01*
X13676100Y3410100D01*
X13767100Y3321100D01*
X13880100Y3256100D01*
X14009100Y3221100D01*
X14135100Y3221100D01*
X14265100Y3256100D01*
X14264100Y3256100D01*
X14377100Y3321100D01*
X14378100Y3321100D01*
X14468100Y3410100D01*
X14533100Y3524100D01*
X14568100Y3655100D01*
X14568100Y3780100D01*
X14533100Y3909100D01*
X14468100Y4023100D01*
X14377100Y4113100D01*
X14373100Y4116100D01*
X14266100Y4178100D01*
X14135100Y4213100D01*
X14009100Y4213100D01*
X13878100Y4178100D01*
X13771100Y4116100D01*
X13767100Y4113100D01*
X13676100Y4023100D01*
X13611100Y3909100D01*
X13576100Y3780100D01*
X8429160Y3780100D01*
X8452100Y3867100D01*
X8452100Y4076100D01*
X8401100Y4271100D01*
X8401100Y4273100D01*
X8293100Y4460100D01*
X8292100Y4461100D01*
X8143100Y4609100D01*
X8142100Y4610100D01*
X7969100Y4711100D01*
X7759100Y4768100D01*
X7551100Y4768100D01*
X7345100Y4711100D01*
X7165100Y4608100D01*
X7017100Y4460100D01*
X6914100Y4280100D01*
X6857100Y4074100D01*
X-3897495Y4074100D01*
X-3957900Y4134100D01*
X-4135900Y4236100D01*
X-4134900Y4236100D01*
X-4340900Y4293100D01*
X-4551900Y4293100D01*
X-4758900Y4236100D01*
X-4935900Y4133100D01*
X-5080900Y3988100D01*
X-5080900Y3987100D01*
X-5188900Y3806100D01*
X-5188900Y3805100D01*
X-5243900Y3600100D01*
X-5243900Y3389100D01*
X-5189900Y3184100D01*
X-5082900Y3005100D01*
X-5049900Y2964100D01*
X-5055900Y2849100D01*
X-5169900Y2736100D01*
X-5170900Y2735100D01*
X-5271900Y2562100D01*
X-5328900Y2352100D01*
X-9665164Y2352100D01*
X-9717900Y2552100D01*
X-9719900Y2557100D01*
X-9823900Y2737100D01*
X-9970900Y2885100D01*
X-9971900Y2886100D01*
X-10158900Y2993100D01*
X-10355900Y3045100D01*
X-10567900Y3045100D01*
X-10764900Y2993100D01*
X-10951900Y2886100D01*
X-10952900Y2885100D01*
X-11100900Y2736100D01*
X-11101900Y2735100D01*
X-11202900Y2562100D01*
X-11259900Y2352100D01*
X-13682900Y2352100D01*
X-13682900Y7194100D01*
X-8554900Y7194100D01*
X-8554900Y6985100D01*
X-8502900Y6788100D01*
X-8395900Y6601100D01*
X-8245900Y6451100D01*
X-8070900Y6350100D01*
X-7886900Y6300100D01*
X-7842900Y6133100D01*
X-8026900Y5949100D01*
X-8129900Y5769100D01*
X-8186900Y5563100D01*
X-8186900Y5355100D01*
X-8129900Y5148100D01*
X-8026900Y4969100D01*
X-7878900Y4821100D01*
X-7691900Y4714100D01*
X-7494900Y4662100D01*
X-7285900Y4662100D01*
X-7080900Y4716100D01*
X-7079900Y4717100D01*
X-6899900Y4821100D01*
X-6751900Y4968100D01*
X-6750900Y4969100D01*
X-6643900Y5156100D01*
X-6591900Y5353100D01*
X-6591900Y5564100D01*
X-6642900Y5760100D01*
X-6642900Y5762100D01*
X-6750900Y5949100D01*
X-6899900Y6097100D01*
X-7079900Y6201100D01*
X-7078900Y6201100D01*
X-7259900Y6250100D01*
X-7261481Y6256100D01*
X-101900Y6256100D01*
X-101900Y6047100D01*
X-49900Y5850100D01*
X34100Y5705100D01*
X34100Y5624100D01*
X-46900Y5482100D01*
X-101900Y5276100D01*
X-101900Y5072100D01*
X-45900Y4864100D01*
X57100Y4685100D01*
X58100Y4684100D01*
X203100Y4540100D01*
X205100Y4538100D01*
X384100Y4431100D01*
X589100Y4377100D01*
X800100Y4377100D01*
X1005100Y4432100D01*
X1006100Y4432100D01*
X1187100Y4540100D01*
X1189100Y4541100D01*
X1333100Y4685100D01*
X1395366Y4792100D01*
X9321100Y4792100D01*
X9321100Y4580100D01*
X9373100Y4383100D01*
X9480100Y4196100D01*
X9481100Y4195100D01*
X9630100Y4047100D01*
X9633100Y4045100D01*
X9808100Y3945100D01*
X9810100Y3944100D01*
X10016100Y3889100D01*
X10221100Y3889100D01*
X10427100Y3944100D01*
X10429100Y3945100D01*
X10604100Y4045100D01*
X10607100Y4047100D01*
X10756100Y4195100D01*
X10757100Y4196100D01*
X10864100Y4383100D01*
X10916100Y4580100D01*
X10916100Y4792100D01*
X10864100Y4989100D01*
X10758100Y5174100D01*
X10757100Y5176100D01*
X10607100Y5325100D01*
X10606100Y5326100D01*
X10429100Y5427100D01*
X10427100Y5428100D01*
X10221100Y5483100D01*
X10016100Y5483100D01*
X9810100Y5428100D01*
X9808100Y5427100D01*
X9631100Y5326100D01*
X9630100Y5325100D01*
X9480100Y5176100D01*
X9479100Y5174100D01*
X9373100Y4989100D01*
X9321100Y4792100D01*
X1395366Y4792100D01*
X1436100Y4862100D01*
X1493100Y5068100D01*
X1493100Y5280100D01*
X1437100Y5483100D01*
X1435100Y5488100D01*
X1357100Y5624100D01*
X1357100Y5704100D01*
X1435100Y5840100D01*
X1436100Y5842100D01*
X1493100Y6047100D01*
X1493100Y6257100D01*
X1452657Y6406100D01*
X8207100Y6406100D01*
X8207100Y6199100D01*
X8262100Y5996100D01*
X8367100Y5813100D01*
X8510100Y5670100D01*
X8512100Y5669100D01*
X8693100Y5561100D01*
X8899100Y5506100D01*
X9109100Y5506100D01*
X9314100Y5561100D01*
X9315100Y5561100D01*
X9496100Y5669100D01*
X9498100Y5670100D01*
X9641100Y5813100D01*
X9745100Y5991100D01*
X9802100Y6197100D01*
X9802100Y6409100D01*
X9795427Y6433100D01*
X12729100Y6433100D01*
X12729100Y6081100D01*
X12822100Y5737100D01*
X12999100Y5431100D01*
X13248100Y5182100D01*
X13553100Y5007100D01*
X13896100Y4914100D01*
X14248100Y4914100D01*
X14591100Y5007100D01*
X14593100Y5008100D01*
X14895100Y5180100D01*
X14898100Y5182100D01*
X15145100Y5431100D01*
X15322100Y5738100D01*
X15323100Y5739100D01*
X15415100Y6081100D01*
X15415100Y6433100D01*
X15323100Y6775100D01*
X15145100Y7081100D01*
X14897100Y7331100D01*
X14896100Y7332100D01*
X14708100Y7441100D01*
X14708100Y7615100D01*
X14899100Y7723100D01*
X15144100Y7970100D01*
X15146100Y7972100D01*
X15322100Y8278100D01*
X15323100Y8279100D01*
X15415100Y8621100D01*
X15415100Y8973100D01*
X15323100Y9316100D01*
X15145100Y9621100D01*
X14897100Y9871100D01*
X14708100Y9981100D01*
X14708100Y10155100D01*
X14899100Y10263100D01*
X15146100Y10512100D01*
X15322100Y10818100D01*
X15323100Y10819100D01*
X15415100Y11160100D01*
X15415100Y11513100D01*
X15323100Y11856100D01*
X15145100Y12161100D01*
X14897100Y12411100D01*
X14896100Y12412100D01*
X14592100Y12587100D01*
X14593100Y12587100D01*
X14248100Y12680100D01*
X13896100Y12680100D01*
X13551100Y12587100D01*
X13249100Y12412100D01*
X12997100Y12160100D01*
X12822100Y11858100D01*
X12729100Y11513100D01*
X12729100Y11160100D01*
X12822100Y10817100D01*
X12999100Y10511100D01*
X13248100Y10262100D01*
X13436100Y10154100D01*
X13436100Y9981100D01*
X13248100Y9871100D01*
X12997100Y9620100D01*
X12822100Y9318100D01*
X12729100Y8973100D01*
X12729100Y8621100D01*
X12822100Y8277100D01*
X13000100Y7970100D01*
X13248100Y7722100D01*
X13436100Y7614100D01*
X13436100Y7441100D01*
X13249100Y7332100D01*
X12997100Y7080100D01*
X12822100Y6778100D01*
X12821100Y6775100D01*
X12729100Y6433100D01*
X9795427Y6433100D01*
X9745100Y6614100D01*
X9645100Y6789100D01*
X9643100Y6792100D01*
X9495100Y6941100D01*
X9494100Y6942100D01*
X9307100Y7049100D01*
X9110100Y7101100D01*
X8898100Y7101100D01*
X8701100Y7049100D01*
X8514100Y6942100D01*
X8513100Y6941100D01*
X8365100Y6792100D01*
X8363100Y6789100D01*
X8262100Y6613100D01*
X8207100Y6406100D01*
X1452657Y6406100D01*
X1436100Y6467100D01*
X1335100Y6640100D01*
X1334100Y6641100D01*
X1187100Y6789100D01*
X1185100Y6791100D01*
X998100Y6898100D01*
X801100Y6950100D01*
X592100Y6950100D01*
X388100Y6896100D01*
X386100Y6895100D01*
X204100Y6789100D01*
X59100Y6644100D01*
X-46900Y6462100D01*
X-48900Y6457100D01*
X-101900Y6256100D01*
X-7261481Y6256100D01*
X-7303900Y6417100D01*
X-7119900Y6601100D01*
X-7008900Y6794100D01*
X-6862900Y6814100D01*
X-6656900Y6609100D01*
X-6483900Y6508100D01*
X-6273900Y6451100D01*
X-6065900Y6451100D01*
X-5858900Y6508100D01*
X-5859900Y6508100D01*
X-5679900Y6611100D01*
X-5531900Y6759100D01*
X-5429900Y6936100D01*
X-5428900Y6938100D01*
X-5371900Y7145100D01*
X-5371900Y7353100D01*
X-5428900Y7559100D01*
X-5529900Y7736100D01*
X-5531900Y7739100D01*
X-5679900Y7887100D01*
X-5865900Y7994100D01*
X-6063900Y8046100D01*
X-6272900Y8046100D01*
X-6477900Y7992100D01*
X-6658900Y7887100D01*
X-6806900Y7740100D01*
X-6810900Y7735100D01*
X-6918900Y7545100D01*
X-7065900Y7526100D01*
X-7265900Y7727100D01*
X-7266900Y7728100D01*
X-7454900Y7836100D01*
X-7651900Y7888100D01*
X-7860900Y7888100D01*
X-8064900Y7834100D01*
X-8066900Y7833100D01*
X-8248900Y7727100D01*
X-8393900Y7582100D01*
X-8499900Y7400100D01*
X-8501900Y7395100D01*
X-8554900Y7194100D01*
X-13682900Y7194100D01*
X-13682900Y9494100D01*
X-7731900Y9494100D01*
X-7731900Y9285100D01*
X-7679900Y9088100D01*
X-7572900Y8901100D01*
X-7571900Y8900100D01*
X-7422900Y8752100D01*
X-7421900Y8751100D01*
X-7248900Y8650100D01*
X-7038900Y8593100D01*
X-6830900Y8593100D01*
X-6623900Y8650100D01*
X-6624900Y8650100D01*
X-6444900Y8753100D01*
X-6296900Y8901100D01*
X-3564900Y8901100D01*
X-3564900Y8693100D01*
X-3507900Y8486100D01*
X-3404900Y8307100D01*
X-3256900Y8159100D01*
X-3076900Y8056100D01*
X-2870900Y7999100D01*
X-2662900Y7999100D01*
X-2455900Y8056100D01*
X-2456900Y8056100D01*
X-2276900Y8159100D01*
X-2128900Y8307100D01*
X-2021900Y8494100D01*
X-1969900Y8691100D01*
X-1969900Y8900100D01*
X-2023900Y9103100D01*
X-2024900Y9106100D01*
X-2128900Y9286100D01*
X-2275900Y9434100D01*
X-2276900Y9435100D01*
X-2463900Y9542100D01*
X-2660900Y9594100D01*
X-2872900Y9594100D01*
X-3069900Y9542100D01*
X-3256900Y9435100D01*
X-3257900Y9434100D01*
X-3405900Y9285100D01*
X-3406900Y9284100D01*
X-3507900Y9111100D01*
X-3564900Y8901100D01*
X-6296900Y8901100D01*
X-6193900Y9080100D01*
X-6136900Y9287100D01*
X-6136900Y9495100D01*
X-6193900Y9704100D01*
X-6294900Y9878100D01*
X-6443900Y10028100D01*
X-6444900Y10029100D01*
X-6630900Y10136100D01*
X-6828900Y10188100D01*
X-7037900Y10188100D01*
X-7241900Y10134100D01*
X-7243900Y10133100D01*
X-7425900Y10027100D01*
X-7570900Y9882100D01*
X-7676900Y9700100D01*
X-7678900Y9695100D01*
X-7731900Y9494100D01*
X-13682900Y9494100D01*
X-13682900Y13200100D01*
X-6297900Y13200100D01*
X-6297900Y12943100D01*
X-6231900Y12693100D01*
X-6228900Y12685100D01*
X-6100900Y12464100D01*
X-5914900Y12278100D01*
X-5680900Y12142100D01*
X-5680900Y11969100D01*
X-5914900Y11834100D01*
X-6098900Y11648100D01*
X-6229900Y11423100D01*
X-6231900Y11418100D01*
X-6297900Y11168100D01*
X-6297900Y10911100D01*
X-6231900Y10661100D01*
X-6228900Y10653100D01*
X-6100900Y10432100D01*
X-5914900Y10246100D01*
X-5693900Y10118100D01*
X-5688900Y10116100D01*
X-5435900Y10049100D01*
X-5178900Y10049100D01*
X-4925900Y10116100D01*
X-4923900Y10117100D01*
X-4698900Y10248100D01*
X-4512900Y10432100D01*
X-4384900Y10653100D01*
X-4381900Y10661100D01*
X-4315900Y10911100D01*
X-4315900Y11168100D01*
X-4381900Y11418100D01*
X-4384900Y11426100D01*
X-4512900Y11647100D01*
X-4699900Y11834100D01*
X-4933900Y11970100D01*
X-4933900Y12142100D01*
X-4862378Y12184100D01*
X-1217900Y12184100D01*
X-1217900Y11926100D01*
X-1216900Y11923100D01*
X-1151900Y11677100D01*
X-1148900Y11669100D01*
X-1020900Y11448100D01*
X-834900Y11262100D01*
X-689900Y11177100D01*
X-670900Y11030100D01*
X-807900Y10895100D01*
X-915900Y10708100D01*
X-915900Y10706100D01*
X-966900Y10511100D01*
X-966900Y10299100D01*
X-914900Y10102100D01*
X-807900Y9915100D01*
X-806900Y9914100D01*
X-658900Y9767100D01*
X-478900Y9663100D01*
X-477900Y9662100D01*
X-272900Y9608100D01*
X-63900Y9608100D01*
X133100Y9660100D01*
X320100Y9767100D01*
X468100Y9915100D01*
X571100Y10094100D01*
X628100Y10301100D01*
X628100Y10509100D01*
X571100Y10715100D01*
X468100Y10895100D01*
X289100Y11074100D01*
X308100Y11220100D01*
X376100Y11260100D01*
X381100Y11264100D01*
X566100Y11446100D01*
X695100Y11669100D01*
X698100Y11677100D01*
X763100Y11923100D01*
X764100Y11926100D01*
X764100Y12184100D01*
X698100Y12434100D01*
X695100Y12442100D01*
X567100Y12663100D01*
X380100Y12850100D01*
X159100Y12978100D01*
X154100Y12980100D01*
X-98900Y13047100D01*
X-355900Y13047100D01*
X-608900Y12980100D01*
X-613900Y12978100D01*
X-834900Y12850100D01*
X-1018900Y12664100D01*
X-1149900Y12439100D01*
X-1151900Y12434100D01*
X-1217900Y12184100D01*
X-4862378Y12184100D01*
X-4698900Y12280100D01*
X-4512900Y12464100D01*
X-4384900Y12685100D01*
X-4381900Y12693100D01*
X-4315900Y12943100D01*
X-4315900Y13200100D01*
X-4381900Y13450100D01*
X-4384900Y13458100D01*
X-4512900Y13679100D01*
X-4699900Y13866100D01*
X-4920900Y13994100D01*
X-4925900Y13996100D01*
X-5178900Y14063100D01*
X-5435900Y14063100D01*
X-5688900Y13996100D01*
X-5693900Y13994100D01*
X-5914900Y13866100D01*
X-6098900Y13680100D01*
X-6229900Y13455100D01*
X-6231900Y13450100D01*
X-6297900Y13200100D01*
X-13682900Y13200100D01*
X-13682900Y16329100D01*
X-13497900Y16406100D01*
X-13267900Y16176100D01*
X-12587900Y15784100D01*
X-11826900Y15580100D01*
X-11047900Y15580100D01*
X-10330724Y15772100D01*
X-2438900Y15772100D01*
X-2438900Y15564100D01*
X-2381900Y15357100D01*
X-2278900Y15178100D01*
X-2130900Y15030100D01*
X-1950900Y14927100D01*
X-1744900Y14870100D01*
X-1536900Y14870100D01*
X-1326900Y14927100D01*
X-1153900Y15028100D01*
X-1152900Y15029100D01*
X-1003900Y15177100D01*
X-1002900Y15178100D01*
X-895900Y15365100D01*
X-843900Y15562100D01*
X-843900Y15771100D01*
X-896900Y15972100D01*
X-898900Y15977100D01*
X-1004900Y16159100D01*
X-1149900Y16304100D01*
X-1331900Y16410100D01*
X-1333900Y16411100D01*
X-1537900Y16465100D01*
X-1746900Y16465100D01*
X-1943900Y16413100D01*
X-2130900Y16306100D01*
X-2131900Y16305100D01*
X-2279900Y16156100D01*
X-2280900Y16155100D01*
X-2381900Y15982100D01*
X-2438900Y15772100D01*
X-10330724Y15772100D01*
X-10285900Y15784100D01*
X-10286900Y15784100D01*
X-9609900Y16174100D01*
X-9052900Y16731100D01*
X-8662900Y17408100D01*
X-8458900Y18169100D01*
X-8458900Y18948100D01*
X-8502806Y19112100D01*
X-6219900Y19112100D01*
X-6219900Y18978100D01*
X-6187900Y18854100D01*
X-6123900Y18744100D01*
X-6120900Y18740100D01*
X-6030900Y18649100D01*
X-5916900Y18584100D01*
X-5787900Y18549100D01*
X-5660900Y18549100D01*
X-5530900Y18584100D01*
X-5531900Y18584100D01*
X-5417900Y18649100D01*
X-5418900Y18649100D01*
X-5328900Y18739100D01*
X-5328900Y18740100D01*
X-5263900Y18853100D01*
X-5228900Y18980100D01*
X-5228900Y19108100D01*
X-5259016Y19219100D01*
X-4526900Y19219100D01*
X-4526900Y18871100D01*
X-4433900Y18523100D01*
X-4259900Y18222100D01*
X-4007900Y17970100D01*
X-3705900Y17795100D01*
X-3360900Y17702100D01*
X-3010900Y17702100D01*
X-2663900Y17795100D01*
X-2660900Y17796100D01*
X-2360900Y17970100D01*
X-2108900Y18222100D01*
X-2001900Y18409100D01*
X-1828900Y18409100D01*
X-1719900Y18222100D01*
X-1467900Y17970100D01*
X-1165900Y17795100D01*
X-820900Y17702100D01*
X-470900Y17702100D01*
X-123900Y17795100D01*
X-120900Y17796100D01*
X179100Y17970100D01*
X431100Y18222100D01*
X538100Y18409100D01*
X711100Y18409100D01*
X820100Y18222100D01*
X1072100Y17970100D01*
X1374100Y17795100D01*
X1719100Y17702100D01*
X2069100Y17702100D01*
X2416100Y17795100D01*
X2419100Y17796100D01*
X2719100Y17970100D01*
X2971100Y18222100D01*
X3080100Y18409100D01*
X3253100Y18409100D01*
X3360100Y18222100D01*
X3610100Y17972100D01*
X3955100Y17770100D01*
X3928100Y17571100D01*
X3671100Y17504100D01*
X3485100Y17397100D01*
X3484100Y17396100D01*
X3336100Y17247100D01*
X3335100Y17246100D01*
X3234100Y17073100D01*
X3177100Y16863100D01*
X3177100Y16655100D01*
X3234100Y16448100D01*
X3337100Y16269100D01*
X3485100Y16121100D01*
X3665100Y16018100D01*
X3871100Y15961100D01*
X4079100Y15961100D01*
X4289100Y16018100D01*
X4462100Y16119100D01*
X4463100Y16120100D01*
X4612100Y16268100D01*
X4613100Y16269100D01*
X4720100Y16456100D01*
X4772100Y16653100D01*
X4772100Y16862100D01*
X4719100Y17063100D01*
X4717100Y17068100D01*
X4611100Y17250100D01*
X4464100Y17397100D01*
X4321100Y17480100D01*
X4381100Y17702100D01*
X4609100Y17702100D01*
X4956100Y17795100D01*
X4959100Y17796100D01*
X5259100Y17970100D01*
X5440100Y18151100D01*
X5625100Y18074100D01*
X5625100Y17695100D01*
X8325100Y17695100D01*
X8325100Y20395100D01*
X5625100Y20395100D01*
X5625100Y20016100D01*
X5440100Y19939100D01*
X5258100Y20119100D01*
X4956100Y20295100D01*
X4609100Y20388100D01*
X4259100Y20388100D01*
X3916100Y20296100D01*
X3611100Y20118100D01*
X3362100Y19871100D01*
X3253100Y19681100D01*
X3080100Y19681100D01*
X2969100Y19870100D01*
X2969100Y19871100D01*
X2720100Y20118100D01*
X2416100Y20295100D01*
X2069100Y20388100D01*
X1719100Y20388100D01*
X1376100Y20296100D01*
X1071100Y20118100D01*
X822100Y19871100D01*
X822100Y19870100D01*
X711100Y19681100D01*
X538100Y19681100D01*
X429100Y19871100D01*
X180100Y20118100D01*
X-123900Y20295100D01*
X-470900Y20388100D01*
X-820900Y20388100D01*
X-1163900Y20296100D01*
X-1468900Y20118100D01*
X-1717900Y19871100D01*
X-1717900Y19870100D01*
X-1828900Y19681100D01*
X-2001900Y19681100D01*
X-2110900Y19871100D01*
X-2359900Y20118100D01*
X-2663900Y20295100D01*
X-3010900Y20388100D01*
X-3360900Y20388100D01*
X-3703900Y20296100D01*
X-4008900Y20118100D01*
X-4257900Y19871100D01*
X-4434900Y19563100D01*
X-4526900Y19219100D01*
X-5259016Y19219100D01*
X-5263900Y19237100D01*
X-5328900Y19350100D01*
X-5328900Y19351100D01*
X-5418900Y19441100D01*
X-5417900Y19441100D01*
X-5531900Y19506100D01*
X-5530900Y19506100D01*
X-5660900Y19541100D01*
X-5787900Y19541100D01*
X-5916900Y19506100D01*
X-6030900Y19441100D01*
X-6120900Y19350100D01*
X-6123900Y19346100D01*
X-6187900Y19236100D01*
X-6219900Y19112100D01*
X-8502806Y19112100D01*
X-8662900Y19710100D01*
X-9052900Y20387100D01*
X-9297900Y20632100D01*
X-9220900Y20817100D01*
X11355100Y20817100D01*
X11432100Y20632100D01*
X11187100Y20387100D01*
X10797100Y19710100D01*
X10593100Y18948100D01*
X10593100Y18169100D01*
X10797100Y17408100D01*
X11187100Y16731100D01*
X11744100Y16174100D01*
X12421100Y15784100D01*
X13182100Y15580100D01*
X13961100Y15580100D01*
X14723100Y15784100D01*
X14722100Y15784100D01*
X15402100Y16176100D01*
X15632100Y16406100D01*
X15817100Y16329100D01*
X15817100Y-14291900D01*
X15632100Y-14368900D01*
X15402100Y-14138900D01*
X14722100Y-13746900D01*
X14723100Y-13746900D01*
X13961100Y-13542900D01*
X13182100Y-13542900D01*
X12421100Y-13746900D01*
X11744100Y-14136900D01*
X11187100Y-14693900D01*
X10797100Y-15370900D01*
X10593100Y-16131900D01*
X10593100Y-16910900D01*
X10797100Y-17671900D01*
X11187100Y-18348900D01*
G37*
%TD.AperFunction*%
%TD*%
M02*
