%TF.GenerationSoftware,Flux,Pcbnew,7.0.11-7.0.11~ubuntu20.04.1*%
%TF.CreationDate,2025-02-06T22:25:38+00:00*%
%TF.ProjectId,input,696e7075-742e-46b6-9963-61645f706362,rev?*%
%TF.SameCoordinates,Original*%
%TF.FileFunction,Legend,Top*%
%TF.FilePolarity,Positive*%
%FSLAX46Y46*%
G04 Gerber Fmt 4.6, Leading zero omitted, Abs format (unit mm)*
G04 Filename: driverv4release*
G04 Build it with Flux! Visit our site at: https://www.flux.ai (PCBNEW 7.0.11-7.0.11~ubuntu20.04.1) date 2025-02-06 22:25:38*
%MOMM*%
%LPD*%
G01*
G04 APERTURE LIST*
%ADD10C,0.095000*%
%ADD11C,0.030448*%
%ADD12C,0.030429*%
%ADD13C,0.023750*%
%ADD14C,0.120650*%
%ADD15C,0.047500*%
%ADD16C,0.101600*%
%ADD17C,0.050800*%
%ADD18C,0.100000*%
%ADD19C,0.120000*%
%ADD20C,0.050000*%
%ADD21C,0.200000*%
%ADD22C,0.127000*%
G04 APERTURE END LIST*
D10*
X11661255Y-2188223D02*
X10861255Y-2188223D01*
X10861255Y-2188223D02*
X11432683Y-1921557D01*
X11432683Y-1921557D02*
X10861255Y-1654890D01*
X10861255Y-1654890D02*
X11661255Y-1654890D01*
X11661255Y-854890D02*
X11661255Y-1312033D01*
X11661255Y-1083461D02*
X10861255Y-1083461D01*
X10861255Y-1083461D02*
X10975540Y-1159652D01*
X10975540Y-1159652D02*
X11051731Y-1235842D01*
X11051731Y-1235842D02*
X11089826Y-1312033D01*
X11661255Y-283461D02*
X10861255Y-283461D01*
X10861255Y-283461D02*
X11432683Y-16795D01*
X11432683Y-16795D02*
X10861255Y249871D01*
X10861255Y249871D02*
X11661255Y249871D01*
X10937445Y592728D02*
X10899350Y630824D01*
X10899350Y630824D02*
X10861255Y707014D01*
X10861255Y707014D02*
X10861255Y897490D01*
X10861255Y897490D02*
X10899350Y973681D01*
X10899350Y973681D02*
X10937445Y1011776D01*
X10937445Y1011776D02*
X11013636Y1049871D01*
X11013636Y1049871D02*
X11089826Y1049871D01*
X11089826Y1049871D02*
X11204112Y1011776D01*
X11204112Y1011776D02*
X11661255Y554633D01*
X11661255Y554633D02*
X11661255Y1049871D01*
X10899350Y2040347D02*
X10861255Y1964157D01*
X10861255Y1964157D02*
X10861255Y1849871D01*
X10861255Y1849871D02*
X10899350Y1735585D01*
X10899350Y1735585D02*
X10975540Y1659395D01*
X10975540Y1659395D02*
X11051731Y1621300D01*
X11051731Y1621300D02*
X11204112Y1583204D01*
X11204112Y1583204D02*
X11318398Y1583204D01*
X11318398Y1583204D02*
X11470779Y1621300D01*
X11470779Y1621300D02*
X11546969Y1659395D01*
X11546969Y1659395D02*
X11623160Y1735585D01*
X11623160Y1735585D02*
X11661255Y1849871D01*
X11661255Y1849871D02*
X11661255Y1926062D01*
X11661255Y1926062D02*
X11623160Y2040347D01*
X11623160Y2040347D02*
X11585064Y2078443D01*
X11585064Y2078443D02*
X11318398Y2078443D01*
X11318398Y2078443D02*
X11318398Y1926062D01*
X11661255Y2421300D02*
X10861255Y2421300D01*
X10861255Y2421300D02*
X11661255Y2878443D01*
X11661255Y2878443D02*
X10861255Y2878443D01*
X11661255Y3259395D02*
X10861255Y3259395D01*
X10861255Y3259395D02*
X10861255Y3449871D01*
X10861255Y3449871D02*
X10899350Y3564157D01*
X10899350Y3564157D02*
X10975540Y3640347D01*
X10975540Y3640347D02*
X11051731Y3678442D01*
X11051731Y3678442D02*
X11204112Y3716538D01*
X11204112Y3716538D02*
X11318398Y3716538D01*
X11318398Y3716538D02*
X11470779Y3678442D01*
X11470779Y3678442D02*
X11546969Y3640347D01*
X11546969Y3640347D02*
X11623160Y3564157D01*
X11623160Y3564157D02*
X11661255Y3449871D01*
X11661255Y3449871D02*
X11661255Y3259395D01*
X10861255Y4211775D02*
X10861255Y4707013D01*
X10861255Y4707013D02*
X11166017Y4440347D01*
X11166017Y4440347D02*
X11166017Y4554632D01*
X11166017Y4554632D02*
X11204112Y4630823D01*
X11204112Y4630823D02*
X11242207Y4668918D01*
X11242207Y4668918D02*
X11318398Y4707013D01*
X11318398Y4707013D02*
X11508874Y4707013D01*
X11508874Y4707013D02*
X11585064Y4668918D01*
X11585064Y4668918D02*
X11623160Y4630823D01*
X11623160Y4630823D02*
X11661255Y4554632D01*
X11661255Y4554632D02*
X11661255Y4326061D01*
X11661255Y4326061D02*
X11623160Y4249870D01*
X11623160Y4249870D02*
X11585064Y4211775D01*
X11585064Y5049871D02*
X11623160Y5087966D01*
X11623160Y5087966D02*
X11661255Y5049871D01*
X11661255Y5049871D02*
X11623160Y5011775D01*
X11623160Y5011775D02*
X11585064Y5049871D01*
X11585064Y5049871D02*
X11661255Y5049871D01*
X10861255Y5354632D02*
X10861255Y5849870D01*
X10861255Y5849870D02*
X11166017Y5583204D01*
X11166017Y5583204D02*
X11166017Y5697489D01*
X11166017Y5697489D02*
X11204112Y5773680D01*
X11204112Y5773680D02*
X11242207Y5811775D01*
X11242207Y5811775D02*
X11318398Y5849870D01*
X11318398Y5849870D02*
X11508874Y5849870D01*
X11508874Y5849870D02*
X11585064Y5811775D01*
X11585064Y5811775D02*
X11623160Y5773680D01*
X11623160Y5773680D02*
X11661255Y5697489D01*
X11661255Y5697489D02*
X11661255Y5468918D01*
X11661255Y5468918D02*
X11623160Y5392727D01*
X11623160Y5392727D02*
X11585064Y5354632D01*
X10861255Y6078442D02*
X11661255Y6345109D01*
X11661255Y6345109D02*
X10861255Y6611775D01*
X11623160Y7297488D02*
X11661255Y7411774D01*
X11661255Y7411774D02*
X11661255Y7602250D01*
X11661255Y7602250D02*
X11623160Y7678441D01*
X11623160Y7678441D02*
X11585064Y7716536D01*
X11585064Y7716536D02*
X11508874Y7754631D01*
X11508874Y7754631D02*
X11432683Y7754631D01*
X11432683Y7754631D02*
X11356493Y7716536D01*
X11356493Y7716536D02*
X11318398Y7678441D01*
X11318398Y7678441D02*
X11280302Y7602250D01*
X11280302Y7602250D02*
X11242207Y7449869D01*
X11242207Y7449869D02*
X11204112Y7373679D01*
X11204112Y7373679D02*
X11166017Y7335584D01*
X11166017Y7335584D02*
X11089826Y7297488D01*
X11089826Y7297488D02*
X11013636Y7297488D01*
X11013636Y7297488D02*
X10937445Y7335584D01*
X10937445Y7335584D02*
X10899350Y7373679D01*
X10899350Y7373679D02*
X10861255Y7449869D01*
X10861255Y7449869D02*
X10861255Y7640346D01*
X10861255Y7640346D02*
X10899350Y7754631D01*
X10937445Y8059393D02*
X10899350Y8097489D01*
X10899350Y8097489D02*
X10861255Y8173679D01*
X10861255Y8173679D02*
X10861255Y8364155D01*
X10861255Y8364155D02*
X10899350Y8440346D01*
X10899350Y8440346D02*
X10937445Y8478441D01*
X10937445Y8478441D02*
X11013636Y8516536D01*
X11013636Y8516536D02*
X11089826Y8516536D01*
X11089826Y8516536D02*
X11204112Y8478441D01*
X11204112Y8478441D02*
X11661255Y8021298D01*
X11661255Y8021298D02*
X11661255Y8516536D01*
X11623160Y9278440D02*
X11661255Y9392726D01*
X11661255Y9392726D02*
X11661255Y9583202D01*
X11661255Y9583202D02*
X11623160Y9659393D01*
X11623160Y9659393D02*
X11585064Y9697488D01*
X11585064Y9697488D02*
X11508874Y9735583D01*
X11508874Y9735583D02*
X11432683Y9735583D01*
X11432683Y9735583D02*
X11356493Y9697488D01*
X11356493Y9697488D02*
X11318398Y9659393D01*
X11318398Y9659393D02*
X11280302Y9583202D01*
X11280302Y9583202D02*
X11242207Y9430821D01*
X11242207Y9430821D02*
X11204112Y9354631D01*
X11204112Y9354631D02*
X11166017Y9316536D01*
X11166017Y9316536D02*
X11089826Y9278440D01*
X11089826Y9278440D02*
X11013636Y9278440D01*
X11013636Y9278440D02*
X10937445Y9316536D01*
X10937445Y9316536D02*
X10899350Y9354631D01*
X10899350Y9354631D02*
X10861255Y9430821D01*
X10861255Y9430821D02*
X10861255Y9621298D01*
X10861255Y9621298D02*
X10899350Y9735583D01*
X11661255Y10497488D02*
X11661255Y10040345D01*
X11661255Y10268917D02*
X10861255Y10268917D01*
X10861255Y10268917D02*
X10975540Y10192726D01*
X10975540Y10192726D02*
X11051731Y10116536D01*
X11051731Y10116536D02*
X11089826Y10040345D01*
X1382855Y15005390D02*
X1382855Y15462533D01*
X2182855Y15233961D02*
X1382855Y15233961D01*
X1382855Y15653009D02*
X2182855Y16186343D01*
X1382855Y16186343D02*
X2182855Y15653009D01*
X3374960Y-12103919D02*
X3413055Y-11989633D01*
X3413055Y-11989633D02*
X3413055Y-11799157D01*
X3413055Y-11799157D02*
X3374960Y-11722966D01*
X3374960Y-11722966D02*
X3336864Y-11684871D01*
X3336864Y-11684871D02*
X3260674Y-11646776D01*
X3260674Y-11646776D02*
X3184483Y-11646776D01*
X3184483Y-11646776D02*
X3108293Y-11684871D01*
X3108293Y-11684871D02*
X3070198Y-11722966D01*
X3070198Y-11722966D02*
X3032102Y-11799157D01*
X3032102Y-11799157D02*
X2994007Y-11951538D01*
X2994007Y-11951538D02*
X2955912Y-12027728D01*
X2955912Y-12027728D02*
X2917817Y-12065823D01*
X2917817Y-12065823D02*
X2841626Y-12103919D01*
X2841626Y-12103919D02*
X2765436Y-12103919D01*
X2765436Y-12103919D02*
X2689245Y-12065823D01*
X2689245Y-12065823D02*
X2651150Y-12027728D01*
X2651150Y-12027728D02*
X2613055Y-11951538D01*
X2613055Y-11951538D02*
X2613055Y-11761061D01*
X2613055Y-11761061D02*
X2651150Y-11646776D01*
X3336864Y-10846775D02*
X3374960Y-10884871D01*
X3374960Y-10884871D02*
X3413055Y-10999156D01*
X3413055Y-10999156D02*
X3413055Y-11075347D01*
X3413055Y-11075347D02*
X3374960Y-11189633D01*
X3374960Y-11189633D02*
X3298769Y-11265823D01*
X3298769Y-11265823D02*
X3222579Y-11303918D01*
X3222579Y-11303918D02*
X3070198Y-11342014D01*
X3070198Y-11342014D02*
X2955912Y-11342014D01*
X2955912Y-11342014D02*
X2803531Y-11303918D01*
X2803531Y-11303918D02*
X2727340Y-11265823D01*
X2727340Y-11265823D02*
X2651150Y-11189633D01*
X2651150Y-11189633D02*
X2613055Y-11075347D01*
X2613055Y-11075347D02*
X2613055Y-10999156D01*
X2613055Y-10999156D02*
X2651150Y-10884871D01*
X2651150Y-10884871D02*
X2689245Y-10846775D01*
X3413055Y-10503918D02*
X2613055Y-10503918D01*
X3413055Y-10046775D02*
X2955912Y-10389633D01*
X2613055Y-10046775D02*
X3070198Y-10503918D01*
X3489245Y-9894395D02*
X3489245Y-9284871D01*
X3413055Y-8637251D02*
X3032102Y-8903918D01*
X3413055Y-9094394D02*
X2613055Y-9094394D01*
X2613055Y-9094394D02*
X2613055Y-8789632D01*
X2613055Y-8789632D02*
X2651150Y-8713442D01*
X2651150Y-8713442D02*
X2689245Y-8675347D01*
X2689245Y-8675347D02*
X2765436Y-8637251D01*
X2765436Y-8637251D02*
X2879721Y-8637251D01*
X2879721Y-8637251D02*
X2955912Y-8675347D01*
X2955912Y-8675347D02*
X2994007Y-8713442D01*
X2994007Y-8713442D02*
X3032102Y-8789632D01*
X3032102Y-8789632D02*
X3032102Y-9094394D01*
X-6005278Y-9793266D02*
X-5471944Y-9793266D01*
X-6310040Y-9983742D02*
X-5738611Y-10174219D01*
X-5738611Y-10174219D02*
X-5738611Y-9678980D01*
X-6271944Y-8993266D02*
X-6271944Y-9374218D01*
X-6271944Y-9374218D02*
X-5890992Y-9412314D01*
X-5890992Y-9412314D02*
X-5929087Y-9374218D01*
X-5929087Y-9374218D02*
X-5967182Y-9298028D01*
X-5967182Y-9298028D02*
X-5967182Y-9107552D01*
X-5967182Y-9107552D02*
X-5929087Y-9031361D01*
X-5929087Y-9031361D02*
X-5890992Y-8993266D01*
X-5890992Y-8993266D02*
X-5814801Y-8955171D01*
X-5814801Y-8955171D02*
X-5624325Y-8955171D01*
X-5624325Y-8955171D02*
X-5548135Y-8993266D01*
X-5548135Y-8993266D02*
X-5510040Y-9031361D01*
X-5510040Y-9031361D02*
X-5471944Y-9107552D01*
X-5471944Y-9107552D02*
X-5471944Y-9298028D01*
X-5471944Y-9298028D02*
X-5510040Y-9374218D01*
X-5510040Y-9374218D02*
X-5548135Y-9412314D01*
X-6271944Y-8726599D02*
X-5471944Y-8459932D01*
X-5471944Y-8459932D02*
X-6271944Y-8193266D01*
X-6233849Y-6821839D02*
X-6271944Y-6898029D01*
X-6271944Y-6898029D02*
X-6271944Y-7012315D01*
X-6271944Y-7012315D02*
X-6233849Y-7126601D01*
X-6233849Y-7126601D02*
X-6157659Y-7202791D01*
X-6157659Y-7202791D02*
X-6081468Y-7240886D01*
X-6081468Y-7240886D02*
X-5929087Y-7278982D01*
X-5929087Y-7278982D02*
X-5814801Y-7278982D01*
X-5814801Y-7278982D02*
X-5662420Y-7240886D01*
X-5662420Y-7240886D02*
X-5586230Y-7202791D01*
X-5586230Y-7202791D02*
X-5510040Y-7126601D01*
X-5510040Y-7126601D02*
X-5471944Y-7012315D01*
X-5471944Y-7012315D02*
X-5471944Y-6936124D01*
X-5471944Y-6936124D02*
X-5510040Y-6821839D01*
X-5510040Y-6821839D02*
X-5548135Y-6783743D01*
X-5548135Y-6783743D02*
X-5814801Y-6783743D01*
X-5814801Y-6783743D02*
X-5814801Y-6936124D01*
X-5471944Y-6440886D02*
X-6271944Y-6440886D01*
X-6271944Y-6440886D02*
X-5471944Y-5983743D01*
X-5471944Y-5983743D02*
X-6271944Y-5983743D01*
X-5471944Y-5602791D02*
X-6271944Y-5602791D01*
X-6271944Y-5602791D02*
X-6271944Y-5412315D01*
X-6271944Y-5412315D02*
X-6233849Y-5298029D01*
X-6233849Y-5298029D02*
X-6157659Y-5221839D01*
X-6157659Y-5221839D02*
X-6081468Y-5183744D01*
X-6081468Y-5183744D02*
X-5929087Y-5145648D01*
X-5929087Y-5145648D02*
X-5814801Y-5145648D01*
X-5814801Y-5145648D02*
X-5662420Y-5183744D01*
X-5662420Y-5183744D02*
X-5586230Y-5221839D01*
X-5586230Y-5221839D02*
X-5510040Y-5298029D01*
X-5510040Y-5298029D02*
X-5471944Y-5412315D01*
X-5471944Y-5412315D02*
X-5471944Y-5602791D01*
X881360Y-12207519D02*
X919455Y-12093233D01*
X919455Y-12093233D02*
X919455Y-11902757D01*
X919455Y-11902757D02*
X881360Y-11826566D01*
X881360Y-11826566D02*
X843264Y-11788471D01*
X843264Y-11788471D02*
X767074Y-11750376D01*
X767074Y-11750376D02*
X690883Y-11750376D01*
X690883Y-11750376D02*
X614693Y-11788471D01*
X614693Y-11788471D02*
X576598Y-11826566D01*
X576598Y-11826566D02*
X538502Y-11902757D01*
X538502Y-11902757D02*
X500407Y-12055138D01*
X500407Y-12055138D02*
X462312Y-12131328D01*
X462312Y-12131328D02*
X424217Y-12169423D01*
X424217Y-12169423D02*
X348026Y-12207519D01*
X348026Y-12207519D02*
X271836Y-12207519D01*
X271836Y-12207519D02*
X195645Y-12169423D01*
X195645Y-12169423D02*
X157550Y-12131328D01*
X157550Y-12131328D02*
X119455Y-12055138D01*
X119455Y-12055138D02*
X119455Y-11864661D01*
X119455Y-11864661D02*
X157550Y-11750376D01*
X919455Y-11407518D02*
X119455Y-11407518D01*
X119455Y-11407518D02*
X119455Y-11217042D01*
X119455Y-11217042D02*
X157550Y-11102756D01*
X157550Y-11102756D02*
X233740Y-11026566D01*
X233740Y-11026566D02*
X309931Y-10988471D01*
X309931Y-10988471D02*
X462312Y-10950375D01*
X462312Y-10950375D02*
X576598Y-10950375D01*
X576598Y-10950375D02*
X728979Y-10988471D01*
X728979Y-10988471D02*
X805169Y-11026566D01*
X805169Y-11026566D02*
X881360Y-11102756D01*
X881360Y-11102756D02*
X919455Y-11217042D01*
X919455Y-11217042D02*
X919455Y-11407518D01*
X690883Y-10645614D02*
X690883Y-10264661D01*
X919455Y-10721804D02*
X119455Y-10455137D01*
X119455Y-10455137D02*
X919455Y-10188471D01*
X995645Y-10112281D02*
X995645Y-9502757D01*
X919455Y-8855137D02*
X538502Y-9121804D01*
X919455Y-9312280D02*
X119455Y-9312280D01*
X119455Y-9312280D02*
X119455Y-9007518D01*
X119455Y-9007518D02*
X157550Y-8931328D01*
X157550Y-8931328D02*
X195645Y-8893233D01*
X195645Y-8893233D02*
X271836Y-8855137D01*
X271836Y-8855137D02*
X386121Y-8855137D01*
X386121Y-8855137D02*
X462312Y-8893233D01*
X462312Y-8893233D02*
X500407Y-8931328D01*
X500407Y-8931328D02*
X538502Y-9007518D01*
X538502Y-9007518D02*
X538502Y-9312280D01*
X-1604844Y-12213923D02*
X-2404844Y-12213923D01*
X-2404844Y-12213923D02*
X-2404844Y-11909161D01*
X-2404844Y-11909161D02*
X-2366749Y-11832971D01*
X-2366749Y-11832971D02*
X-2328654Y-11794876D01*
X-2328654Y-11794876D02*
X-2252463Y-11756780D01*
X-2252463Y-11756780D02*
X-2138178Y-11756780D01*
X-2138178Y-11756780D02*
X-2061987Y-11794876D01*
X-2061987Y-11794876D02*
X-2023892Y-11832971D01*
X-2023892Y-11832971D02*
X-1985797Y-11909161D01*
X-1985797Y-11909161D02*
X-1985797Y-12213923D01*
X-1642940Y-11452019D02*
X-1604844Y-11337733D01*
X-1604844Y-11337733D02*
X-1604844Y-11147257D01*
X-1604844Y-11147257D02*
X-1642940Y-11071066D01*
X-1642940Y-11071066D02*
X-1681035Y-11032971D01*
X-1681035Y-11032971D02*
X-1757225Y-10994876D01*
X-1757225Y-10994876D02*
X-1833416Y-10994876D01*
X-1833416Y-10994876D02*
X-1909606Y-11032971D01*
X-1909606Y-11032971D02*
X-1947701Y-11071066D01*
X-1947701Y-11071066D02*
X-1985797Y-11147257D01*
X-1985797Y-11147257D02*
X-2023892Y-11299638D01*
X-2023892Y-11299638D02*
X-2061987Y-11375828D01*
X-2061987Y-11375828D02*
X-2100082Y-11413923D01*
X-2100082Y-11413923D02*
X-2176273Y-11452019D01*
X-2176273Y-11452019D02*
X-2252463Y-11452019D01*
X-2252463Y-11452019D02*
X-2328654Y-11413923D01*
X-2328654Y-11413923D02*
X-2366749Y-11375828D01*
X-2366749Y-11375828D02*
X-2404844Y-11299638D01*
X-2404844Y-11299638D02*
X-2404844Y-11109161D01*
X-2404844Y-11109161D02*
X-2366749Y-10994876D01*
X-1528654Y-10842495D02*
X-1528654Y-10232971D01*
X-2023892Y-10042494D02*
X-2023892Y-9775828D01*
X-1604844Y-9661542D02*
X-1604844Y-10042494D01*
X-1604844Y-10042494D02*
X-2404844Y-10042494D01*
X-2404844Y-10042494D02*
X-2404844Y-9661542D01*
X-1604844Y-9318684D02*
X-2404844Y-9318684D01*
X-2404844Y-9318684D02*
X-1604844Y-8861541D01*
X-1604844Y-8861541D02*
X-2404844Y-8861541D01*
X-360844Y15616019D02*
X-741797Y15349352D01*
X-360844Y15158876D02*
X-1160844Y15158876D01*
X-1160844Y15158876D02*
X-1160844Y15463638D01*
X-1160844Y15463638D02*
X-1122749Y15539828D01*
X-1122749Y15539828D02*
X-1084654Y15577923D01*
X-1084654Y15577923D02*
X-1008463Y15616019D01*
X-1008463Y15616019D02*
X-894178Y15616019D01*
X-894178Y15616019D02*
X-817987Y15577923D01*
X-817987Y15577923D02*
X-779892Y15539828D01*
X-779892Y15539828D02*
X-741797Y15463638D01*
X-741797Y15463638D02*
X-741797Y15158876D01*
X-1160844Y15882685D02*
X-360844Y16416019D01*
X-1160844Y16416019D02*
X-360844Y15882685D01*
X-3651044Y14666585D02*
X-3651044Y15161823D01*
X-3651044Y15161823D02*
X-3346282Y14895157D01*
X-3346282Y14895157D02*
X-3346282Y15009442D01*
X-3346282Y15009442D02*
X-3308187Y15085633D01*
X-3308187Y15085633D02*
X-3270092Y15123728D01*
X-3270092Y15123728D02*
X-3193901Y15161823D01*
X-3193901Y15161823D02*
X-3003425Y15161823D01*
X-3003425Y15161823D02*
X-2927235Y15123728D01*
X-2927235Y15123728D02*
X-2889140Y15085633D01*
X-2889140Y15085633D02*
X-2851044Y15009442D01*
X-2851044Y15009442D02*
X-2851044Y14780871D01*
X-2851044Y14780871D02*
X-2889140Y14704680D01*
X-2889140Y14704680D02*
X-2927235Y14666585D01*
X-2927235Y15504681D02*
X-2889140Y15542776D01*
X-2889140Y15542776D02*
X-2851044Y15504681D01*
X-2851044Y15504681D02*
X-2889140Y15466585D01*
X-2889140Y15466585D02*
X-2927235Y15504681D01*
X-2927235Y15504681D02*
X-2851044Y15504681D01*
X-3651044Y15809442D02*
X-3651044Y16304680D01*
X-3651044Y16304680D02*
X-3346282Y16038014D01*
X-3346282Y16038014D02*
X-3346282Y16152299D01*
X-3346282Y16152299D02*
X-3308187Y16228490D01*
X-3308187Y16228490D02*
X-3270092Y16266585D01*
X-3270092Y16266585D02*
X-3193901Y16304680D01*
X-3193901Y16304680D02*
X-3003425Y16304680D01*
X-3003425Y16304680D02*
X-2927235Y16266585D01*
X-2927235Y16266585D02*
X-2889140Y16228490D01*
X-2889140Y16228490D02*
X-2851044Y16152299D01*
X-2851044Y16152299D02*
X-2851044Y15923728D01*
X-2851044Y15923728D02*
X-2889140Y15847537D01*
X-2889140Y15847537D02*
X-2927235Y15809442D01*
X-3651044Y16533252D02*
X-2851044Y16799919D01*
X-2851044Y16799919D02*
X-3651044Y17066585D01*
X4823860Y14681680D02*
X4861955Y14795966D01*
X4861955Y14795966D02*
X4861955Y14986442D01*
X4861955Y14986442D02*
X4823860Y15062633D01*
X4823860Y15062633D02*
X4785764Y15100728D01*
X4785764Y15100728D02*
X4709574Y15138823D01*
X4709574Y15138823D02*
X4633383Y15138823D01*
X4633383Y15138823D02*
X4557193Y15100728D01*
X4557193Y15100728D02*
X4519098Y15062633D01*
X4519098Y15062633D02*
X4481002Y14986442D01*
X4481002Y14986442D02*
X4442907Y14834061D01*
X4442907Y14834061D02*
X4404812Y14757871D01*
X4404812Y14757871D02*
X4366717Y14719776D01*
X4366717Y14719776D02*
X4290526Y14681680D01*
X4290526Y14681680D02*
X4214336Y14681680D01*
X4214336Y14681680D02*
X4138145Y14719776D01*
X4138145Y14719776D02*
X4100050Y14757871D01*
X4100050Y14757871D02*
X4061955Y14834061D01*
X4061955Y14834061D02*
X4061955Y15024538D01*
X4061955Y15024538D02*
X4100050Y15138823D01*
X4785764Y15938824D02*
X4823860Y15900728D01*
X4823860Y15900728D02*
X4861955Y15786443D01*
X4861955Y15786443D02*
X4861955Y15710252D01*
X4861955Y15710252D02*
X4823860Y15595966D01*
X4823860Y15595966D02*
X4747669Y15519776D01*
X4747669Y15519776D02*
X4671479Y15481681D01*
X4671479Y15481681D02*
X4519098Y15443585D01*
X4519098Y15443585D02*
X4404812Y15443585D01*
X4404812Y15443585D02*
X4252431Y15481681D01*
X4252431Y15481681D02*
X4176240Y15519776D01*
X4176240Y15519776D02*
X4100050Y15595966D01*
X4100050Y15595966D02*
X4061955Y15710252D01*
X4061955Y15710252D02*
X4061955Y15786443D01*
X4061955Y15786443D02*
X4100050Y15900728D01*
X4100050Y15900728D02*
X4138145Y15938824D01*
X4861955Y16662633D02*
X4861955Y16281681D01*
X4861955Y16281681D02*
X4061955Y16281681D01*
X-6148749Y15158723D02*
X-6186844Y15082533D01*
X-6186844Y15082533D02*
X-6186844Y14968247D01*
X-6186844Y14968247D02*
X-6148749Y14853961D01*
X-6148749Y14853961D02*
X-6072559Y14777771D01*
X-6072559Y14777771D02*
X-5996368Y14739676D01*
X-5996368Y14739676D02*
X-5843987Y14701580D01*
X-5843987Y14701580D02*
X-5729701Y14701580D01*
X-5729701Y14701580D02*
X-5577320Y14739676D01*
X-5577320Y14739676D02*
X-5501130Y14777771D01*
X-5501130Y14777771D02*
X-5424940Y14853961D01*
X-5424940Y14853961D02*
X-5386844Y14968247D01*
X-5386844Y14968247D02*
X-5386844Y15044438D01*
X-5386844Y15044438D02*
X-5424940Y15158723D01*
X-5424940Y15158723D02*
X-5463035Y15196819D01*
X-5463035Y15196819D02*
X-5729701Y15196819D01*
X-5729701Y15196819D02*
X-5729701Y15044438D01*
X-5386844Y15539676D02*
X-6186844Y15539676D01*
X-6186844Y15539676D02*
X-5386844Y15996819D01*
X-5386844Y15996819D02*
X-6186844Y15996819D01*
X-5386844Y16377771D02*
X-6186844Y16377771D01*
X-6186844Y16377771D02*
X-6186844Y16568247D01*
X-6186844Y16568247D02*
X-6148749Y16682533D01*
X-6148749Y16682533D02*
X-6072559Y16758723D01*
X-6072559Y16758723D02*
X-5996368Y16796818D01*
X-5996368Y16796818D02*
X-5843987Y16834914D01*
X-5843987Y16834914D02*
X-5729701Y16834914D01*
X-5729701Y16834914D02*
X-5577320Y16796818D01*
X-5577320Y16796818D02*
X-5501130Y16758723D01*
X-5501130Y16758723D02*
X-5424940Y16682533D01*
X-5424940Y16682533D02*
X-5386844Y16568247D01*
X-5386844Y16568247D02*
X-5386844Y16377771D01*
X7338060Y14613880D02*
X7376155Y14728166D01*
X7376155Y14728166D02*
X7376155Y14918642D01*
X7376155Y14918642D02*
X7338060Y14994833D01*
X7338060Y14994833D02*
X7299964Y15032928D01*
X7299964Y15032928D02*
X7223774Y15071023D01*
X7223774Y15071023D02*
X7147583Y15071023D01*
X7147583Y15071023D02*
X7071393Y15032928D01*
X7071393Y15032928D02*
X7033298Y14994833D01*
X7033298Y14994833D02*
X6995202Y14918642D01*
X6995202Y14918642D02*
X6957107Y14766261D01*
X6957107Y14766261D02*
X6919012Y14690071D01*
X6919012Y14690071D02*
X6880917Y14651976D01*
X6880917Y14651976D02*
X6804726Y14613880D01*
X6804726Y14613880D02*
X6728536Y14613880D01*
X6728536Y14613880D02*
X6652345Y14651976D01*
X6652345Y14651976D02*
X6614250Y14690071D01*
X6614250Y14690071D02*
X6576155Y14766261D01*
X6576155Y14766261D02*
X6576155Y14956738D01*
X6576155Y14956738D02*
X6614250Y15071023D01*
X7376155Y15413881D02*
X6576155Y15413881D01*
X6576155Y15413881D02*
X6576155Y15604357D01*
X6576155Y15604357D02*
X6614250Y15718643D01*
X6614250Y15718643D02*
X6690440Y15794833D01*
X6690440Y15794833D02*
X6766631Y15832928D01*
X6766631Y15832928D02*
X6919012Y15871024D01*
X6919012Y15871024D02*
X7033298Y15871024D01*
X7033298Y15871024D02*
X7185679Y15832928D01*
X7185679Y15832928D02*
X7261869Y15794833D01*
X7261869Y15794833D02*
X7338060Y15718643D01*
X7338060Y15718643D02*
X7376155Y15604357D01*
X7376155Y15604357D02*
X7376155Y15413881D01*
X7147583Y16175785D02*
X7147583Y16556738D01*
X7376155Y16099595D02*
X6576155Y16366262D01*
X6576155Y16366262D02*
X7376155Y16632928D01*
D11*
D12*
X10483153Y-7757558D02*
X10361134Y-7757558D01*
X10361134Y-7757558D02*
X10361134Y-7501318D01*
X10568566Y-7623337D02*
X10653979Y-7623337D01*
X10690585Y-7757558D02*
X10568566Y-7757558D01*
X10568566Y-7757558D02*
X10568566Y-7501318D01*
X10568566Y-7501318D02*
X10690585Y-7501318D01*
X10800402Y-7757558D02*
X10800402Y-7501318D01*
X10800402Y-7501318D02*
X10861412Y-7501318D01*
X10861412Y-7501318D02*
X10898017Y-7513520D01*
X10898017Y-7513520D02*
X10922421Y-7537924D01*
X10922421Y-7537924D02*
X10934623Y-7562328D01*
X10934623Y-7562328D02*
X10946825Y-7611136D01*
X10946825Y-7611136D02*
X10946825Y-7647741D01*
X10946825Y-7647741D02*
X10934623Y-7696549D01*
X10934623Y-7696549D02*
X10922421Y-7720953D01*
X10922421Y-7720953D02*
X10898017Y-7745357D01*
X10898017Y-7745357D02*
X10861412Y-7757558D01*
X10861412Y-7757558D02*
X10800402Y-7757558D01*
X11166459Y-7501318D02*
X11117652Y-7501318D01*
X11117652Y-7501318D02*
X11093248Y-7513520D01*
X11093248Y-7513520D02*
X11081046Y-7525722D01*
X11081046Y-7525722D02*
X11056642Y-7562328D01*
X11056642Y-7562328D02*
X11044440Y-7611136D01*
X11044440Y-7611136D02*
X11044440Y-7708751D01*
X11044440Y-7708751D02*
X11056642Y-7733155D01*
X11056642Y-7733155D02*
X11068844Y-7745357D01*
X11068844Y-7745357D02*
X11093248Y-7757558D01*
X11093248Y-7757558D02*
X11142055Y-7757558D01*
X11142055Y-7757558D02*
X11166459Y-7745357D01*
X11166459Y-7745357D02*
X11178661Y-7733155D01*
X11178661Y-7733155D02*
X11190863Y-7708751D01*
X11190863Y-7708751D02*
X11190863Y-7647741D01*
X11190863Y-7647741D02*
X11178661Y-7623337D01*
X11178661Y-7623337D02*
X11166459Y-7611136D01*
X11166459Y-7611136D02*
X11142055Y-7598934D01*
X11142055Y-7598934D02*
X11093248Y-7598934D01*
X11093248Y-7598934D02*
X11068844Y-7611136D01*
X11068844Y-7611136D02*
X11056642Y-7623337D01*
X11056642Y-7623337D02*
X11044440Y-7647741D01*
D10*
D13*
X11877466Y-9921641D02*
X11867942Y-9931165D01*
X11867942Y-9931165D02*
X11839371Y-9940688D01*
X11839371Y-9940688D02*
X11820323Y-9940688D01*
X11820323Y-9940688D02*
X11791752Y-9931165D01*
X11791752Y-9931165D02*
X11772704Y-9912117D01*
X11772704Y-9912117D02*
X11763181Y-9893069D01*
X11763181Y-9893069D02*
X11753657Y-9854974D01*
X11753657Y-9854974D02*
X11753657Y-9826403D01*
X11753657Y-9826403D02*
X11763181Y-9788307D01*
X11763181Y-9788307D02*
X11772704Y-9769260D01*
X11772704Y-9769260D02*
X11791752Y-9750212D01*
X11791752Y-9750212D02*
X11820323Y-9740688D01*
X11820323Y-9740688D02*
X11839371Y-9740688D01*
X11839371Y-9740688D02*
X11867942Y-9750212D01*
X11867942Y-9750212D02*
X11877466Y-9759736D01*
X11953657Y-9759736D02*
X11963181Y-9750212D01*
X11963181Y-9750212D02*
X11982228Y-9740688D01*
X11982228Y-9740688D02*
X12029847Y-9740688D01*
X12029847Y-9740688D02*
X12048895Y-9750212D01*
X12048895Y-9750212D02*
X12058419Y-9759736D01*
X12058419Y-9759736D02*
X12067942Y-9778784D01*
X12067942Y-9778784D02*
X12067942Y-9797831D01*
X12067942Y-9797831D02*
X12058419Y-9826403D01*
X12058419Y-9826403D02*
X11944133Y-9940688D01*
X11944133Y-9940688D02*
X12067942Y-9940688D01*
D11*
D12*
X4898655Y12996441D02*
X4776636Y12996441D01*
X4776636Y12996441D02*
X4776636Y13252681D01*
X4984068Y13130662D02*
X5069481Y13130662D01*
X5106087Y12996441D02*
X4984068Y12996441D01*
X4984068Y12996441D02*
X4984068Y13252681D01*
X4984068Y13252681D02*
X5106087Y13252681D01*
X5215904Y12996441D02*
X5215904Y13252681D01*
X5215904Y13252681D02*
X5276914Y13252681D01*
X5276914Y13252681D02*
X5313519Y13240479D01*
X5313519Y13240479D02*
X5337923Y13216075D01*
X5337923Y13216075D02*
X5350125Y13191671D01*
X5350125Y13191671D02*
X5362327Y13142863D01*
X5362327Y13142863D02*
X5362327Y13106258D01*
X5362327Y13106258D02*
X5350125Y13057450D01*
X5350125Y13057450D02*
X5337923Y13033046D01*
X5337923Y13033046D02*
X5313519Y13008643D01*
X5313519Y13008643D02*
X5276914Y12996441D01*
X5276914Y12996441D02*
X5215904Y12996441D01*
X5447740Y13252681D02*
X5606365Y13252681D01*
X5606365Y13252681D02*
X5520952Y13155065D01*
X5520952Y13155065D02*
X5557557Y13155065D01*
X5557557Y13155065D02*
X5581961Y13142863D01*
X5581961Y13142863D02*
X5594163Y13130662D01*
X5594163Y13130662D02*
X5606365Y13106258D01*
X5606365Y13106258D02*
X5606365Y13045248D01*
X5606365Y13045248D02*
X5594163Y13020844D01*
X5594163Y13020844D02*
X5581961Y13008643D01*
X5581961Y13008643D02*
X5557557Y12996441D01*
X5557557Y12996441D02*
X5484346Y12996441D01*
X5484346Y12996441D02*
X5459942Y13008643D01*
X5459942Y13008643D02*
X5447740Y13020844D01*
D10*
D11*
D12*
X10394053Y-4935658D02*
X10272034Y-4935658D01*
X10272034Y-4935658D02*
X10272034Y-4679418D01*
X10479466Y-4801437D02*
X10564879Y-4801437D01*
X10601485Y-4935658D02*
X10479466Y-4935658D01*
X10479466Y-4935658D02*
X10479466Y-4679418D01*
X10479466Y-4679418D02*
X10601485Y-4679418D01*
X10711302Y-4935658D02*
X10711302Y-4679418D01*
X10711302Y-4679418D02*
X10772312Y-4679418D01*
X10772312Y-4679418D02*
X10808917Y-4691620D01*
X10808917Y-4691620D02*
X10833321Y-4716024D01*
X10833321Y-4716024D02*
X10845523Y-4740428D01*
X10845523Y-4740428D02*
X10857725Y-4789236D01*
X10857725Y-4789236D02*
X10857725Y-4825841D01*
X10857725Y-4825841D02*
X10845523Y-4874649D01*
X10845523Y-4874649D02*
X10833321Y-4899053D01*
X10833321Y-4899053D02*
X10808917Y-4923457D01*
X10808917Y-4923457D02*
X10772312Y-4935658D01*
X10772312Y-4935658D02*
X10711302Y-4935658D01*
X11089561Y-4679418D02*
X10967542Y-4679418D01*
X10967542Y-4679418D02*
X10955340Y-4801437D01*
X10955340Y-4801437D02*
X10967542Y-4789236D01*
X10967542Y-4789236D02*
X10991946Y-4777034D01*
X10991946Y-4777034D02*
X11052955Y-4777034D01*
X11052955Y-4777034D02*
X11077359Y-4789236D01*
X11077359Y-4789236D02*
X11089561Y-4801437D01*
X11089561Y-4801437D02*
X11101763Y-4825841D01*
X11101763Y-4825841D02*
X11101763Y-4886851D01*
X11101763Y-4886851D02*
X11089561Y-4911255D01*
X11089561Y-4911255D02*
X11077359Y-4923457D01*
X11077359Y-4923457D02*
X11052955Y-4935658D01*
X11052955Y-4935658D02*
X10991946Y-4935658D01*
X10991946Y-4935658D02*
X10967542Y-4923457D01*
X10967542Y-4923457D02*
X10955340Y-4911255D01*
D10*
D14*
D10*
D15*
X1353478Y8613122D02*
X1391573Y8613122D01*
X1391573Y8613122D02*
X1429669Y8594074D01*
X1429669Y8594074D02*
X1448716Y8575027D01*
X1448716Y8575027D02*
X1467764Y8536931D01*
X1467764Y8536931D02*
X1486811Y8460741D01*
X1486811Y8460741D02*
X1486811Y8365503D01*
X1486811Y8365503D02*
X1467764Y8289312D01*
X1467764Y8289312D02*
X1448716Y8251217D01*
X1448716Y8251217D02*
X1429669Y8232170D01*
X1429669Y8232170D02*
X1391573Y8213122D01*
X1391573Y8213122D02*
X1353478Y8213122D01*
X1353478Y8213122D02*
X1315383Y8232170D01*
X1315383Y8232170D02*
X1296335Y8251217D01*
X1296335Y8251217D02*
X1277288Y8289312D01*
X1277288Y8289312D02*
X1258240Y8365503D01*
X1258240Y8365503D02*
X1258240Y8460741D01*
X1258240Y8460741D02*
X1277288Y8536931D01*
X1277288Y8536931D02*
X1296335Y8575027D01*
X1296335Y8575027D02*
X1315383Y8594074D01*
X1315383Y8594074D02*
X1353478Y8613122D01*
X1658240Y8251217D02*
X1677287Y8232170D01*
X1677287Y8232170D02*
X1658240Y8213122D01*
X1658240Y8213122D02*
X1639192Y8232170D01*
X1639192Y8232170D02*
X1658240Y8251217D01*
X1658240Y8251217D02*
X1658240Y8213122D01*
X2058239Y8213122D02*
X1829668Y8213122D01*
X1943954Y8213122D02*
X1943954Y8613122D01*
X1943954Y8613122D02*
X1905858Y8555979D01*
X1905858Y8555979D02*
X1867763Y8517884D01*
X1867763Y8517884D02*
X1829668Y8498836D01*
X2401096Y8479789D02*
X2401096Y8213122D01*
X2229668Y8479789D02*
X2229668Y8270265D01*
X2229668Y8270265D02*
X2248715Y8232170D01*
X2248715Y8232170D02*
X2286810Y8213122D01*
X2286810Y8213122D02*
X2343953Y8213122D01*
X2343953Y8213122D02*
X2382049Y8232170D01*
X2382049Y8232170D02*
X2401096Y8251217D01*
X2724906Y8422646D02*
X2591573Y8422646D01*
X2591573Y8213122D02*
X2591573Y8613122D01*
X2591573Y8613122D02*
X2782049Y8613122D01*
X13325378Y-11411477D02*
X13363473Y-11411477D01*
X13363473Y-11411477D02*
X13401569Y-11430525D01*
X13401569Y-11430525D02*
X13420616Y-11449572D01*
X13420616Y-11449572D02*
X13439664Y-11487668D01*
X13439664Y-11487668D02*
X13458711Y-11563858D01*
X13458711Y-11563858D02*
X13458711Y-11659096D01*
X13458711Y-11659096D02*
X13439664Y-11735287D01*
X13439664Y-11735287D02*
X13420616Y-11773382D01*
X13420616Y-11773382D02*
X13401569Y-11792430D01*
X13401569Y-11792430D02*
X13363473Y-11811477D01*
X13363473Y-11811477D02*
X13325378Y-11811477D01*
X13325378Y-11811477D02*
X13287283Y-11792430D01*
X13287283Y-11792430D02*
X13268235Y-11773382D01*
X13268235Y-11773382D02*
X13249188Y-11735287D01*
X13249188Y-11735287D02*
X13230140Y-11659096D01*
X13230140Y-11659096D02*
X13230140Y-11563858D01*
X13230140Y-11563858D02*
X13249188Y-11487668D01*
X13249188Y-11487668D02*
X13268235Y-11449572D01*
X13268235Y-11449572D02*
X13287283Y-11430525D01*
X13287283Y-11430525D02*
X13325378Y-11411477D01*
X13630140Y-11773382D02*
X13649187Y-11792430D01*
X13649187Y-11792430D02*
X13630140Y-11811477D01*
X13630140Y-11811477D02*
X13611092Y-11792430D01*
X13611092Y-11792430D02*
X13630140Y-11773382D01*
X13630140Y-11773382D02*
X13630140Y-11811477D01*
X14030139Y-11811477D02*
X13801568Y-11811477D01*
X13915854Y-11811477D02*
X13915854Y-11411477D01*
X13915854Y-11411477D02*
X13877758Y-11468620D01*
X13877758Y-11468620D02*
X13839663Y-11506715D01*
X13839663Y-11506715D02*
X13801568Y-11525763D01*
X14372996Y-11544810D02*
X14372996Y-11811477D01*
X14201568Y-11544810D02*
X14201568Y-11754334D01*
X14201568Y-11754334D02*
X14220615Y-11792430D01*
X14220615Y-11792430D02*
X14258710Y-11811477D01*
X14258710Y-11811477D02*
X14315853Y-11811477D01*
X14315853Y-11811477D02*
X14353949Y-11792430D01*
X14353949Y-11792430D02*
X14372996Y-11773382D01*
X14696806Y-11601953D02*
X14563473Y-11601953D01*
X14563473Y-11811477D02*
X14563473Y-11411477D01*
X14563473Y-11411477D02*
X14753949Y-11411477D01*
X13504816Y-9768610D02*
X13504816Y-10035277D01*
X13409578Y-9616230D02*
X13314340Y-9901944D01*
X13314340Y-9901944D02*
X13561959Y-9901944D01*
X13714340Y-9997182D02*
X13733387Y-10016230D01*
X13733387Y-10016230D02*
X13714340Y-10035277D01*
X13714340Y-10035277D02*
X13695292Y-10016230D01*
X13695292Y-10016230D02*
X13714340Y-9997182D01*
X13714340Y-9997182D02*
X13714340Y-10035277D01*
X13866720Y-9635277D02*
X14133387Y-9635277D01*
X14133387Y-9635277D02*
X13961958Y-10035277D01*
X14457196Y-9768610D02*
X14457196Y-10035277D01*
X14285768Y-9768610D02*
X14285768Y-9978134D01*
X14285768Y-9978134D02*
X14304815Y-10016230D01*
X14304815Y-10016230D02*
X14342910Y-10035277D01*
X14342910Y-10035277D02*
X14400053Y-10035277D01*
X14400053Y-10035277D02*
X14438149Y-10016230D01*
X14438149Y-10016230D02*
X14457196Y-9997182D01*
X14781006Y-9825753D02*
X14647673Y-9825753D01*
X14647673Y-10035277D02*
X14647673Y-9635277D01*
X14647673Y-9635277D02*
X14838149Y-9635277D01*
X7666511Y-11986077D02*
X7437940Y-11986077D01*
X7552226Y-11986077D02*
X7552226Y-11586077D01*
X7552226Y-11586077D02*
X7514130Y-11643220D01*
X7514130Y-11643220D02*
X7476035Y-11681315D01*
X7476035Y-11681315D02*
X7437940Y-11700363D01*
X7914130Y-11586077D02*
X7952225Y-11586077D01*
X7952225Y-11586077D02*
X7990321Y-11605125D01*
X7990321Y-11605125D02*
X8009368Y-11624172D01*
X8009368Y-11624172D02*
X8028416Y-11662268D01*
X8028416Y-11662268D02*
X8047463Y-11738458D01*
X8047463Y-11738458D02*
X8047463Y-11833696D01*
X8047463Y-11833696D02*
X8028416Y-11909887D01*
X8028416Y-11909887D02*
X8009368Y-11947982D01*
X8009368Y-11947982D02*
X7990321Y-11967030D01*
X7990321Y-11967030D02*
X7952225Y-11986077D01*
X7952225Y-11986077D02*
X7914130Y-11986077D01*
X7914130Y-11986077D02*
X7876035Y-11967030D01*
X7876035Y-11967030D02*
X7856987Y-11947982D01*
X7856987Y-11947982D02*
X7837940Y-11909887D01*
X7837940Y-11909887D02*
X7818892Y-11833696D01*
X7818892Y-11833696D02*
X7818892Y-11738458D01*
X7818892Y-11738458D02*
X7837940Y-11662268D01*
X7837940Y-11662268D02*
X7856987Y-11624172D01*
X7856987Y-11624172D02*
X7876035Y-11605125D01*
X7876035Y-11605125D02*
X7914130Y-11586077D01*
X8390320Y-11719410D02*
X8390320Y-11986077D01*
X8218892Y-11719410D02*
X8218892Y-11928934D01*
X8218892Y-11928934D02*
X8237939Y-11967030D01*
X8237939Y-11967030D02*
X8276034Y-11986077D01*
X8276034Y-11986077D02*
X8333177Y-11986077D01*
X8333177Y-11986077D02*
X8371273Y-11967030D01*
X8371273Y-11967030D02*
X8390320Y-11947982D01*
X8714130Y-11776553D02*
X8580797Y-11776553D01*
X8580797Y-11986077D02*
X8580797Y-11586077D01*
X8580797Y-11586077D02*
X8771273Y-11586077D01*
X7606878Y13436622D02*
X7644973Y13436622D01*
X7644973Y13436622D02*
X7683069Y13417574D01*
X7683069Y13417574D02*
X7702116Y13398527D01*
X7702116Y13398527D02*
X7721164Y13360431D01*
X7721164Y13360431D02*
X7740211Y13284241D01*
X7740211Y13284241D02*
X7740211Y13189003D01*
X7740211Y13189003D02*
X7721164Y13112812D01*
X7721164Y13112812D02*
X7702116Y13074717D01*
X7702116Y13074717D02*
X7683069Y13055670D01*
X7683069Y13055670D02*
X7644973Y13036622D01*
X7644973Y13036622D02*
X7606878Y13036622D01*
X7606878Y13036622D02*
X7568783Y13055670D01*
X7568783Y13055670D02*
X7549735Y13074717D01*
X7549735Y13074717D02*
X7530688Y13112812D01*
X7530688Y13112812D02*
X7511640Y13189003D01*
X7511640Y13189003D02*
X7511640Y13284241D01*
X7511640Y13284241D02*
X7530688Y13360431D01*
X7530688Y13360431D02*
X7549735Y13398527D01*
X7549735Y13398527D02*
X7568783Y13417574D01*
X7568783Y13417574D02*
X7606878Y13436622D01*
X7911640Y13074717D02*
X7930687Y13055670D01*
X7930687Y13055670D02*
X7911640Y13036622D01*
X7911640Y13036622D02*
X7892592Y13055670D01*
X7892592Y13055670D02*
X7911640Y13074717D01*
X7911640Y13074717D02*
X7911640Y13036622D01*
X8292592Y13436622D02*
X8102116Y13436622D01*
X8102116Y13436622D02*
X8083068Y13246146D01*
X8083068Y13246146D02*
X8102116Y13265193D01*
X8102116Y13265193D02*
X8140211Y13284241D01*
X8140211Y13284241D02*
X8235449Y13284241D01*
X8235449Y13284241D02*
X8273544Y13265193D01*
X8273544Y13265193D02*
X8292592Y13246146D01*
X8292592Y13246146D02*
X8311639Y13208050D01*
X8311639Y13208050D02*
X8311639Y13112812D01*
X8311639Y13112812D02*
X8292592Y13074717D01*
X8292592Y13074717D02*
X8273544Y13055670D01*
X8273544Y13055670D02*
X8235449Y13036622D01*
X8235449Y13036622D02*
X8140211Y13036622D01*
X8140211Y13036622D02*
X8102116Y13055670D01*
X8102116Y13055670D02*
X8083068Y13074717D01*
X8483068Y13036622D02*
X8483068Y13436622D01*
X8711639Y13036622D02*
X8540210Y13265193D01*
X8711639Y13436622D02*
X8483068Y13208050D01*
X5390611Y9474922D02*
X5162040Y9474922D01*
X5276326Y9474922D02*
X5276326Y9874922D01*
X5276326Y9874922D02*
X5238230Y9817779D01*
X5238230Y9817779D02*
X5200135Y9779684D01*
X5200135Y9779684D02*
X5162040Y9760636D01*
X5562040Y9513017D02*
X5581087Y9493970D01*
X5581087Y9493970D02*
X5562040Y9474922D01*
X5562040Y9474922D02*
X5542992Y9493970D01*
X5542992Y9493970D02*
X5562040Y9513017D01*
X5562040Y9513017D02*
X5562040Y9474922D01*
X5942992Y9874922D02*
X5752516Y9874922D01*
X5752516Y9874922D02*
X5733468Y9684446D01*
X5733468Y9684446D02*
X5752516Y9703493D01*
X5752516Y9703493D02*
X5790611Y9722541D01*
X5790611Y9722541D02*
X5885849Y9722541D01*
X5885849Y9722541D02*
X5923944Y9703493D01*
X5923944Y9703493D02*
X5942992Y9684446D01*
X5942992Y9684446D02*
X5962039Y9646350D01*
X5962039Y9646350D02*
X5962039Y9551112D01*
X5962039Y9551112D02*
X5942992Y9513017D01*
X5942992Y9513017D02*
X5923944Y9493970D01*
X5923944Y9493970D02*
X5885849Y9474922D01*
X5885849Y9474922D02*
X5790611Y9474922D01*
X5790611Y9474922D02*
X5752516Y9493970D01*
X5752516Y9493970D02*
X5733468Y9513017D01*
X6133468Y9474922D02*
X6133468Y9874922D01*
X6362039Y9474922D02*
X6190610Y9703493D01*
X6362039Y9874922D02*
X6133468Y9646350D01*
X5034078Y7588622D02*
X5072173Y7588622D01*
X5072173Y7588622D02*
X5110269Y7569574D01*
X5110269Y7569574D02*
X5129316Y7550527D01*
X5129316Y7550527D02*
X5148364Y7512431D01*
X5148364Y7512431D02*
X5167411Y7436241D01*
X5167411Y7436241D02*
X5167411Y7341003D01*
X5167411Y7341003D02*
X5148364Y7264812D01*
X5148364Y7264812D02*
X5129316Y7226717D01*
X5129316Y7226717D02*
X5110269Y7207670D01*
X5110269Y7207670D02*
X5072173Y7188622D01*
X5072173Y7188622D02*
X5034078Y7188622D01*
X5034078Y7188622D02*
X4995983Y7207670D01*
X4995983Y7207670D02*
X4976935Y7226717D01*
X4976935Y7226717D02*
X4957888Y7264812D01*
X4957888Y7264812D02*
X4938840Y7341003D01*
X4938840Y7341003D02*
X4938840Y7436241D01*
X4938840Y7436241D02*
X4957888Y7512431D01*
X4957888Y7512431D02*
X4976935Y7550527D01*
X4976935Y7550527D02*
X4995983Y7569574D01*
X4995983Y7569574D02*
X5034078Y7588622D01*
X5338840Y7226717D02*
X5357887Y7207670D01*
X5357887Y7207670D02*
X5338840Y7188622D01*
X5338840Y7188622D02*
X5319792Y7207670D01*
X5319792Y7207670D02*
X5338840Y7226717D01*
X5338840Y7226717D02*
X5338840Y7188622D01*
X5719792Y7588622D02*
X5529316Y7588622D01*
X5529316Y7588622D02*
X5510268Y7398146D01*
X5510268Y7398146D02*
X5529316Y7417193D01*
X5529316Y7417193D02*
X5567411Y7436241D01*
X5567411Y7436241D02*
X5662649Y7436241D01*
X5662649Y7436241D02*
X5700744Y7417193D01*
X5700744Y7417193D02*
X5719792Y7398146D01*
X5719792Y7398146D02*
X5738839Y7360050D01*
X5738839Y7360050D02*
X5738839Y7264812D01*
X5738839Y7264812D02*
X5719792Y7226717D01*
X5719792Y7226717D02*
X5700744Y7207670D01*
X5700744Y7207670D02*
X5662649Y7188622D01*
X5662649Y7188622D02*
X5567411Y7188622D01*
X5567411Y7188622D02*
X5529316Y7207670D01*
X5529316Y7207670D02*
X5510268Y7226717D01*
X5910268Y7188622D02*
X5910268Y7588622D01*
X6138839Y7188622D02*
X5967410Y7417193D01*
X6138839Y7588622D02*
X5910268Y7360050D01*
X5006778Y5496822D02*
X5044873Y5496822D01*
X5044873Y5496822D02*
X5082969Y5477774D01*
X5082969Y5477774D02*
X5102016Y5458727D01*
X5102016Y5458727D02*
X5121064Y5420631D01*
X5121064Y5420631D02*
X5140111Y5344441D01*
X5140111Y5344441D02*
X5140111Y5249203D01*
X5140111Y5249203D02*
X5121064Y5173012D01*
X5121064Y5173012D02*
X5102016Y5134917D01*
X5102016Y5134917D02*
X5082969Y5115870D01*
X5082969Y5115870D02*
X5044873Y5096822D01*
X5044873Y5096822D02*
X5006778Y5096822D01*
X5006778Y5096822D02*
X4968683Y5115870D01*
X4968683Y5115870D02*
X4949635Y5134917D01*
X4949635Y5134917D02*
X4930588Y5173012D01*
X4930588Y5173012D02*
X4911540Y5249203D01*
X4911540Y5249203D02*
X4911540Y5344441D01*
X4911540Y5344441D02*
X4930588Y5420631D01*
X4930588Y5420631D02*
X4949635Y5458727D01*
X4949635Y5458727D02*
X4968683Y5477774D01*
X4968683Y5477774D02*
X5006778Y5496822D01*
X5311540Y5134917D02*
X5330587Y5115870D01*
X5330587Y5115870D02*
X5311540Y5096822D01*
X5311540Y5096822D02*
X5292492Y5115870D01*
X5292492Y5115870D02*
X5311540Y5134917D01*
X5311540Y5134917D02*
X5311540Y5096822D01*
X5692492Y5496822D02*
X5502016Y5496822D01*
X5502016Y5496822D02*
X5482968Y5306346D01*
X5482968Y5306346D02*
X5502016Y5325393D01*
X5502016Y5325393D02*
X5540111Y5344441D01*
X5540111Y5344441D02*
X5635349Y5344441D01*
X5635349Y5344441D02*
X5673444Y5325393D01*
X5673444Y5325393D02*
X5692492Y5306346D01*
X5692492Y5306346D02*
X5711539Y5268250D01*
X5711539Y5268250D02*
X5711539Y5173012D01*
X5711539Y5173012D02*
X5692492Y5134917D01*
X5692492Y5134917D02*
X5673444Y5115870D01*
X5673444Y5115870D02*
X5635349Y5096822D01*
X5635349Y5096822D02*
X5540111Y5096822D01*
X5540111Y5096822D02*
X5502016Y5115870D01*
X5502016Y5115870D02*
X5482968Y5134917D01*
X5882968Y5096822D02*
X5882968Y5496822D01*
X6111539Y5096822D02*
X5940110Y5325393D01*
X6111539Y5496822D02*
X5882968Y5268250D01*
X-2514707Y-4155777D02*
X-2248040Y-4155777D01*
X-2248040Y-4155777D02*
X-2419469Y-4555777D01*
X-2095659Y-4517682D02*
X-2076612Y-4536730D01*
X-2076612Y-4536730D02*
X-2095659Y-4555777D01*
X-2095659Y-4555777D02*
X-2114707Y-4536730D01*
X-2114707Y-4536730D02*
X-2095659Y-4517682D01*
X-2095659Y-4517682D02*
X-2095659Y-4555777D01*
X-1714707Y-4155777D02*
X-1905183Y-4155777D01*
X-1905183Y-4155777D02*
X-1924231Y-4346253D01*
X-1924231Y-4346253D02*
X-1905183Y-4327206D01*
X-1905183Y-4327206D02*
X-1867088Y-4308158D01*
X-1867088Y-4308158D02*
X-1771850Y-4308158D01*
X-1771850Y-4308158D02*
X-1733755Y-4327206D01*
X-1733755Y-4327206D02*
X-1714707Y-4346253D01*
X-1714707Y-4346253D02*
X-1695660Y-4384349D01*
X-1695660Y-4384349D02*
X-1695660Y-4479587D01*
X-1695660Y-4479587D02*
X-1714707Y-4517682D01*
X-1714707Y-4517682D02*
X-1733755Y-4536730D01*
X-1733755Y-4536730D02*
X-1771850Y-4555777D01*
X-1771850Y-4555777D02*
X-1867088Y-4555777D01*
X-1867088Y-4555777D02*
X-1905183Y-4536730D01*
X-1905183Y-4536730D02*
X-1924231Y-4517682D01*
X-1524231Y-4555777D02*
X-1524231Y-4155777D01*
X-1295660Y-4555777D02*
X-1467089Y-4327206D01*
X-1295660Y-4155777D02*
X-1524231Y-4384349D01*
X-927507Y-4206877D02*
X-660840Y-4206877D01*
X-660840Y-4206877D02*
X-832269Y-4606877D01*
X-508459Y-4568782D02*
X-489412Y-4587830D01*
X-489412Y-4587830D02*
X-508459Y-4606877D01*
X-508459Y-4606877D02*
X-527507Y-4587830D01*
X-527507Y-4587830D02*
X-508459Y-4568782D01*
X-508459Y-4568782D02*
X-508459Y-4606877D01*
X-127507Y-4206877D02*
X-317983Y-4206877D01*
X-317983Y-4206877D02*
X-337031Y-4397353D01*
X-337031Y-4397353D02*
X-317983Y-4378306D01*
X-317983Y-4378306D02*
X-279888Y-4359258D01*
X-279888Y-4359258D02*
X-184650Y-4359258D01*
X-184650Y-4359258D02*
X-146555Y-4378306D01*
X-146555Y-4378306D02*
X-127507Y-4397353D01*
X-127507Y-4397353D02*
X-108460Y-4435449D01*
X-108460Y-4435449D02*
X-108460Y-4530687D01*
X-108460Y-4530687D02*
X-127507Y-4568782D01*
X-127507Y-4568782D02*
X-146555Y-4587830D01*
X-146555Y-4587830D02*
X-184650Y-4606877D01*
X-184650Y-4606877D02*
X-279888Y-4606877D01*
X-279888Y-4606877D02*
X-317983Y-4587830D01*
X-317983Y-4587830D02*
X-337031Y-4568782D01*
X62968Y-4606877D02*
X62968Y-4206877D01*
X291539Y-4606877D02*
X120110Y-4378306D01*
X291539Y-4206877D02*
X62968Y-4435449D01*
D16*
%TO.C,*%
X11480801Y-6451402D02*
X11443960Y-6456872D01*
X11443960Y-6456872D02*
X11408076Y-6466848D01*
X11408076Y-6466848D02*
X11373699Y-6481178D01*
X11373699Y-6481178D02*
X11341353Y-6499642D01*
X11341353Y-6499642D02*
X11311535Y-6521959D01*
X11311535Y-6521959D02*
X11284700Y-6547786D01*
X11284700Y-6547786D02*
X11261258Y-6576728D01*
X11261258Y-6576728D02*
X11241570Y-6608344D01*
X11241570Y-6608344D02*
X11225935Y-6642148D01*
X11225935Y-6642148D02*
X11214593Y-6677623D01*
X11214593Y-6677623D02*
X11207718Y-6714228D01*
X11207718Y-6714228D02*
X11205414Y-6751401D01*
X11205414Y-6751401D02*
X11207717Y-6788575D01*
X11207717Y-6788575D02*
X11214593Y-6825179D01*
X11214593Y-6825179D02*
X11225934Y-6860655D01*
X11225934Y-6860655D02*
X11241569Y-6894459D01*
X11241569Y-6894459D02*
X11261257Y-6926075D01*
X11261257Y-6926075D02*
X11284699Y-6955017D01*
X11284699Y-6955017D02*
X11311534Y-6980845D01*
X11311534Y-6980845D02*
X11341352Y-7003161D01*
X11341352Y-7003161D02*
X11373697Y-7021626D01*
X11373697Y-7021626D02*
X11408075Y-7035956D01*
X11408075Y-7035956D02*
X11443958Y-7045932D01*
X11443958Y-7045932D02*
X11480799Y-7051402D01*
D17*
X9855801Y-6476398D02*
X9891695Y-6478751D01*
X9891695Y-6478751D02*
X9926976Y-6485768D01*
X9926976Y-6485768D02*
X9961039Y-6497331D01*
X9961039Y-6497331D02*
X9993301Y-6513241D01*
X9993301Y-6513241D02*
X10023210Y-6533226D01*
X10023210Y-6533226D02*
X10050255Y-6556944D01*
X10050255Y-6556944D02*
X10073973Y-6583989D01*
X10073973Y-6583989D02*
X10093957Y-6613898D01*
X10093957Y-6613898D02*
X10109867Y-6646161D01*
X10109867Y-6646161D02*
X10121430Y-6680223D01*
X10121430Y-6680223D02*
X10128447Y-6715504D01*
X10128447Y-6715504D02*
X10130800Y-6751399D01*
X10130800Y-6751399D02*
X10128447Y-6787293D01*
X10128447Y-6787293D02*
X10121429Y-6822574D01*
X10121429Y-6822574D02*
X10109867Y-6856636D01*
X10109867Y-6856636D02*
X10093957Y-6888898D01*
X10093957Y-6888898D02*
X10073972Y-6918808D01*
X10073972Y-6918808D02*
X10050254Y-6945853D01*
X10050254Y-6945853D02*
X10023209Y-6969570D01*
X10023209Y-6969570D02*
X9993299Y-6989555D01*
X9993299Y-6989555D02*
X9961037Y-7005465D01*
X9961037Y-7005465D02*
X9926975Y-7017028D01*
X9926975Y-7017028D02*
X9891694Y-7024045D01*
X9891694Y-7024045D02*
X9855799Y-7026398D01*
X11235801Y-6401401D02*
X11238186Y-6383284D01*
X11238186Y-6383284D02*
X11245179Y-6366401D01*
X11245179Y-6366401D02*
X11256304Y-6351904D01*
X11256304Y-6351904D02*
X11270801Y-6340780D01*
X11270801Y-6340780D02*
X11287684Y-6333787D01*
X11287684Y-6333787D02*
X11305801Y-6331402D01*
X11305801Y-6331402D02*
X11323918Y-6333787D01*
X11323918Y-6333787D02*
X11340801Y-6340780D01*
X11340801Y-6340780D02*
X11355299Y-6351904D01*
X11355299Y-6351904D02*
X11366423Y-6366402D01*
X11366423Y-6366402D02*
X11373416Y-6383285D01*
X11373416Y-6383285D02*
X11375801Y-6401402D01*
X11375801Y-6401402D02*
X11373416Y-6419519D01*
X11373416Y-6419519D02*
X11366423Y-6436402D01*
X11366423Y-6436402D02*
X11355298Y-6450899D01*
X11355298Y-6450899D02*
X11340801Y-6462024D01*
X11340801Y-6462024D02*
X11323918Y-6469017D01*
X11323918Y-6469017D02*
X11305801Y-6471402D01*
X11305801Y-6471402D02*
X11287683Y-6469016D01*
X11287683Y-6469016D02*
X11270801Y-6462023D01*
X11270801Y-6462023D02*
X11256303Y-6450899D01*
X11256303Y-6450899D02*
X11245179Y-6436401D01*
X11245179Y-6436401D02*
X11238186Y-6419519D01*
X11238186Y-6419519D02*
X11235801Y-6401401D01*
D16*
X11030799Y-7151401D02*
X10330799Y-7151399D01*
X11055801Y-6351401D02*
X10330801Y-6351399D01*
D18*
X12250799Y-7151404D02*
X12255229Y-7117758D01*
X12255229Y-7117758D02*
X12268216Y-7086404D01*
X12268216Y-7086404D02*
X12288875Y-7059480D01*
X12288875Y-7059480D02*
X12315799Y-7038821D01*
X12315799Y-7038821D02*
X12347153Y-7025834D01*
X12347153Y-7025834D02*
X12380799Y-7021405D01*
X12380799Y-7021405D02*
X12414446Y-7025834D01*
X12414446Y-7025834D02*
X12445799Y-7038821D01*
X12445799Y-7038821D02*
X12472723Y-7059481D01*
X12472723Y-7059481D02*
X12493382Y-7086405D01*
X12493382Y-7086405D02*
X12506369Y-7117758D01*
X12506369Y-7117758D02*
X12510799Y-7151405D01*
X12510799Y-7151405D02*
X12506369Y-7185051D01*
X12506369Y-7185051D02*
X12493382Y-7216405D01*
X12493382Y-7216405D02*
X12472723Y-7243329D01*
X12472723Y-7243329D02*
X12445799Y-7263988D01*
X12445799Y-7263988D02*
X12414445Y-7276975D01*
X12414445Y-7276975D02*
X12380799Y-7281405D01*
X12380799Y-7281405D02*
X12347152Y-7276975D01*
X12347152Y-7276975D02*
X12315799Y-7263988D01*
X12315799Y-7263988D02*
X12288875Y-7243328D01*
X12288875Y-7243328D02*
X12268215Y-7216404D01*
X12268215Y-7216404D02*
X12255228Y-7185051D01*
X12255228Y-7185051D02*
X12250799Y-7151404D01*
D19*
X-11547503Y4677099D02*
X-9047503Y4677102D01*
X-9047503Y4677102D02*
X-9047502Y3627102D01*
X-9047502Y3627102D02*
X-8057502Y3627103D01*
X-11547497Y-1542901D02*
X-9047497Y-1542898D01*
X-9047497Y-1542898D02*
X-9047498Y-492898D01*
X-13517502Y3507097D02*
X-13517498Y-372903D01*
D18*
X11410800Y-10099400D02*
X11410800Y-9599400D01*
X11410800Y-9599400D02*
X12410800Y-9599400D01*
X12410800Y-9599400D02*
X12410800Y-10099400D01*
X12410800Y-10099400D02*
X11410800Y-10099400D01*
D19*
X11803000Y-9489400D02*
X12018600Y-9489400D01*
X11803000Y-10209400D02*
X12018600Y-10209400D01*
D20*
X11000800Y-10309400D02*
X11000800Y-9389400D01*
X11000800Y-9389400D02*
X12820800Y-9389400D01*
X12820800Y-9389400D02*
X12820800Y-10309400D01*
X12820800Y-10309400D02*
X11000800Y-10309400D01*
D16*
X4385400Y11755900D02*
X4422241Y11761370D01*
X4422241Y11761370D02*
X4458125Y11771346D01*
X4458125Y11771346D02*
X4492502Y11785676D01*
X4492502Y11785676D02*
X4524848Y11804140D01*
X4524848Y11804140D02*
X4554666Y11826457D01*
X4554666Y11826457D02*
X4581501Y11852284D01*
X4581501Y11852284D02*
X4604942Y11881227D01*
X4604942Y11881227D02*
X4624631Y11912842D01*
X4624631Y11912842D02*
X4640265Y11946646D01*
X4640265Y11946646D02*
X4651607Y11982122D01*
X4651607Y11982122D02*
X4658483Y12018727D01*
X4658483Y12018727D02*
X4660786Y12055900D01*
X4660786Y12055900D02*
X4658483Y12093073D01*
X4658483Y12093073D02*
X4651607Y12129678D01*
X4651607Y12129678D02*
X4640265Y12165154D01*
X4640265Y12165154D02*
X4624631Y12198958D01*
X4624631Y12198958D02*
X4604942Y12230573D01*
X4604942Y12230573D02*
X4581501Y12259516D01*
X4581501Y12259516D02*
X4554666Y12285343D01*
X4554666Y12285343D02*
X4524848Y12307660D01*
X4524848Y12307660D02*
X4492502Y12326124D01*
X4492502Y12326124D02*
X4458125Y12340454D01*
X4458125Y12340454D02*
X4422241Y12350430D01*
X4422241Y12350430D02*
X4385400Y12355900D01*
D17*
X6010400Y11780900D02*
X5974505Y11783253D01*
X5974505Y11783253D02*
X5939225Y11790270D01*
X5939225Y11790270D02*
X5905162Y11801833D01*
X5905162Y11801833D02*
X5872900Y11817743D01*
X5872900Y11817743D02*
X5842991Y11837728D01*
X5842991Y11837728D02*
X5815946Y11861446D01*
X5815946Y11861446D02*
X5792228Y11888491D01*
X5792228Y11888491D02*
X5772243Y11918400D01*
X5772243Y11918400D02*
X5756333Y11950662D01*
X5756333Y11950662D02*
X5744770Y11984725D01*
X5744770Y11984725D02*
X5737753Y12020005D01*
X5737753Y12020005D02*
X5735400Y12055900D01*
X5735400Y12055900D02*
X5737753Y12091795D01*
X5737753Y12091795D02*
X5744770Y12127075D01*
X5744770Y12127075D02*
X5756333Y12161138D01*
X5756333Y12161138D02*
X5772243Y12193400D01*
X5772243Y12193400D02*
X5792228Y12223309D01*
X5792228Y12223309D02*
X5815946Y12250354D01*
X5815946Y12250354D02*
X5842991Y12274072D01*
X5842991Y12274072D02*
X5872900Y12294057D01*
X5872900Y12294057D02*
X5905162Y12309967D01*
X5905162Y12309967D02*
X5939225Y12321530D01*
X5939225Y12321530D02*
X5974505Y12328547D01*
X5974505Y12328547D02*
X6010400Y12330900D01*
X4630400Y11705900D02*
X4628015Y11687783D01*
X4628015Y11687783D02*
X4621022Y11670900D01*
X4621022Y11670900D02*
X4609897Y11656403D01*
X4609897Y11656403D02*
X4595400Y11645278D01*
X4595400Y11645278D02*
X4578517Y11638285D01*
X4578517Y11638285D02*
X4560400Y11635900D01*
X4560400Y11635900D02*
X4542283Y11638285D01*
X4542283Y11638285D02*
X4525400Y11645278D01*
X4525400Y11645278D02*
X4510903Y11656403D01*
X4510903Y11656403D02*
X4499778Y11670900D01*
X4499778Y11670900D02*
X4492785Y11687783D01*
X4492785Y11687783D02*
X4490400Y11705900D01*
X4490400Y11705900D02*
X4492785Y11724017D01*
X4492785Y11724017D02*
X4499778Y11740900D01*
X4499778Y11740900D02*
X4510903Y11755397D01*
X4510903Y11755397D02*
X4525400Y11766522D01*
X4525400Y11766522D02*
X4542283Y11773515D01*
X4542283Y11773515D02*
X4560400Y11775900D01*
X4560400Y11775900D02*
X4578517Y11773515D01*
X4578517Y11773515D02*
X4595400Y11766522D01*
X4595400Y11766522D02*
X4609897Y11755397D01*
X4609897Y11755397D02*
X4621022Y11740900D01*
X4621022Y11740900D02*
X4628015Y11724017D01*
X4628015Y11724017D02*
X4630400Y11705900D01*
D16*
X4835400Y12455900D02*
X5535400Y12455900D01*
X4810400Y11655900D02*
X5535400Y11655900D01*
D18*
X3615400Y12455900D02*
X3610970Y12422254D01*
X3610970Y12422254D02*
X3597983Y12390900D01*
X3597983Y12390900D02*
X3577324Y12363976D01*
X3577324Y12363976D02*
X3550400Y12343317D01*
X3550400Y12343317D02*
X3519046Y12330330D01*
X3519046Y12330330D02*
X3485400Y12325900D01*
X3485400Y12325900D02*
X3451754Y12330330D01*
X3451754Y12330330D02*
X3420400Y12343317D01*
X3420400Y12343317D02*
X3393476Y12363976D01*
X3393476Y12363976D02*
X3372817Y12390900D01*
X3372817Y12390900D02*
X3359830Y12422254D01*
X3359830Y12422254D02*
X3355400Y12455900D01*
X3355400Y12455900D02*
X3359830Y12489546D01*
X3359830Y12489546D02*
X3372817Y12520900D01*
X3372817Y12520900D02*
X3393476Y12547824D01*
X3393476Y12547824D02*
X3420400Y12568483D01*
X3420400Y12568483D02*
X3451754Y12581470D01*
X3451754Y12581470D02*
X3485400Y12585900D01*
X3485400Y12585900D02*
X3519046Y12581470D01*
X3519046Y12581470D02*
X3550400Y12568483D01*
X3550400Y12568483D02*
X3577324Y12547824D01*
X3577324Y12547824D02*
X3597983Y12520900D01*
X3597983Y12520900D02*
X3610970Y12489546D01*
X3610970Y12489546D02*
X3615400Y12455900D01*
D19*
X-11547503Y13000899D02*
X-9047503Y13000902D01*
X-9047503Y13000902D02*
X-9047502Y11950902D01*
X-9047502Y11950902D02*
X-8057502Y11950903D01*
X-11547497Y6780899D02*
X-9047497Y6780902D01*
X-9047497Y6780902D02*
X-9047498Y7830902D01*
X-13517502Y11830897D02*
X-13517498Y7950897D01*
X7584900Y7906600D02*
X8059500Y7906600D01*
X7584900Y6861600D02*
X8059500Y6861600D01*
X3847600Y8740300D02*
X4063200Y8740300D01*
X3847600Y8020300D02*
X4063200Y8020300D01*
D16*
X11480801Y-3616802D02*
X11443960Y-3622272D01*
X11443960Y-3622272D02*
X11408076Y-3632248D01*
X11408076Y-3632248D02*
X11373699Y-3646578D01*
X11373699Y-3646578D02*
X11341353Y-3665042D01*
X11341353Y-3665042D02*
X11311535Y-3687359D01*
X11311535Y-3687359D02*
X11284700Y-3713186D01*
X11284700Y-3713186D02*
X11261258Y-3742128D01*
X11261258Y-3742128D02*
X11241570Y-3773744D01*
X11241570Y-3773744D02*
X11225935Y-3807548D01*
X11225935Y-3807548D02*
X11214593Y-3843023D01*
X11214593Y-3843023D02*
X11207718Y-3879628D01*
X11207718Y-3879628D02*
X11205414Y-3916801D01*
X11205414Y-3916801D02*
X11207717Y-3953975D01*
X11207717Y-3953975D02*
X11214593Y-3990579D01*
X11214593Y-3990579D02*
X11225934Y-4026055D01*
X11225934Y-4026055D02*
X11241569Y-4059859D01*
X11241569Y-4059859D02*
X11261257Y-4091475D01*
X11261257Y-4091475D02*
X11284699Y-4120417D01*
X11284699Y-4120417D02*
X11311534Y-4146245D01*
X11311534Y-4146245D02*
X11341352Y-4168561D01*
X11341352Y-4168561D02*
X11373697Y-4187026D01*
X11373697Y-4187026D02*
X11408075Y-4201356D01*
X11408075Y-4201356D02*
X11443958Y-4211332D01*
X11443958Y-4211332D02*
X11480799Y-4216802D01*
D17*
X9855801Y-3641798D02*
X9891695Y-3644151D01*
X9891695Y-3644151D02*
X9926976Y-3651168D01*
X9926976Y-3651168D02*
X9961039Y-3662731D01*
X9961039Y-3662731D02*
X9993301Y-3678641D01*
X9993301Y-3678641D02*
X10023210Y-3698626D01*
X10023210Y-3698626D02*
X10050255Y-3722344D01*
X10050255Y-3722344D02*
X10073973Y-3749389D01*
X10073973Y-3749389D02*
X10093957Y-3779298D01*
X10093957Y-3779298D02*
X10109867Y-3811561D01*
X10109867Y-3811561D02*
X10121430Y-3845623D01*
X10121430Y-3845623D02*
X10128447Y-3880904D01*
X10128447Y-3880904D02*
X10130800Y-3916799D01*
X10130800Y-3916799D02*
X10128447Y-3952693D01*
X10128447Y-3952693D02*
X10121429Y-3987974D01*
X10121429Y-3987974D02*
X10109867Y-4022036D01*
X10109867Y-4022036D02*
X10093957Y-4054298D01*
X10093957Y-4054298D02*
X10073972Y-4084208D01*
X10073972Y-4084208D02*
X10050254Y-4111253D01*
X10050254Y-4111253D02*
X10023209Y-4134970D01*
X10023209Y-4134970D02*
X9993299Y-4154955D01*
X9993299Y-4154955D02*
X9961037Y-4170865D01*
X9961037Y-4170865D02*
X9926975Y-4182428D01*
X9926975Y-4182428D02*
X9891694Y-4189445D01*
X9891694Y-4189445D02*
X9855799Y-4191798D01*
X11235801Y-3566801D02*
X11238186Y-3548684D01*
X11238186Y-3548684D02*
X11245179Y-3531801D01*
X11245179Y-3531801D02*
X11256304Y-3517304D01*
X11256304Y-3517304D02*
X11270801Y-3506180D01*
X11270801Y-3506180D02*
X11287684Y-3499187D01*
X11287684Y-3499187D02*
X11305801Y-3496802D01*
X11305801Y-3496802D02*
X11323918Y-3499187D01*
X11323918Y-3499187D02*
X11340801Y-3506180D01*
X11340801Y-3506180D02*
X11355299Y-3517304D01*
X11355299Y-3517304D02*
X11366423Y-3531802D01*
X11366423Y-3531802D02*
X11373416Y-3548685D01*
X11373416Y-3548685D02*
X11375801Y-3566802D01*
X11375801Y-3566802D02*
X11373416Y-3584919D01*
X11373416Y-3584919D02*
X11366423Y-3601802D01*
X11366423Y-3601802D02*
X11355298Y-3616299D01*
X11355298Y-3616299D02*
X11340801Y-3627424D01*
X11340801Y-3627424D02*
X11323918Y-3634417D01*
X11323918Y-3634417D02*
X11305801Y-3636802D01*
X11305801Y-3636802D02*
X11287683Y-3634416D01*
X11287683Y-3634416D02*
X11270801Y-3627423D01*
X11270801Y-3627423D02*
X11256303Y-3616299D01*
X11256303Y-3616299D02*
X11245179Y-3601801D01*
X11245179Y-3601801D02*
X11238186Y-3584919D01*
X11238186Y-3584919D02*
X11235801Y-3566801D01*
D16*
X11030799Y-4316801D02*
X10330799Y-4316799D01*
X11055801Y-3516801D02*
X10330801Y-3516799D01*
D18*
X12250799Y-4316804D02*
X12255229Y-4283158D01*
X12255229Y-4283158D02*
X12268216Y-4251804D01*
X12268216Y-4251804D02*
X12288875Y-4224880D01*
X12288875Y-4224880D02*
X12315799Y-4204221D01*
X12315799Y-4204221D02*
X12347153Y-4191234D01*
X12347153Y-4191234D02*
X12380799Y-4186805D01*
X12380799Y-4186805D02*
X12414446Y-4191234D01*
X12414446Y-4191234D02*
X12445799Y-4204221D01*
X12445799Y-4204221D02*
X12472723Y-4224881D01*
X12472723Y-4224881D02*
X12493382Y-4251805D01*
X12493382Y-4251805D02*
X12506369Y-4283158D01*
X12506369Y-4283158D02*
X12510799Y-4316805D01*
X12510799Y-4316805D02*
X12506369Y-4350451D01*
X12506369Y-4350451D02*
X12493382Y-4381805D01*
X12493382Y-4381805D02*
X12472723Y-4408729D01*
X12472723Y-4408729D02*
X12445799Y-4429388D01*
X12445799Y-4429388D02*
X12414445Y-4442375D01*
X12414445Y-4442375D02*
X12380799Y-4446805D01*
X12380799Y-4446805D02*
X12347152Y-4442375D01*
X12347152Y-4442375D02*
X12315799Y-4429388D01*
X12315799Y-4429388D02*
X12288875Y-4408728D01*
X12288875Y-4408728D02*
X12268215Y-4381804D01*
X12268215Y-4381804D02*
X12255228Y-4350451D01*
X12255228Y-4350451D02*
X12250799Y-4316804D01*
D19*
X-6300Y-5686600D02*
X-6300Y-5993800D01*
X-766300Y-5686600D02*
X-766300Y-5993800D01*
D21*
X-4034600Y5970300D02*
X-4038007Y5944418D01*
X-4038007Y5944418D02*
X-4047997Y5920300D01*
X-4047997Y5920300D02*
X-4063889Y5899589D01*
X-4063889Y5899589D02*
X-4084600Y5883697D01*
X-4084600Y5883697D02*
X-4108718Y5873707D01*
X-4108718Y5873707D02*
X-4134600Y5870300D01*
X-4134600Y5870300D02*
X-4160482Y5873707D01*
X-4160482Y5873707D02*
X-4184600Y5883697D01*
X-4184600Y5883697D02*
X-4205311Y5899589D01*
X-4205311Y5899589D02*
X-4221203Y5920300D01*
X-4221203Y5920300D02*
X-4231193Y5944418D01*
X-4231193Y5944418D02*
X-4234600Y5970300D01*
X-4234600Y5970300D02*
X-4231193Y5996182D01*
X-4231193Y5996182D02*
X-4221203Y6020300D01*
X-4221203Y6020300D02*
X-4205311Y6041011D01*
X-4205311Y6041011D02*
X-4184600Y6056903D01*
X-4184600Y6056903D02*
X-4160482Y6066893D01*
X-4160482Y6066893D02*
X-4134600Y6070300D01*
X-4134600Y6070300D02*
X-4108718Y6066893D01*
X-4108718Y6066893D02*
X-4084600Y6056903D01*
X-4084600Y6056903D02*
X-4063889Y6041011D01*
X-4063889Y6041011D02*
X-4047997Y6020300D01*
X-4047997Y6020300D02*
X-4038007Y5996182D01*
X-4038007Y5996182D02*
X-4034600Y5970300D01*
D22*
X-3384600Y6470300D02*
X-384600Y6470300D01*
X-384600Y6470300D02*
X-384600Y3470300D01*
X-384600Y3470300D02*
X-3384600Y3470300D01*
X-3384600Y3470300D02*
X-3384600Y6470300D01*
D21*
X-4034600Y5970300D02*
X-4038007Y5944418D01*
X-4038007Y5944418D02*
X-4047997Y5920300D01*
X-4047997Y5920300D02*
X-4063889Y5899589D01*
X-4063889Y5899589D02*
X-4084600Y5883697D01*
X-4084600Y5883697D02*
X-4108718Y5873707D01*
X-4108718Y5873707D02*
X-4134600Y5870300D01*
X-4134600Y5870300D02*
X-4160482Y5873707D01*
X-4160482Y5873707D02*
X-4184600Y5883697D01*
X-4184600Y5883697D02*
X-4205311Y5899589D01*
X-4205311Y5899589D02*
X-4221203Y5920300D01*
X-4221203Y5920300D02*
X-4231193Y5944418D01*
X-4231193Y5944418D02*
X-4234600Y5970300D01*
X-4234600Y5970300D02*
X-4231193Y5996182D01*
X-4231193Y5996182D02*
X-4221203Y6020300D01*
X-4221203Y6020300D02*
X-4205311Y6041011D01*
X-4205311Y6041011D02*
X-4184600Y6056903D01*
X-4184600Y6056903D02*
X-4160482Y6066893D01*
X-4160482Y6066893D02*
X-4134600Y6070300D01*
X-4134600Y6070300D02*
X-4108718Y6066893D01*
X-4108718Y6066893D02*
X-4084600Y6056903D01*
X-4084600Y6056903D02*
X-4063889Y6041011D01*
X-4063889Y6041011D02*
X-4047997Y6020300D01*
X-4047997Y6020300D02*
X-4038007Y5996182D01*
X-4038007Y5996182D02*
X-4034600Y5970300D01*
D20*
X-3784600Y6870300D02*
X15400Y6870300D01*
X15400Y6870300D02*
X15400Y3070300D01*
X15400Y3070300D02*
X-3784600Y3070300D01*
X-3784600Y3070300D02*
X-3784600Y6870300D01*
D22*
X-3349600Y6635300D02*
X-3540600Y6635300D01*
X-3540600Y6635300D02*
X-3540600Y6435300D01*
X-419600Y6635300D02*
X-219600Y6635300D01*
X-219600Y6635300D02*
X-219600Y6435300D01*
X-3549600Y3505300D02*
X-3549600Y3305300D01*
X-3549600Y3305300D02*
X-3349600Y3305300D01*
X-419600Y3305300D02*
X-219600Y3305300D01*
X-219600Y3305300D02*
X-219600Y3505300D01*
D20*
X8300396Y3260803D02*
X8300404Y-4189197D01*
X8300404Y-4189197D02*
X2800404Y-4189203D01*
X2800404Y-4189203D02*
X2800396Y3260797D01*
X2800396Y3260797D02*
X8300396Y3260803D01*
D21*
X8130396Y3010803D02*
X8130398Y1485803D01*
D19*
X8059499Y9150799D02*
X7584899Y9150801D01*
X8059501Y10195799D02*
X7584901Y10195801D01*
X11803000Y-11235700D02*
X12018600Y-11235700D01*
X11803000Y-11955700D02*
X12018600Y-11955700D01*
D18*
X7054200Y-10908000D02*
X7054200Y-9658000D01*
X7054200Y-9658000D02*
X9054200Y-9658000D01*
X9054200Y-9658000D02*
X9054200Y-10908000D01*
X9054200Y-10908000D02*
X7054200Y-10908000D01*
D19*
X7385500Y5697200D02*
X7860100Y5697200D01*
X7385500Y4652200D02*
X7860100Y4652200D01*
D22*
X-6767502Y-4090197D02*
X-6767495Y-11090197D01*
X-6767495Y-11090197D02*
X-13767495Y-11090204D01*
X-13767495Y-11090204D02*
X-13767502Y-4090204D01*
X-13767502Y-4090204D02*
X-6767502Y-4090197D01*
X-13767500Y-5840204D02*
X-11767500Y-5840202D01*
X-13767496Y-9340204D02*
X-11767496Y-9340202D01*
D19*
X-1504600Y-5686600D02*
X-1504600Y-5993800D01*
X-2264600Y-5686600D02*
X-2264600Y-5993800D01*
X8416499Y11533399D02*
X7941899Y11533401D01*
X8416501Y12578399D02*
X7941901Y12578401D01*
%TD*%
M02*
