%TF.GenerationSoftware,Flux,Pcbnew,7.0.11-7.0.11~ubuntu20.04.1*%
%TF.CreationDate,2025-02-06T22:25:38+00:00*%
%TF.ProjectId,input,696e7075-742e-46b6-9963-61645f706362,rev?*%
%TF.SameCoordinates,Original*%
%TF.FileFunction,Paste,Top*%
%TF.FilePolarity,Positive*%
%FSLAX46Y46*%
G04 Gerber Fmt 4.6, Leading zero omitted, Abs format (unit mm)*
G04 Filename: driverv4release*
G04 Build it with Flux! Visit our site at: https://www.flux.ai (PCBNEW 7.0.11-7.0.11~ubuntu20.04.1) date 2025-02-06 22:25:38*
%MOMM*%
%LPD*%
G01*
G04 APERTURE LIST*
G04 Aperture macros list*
%AMFreePoly0*
4,1,5,0.400000,-0.400000,-0.400000,-0.400000,-0.400000,0.400000,0.400000,0.400000,0.400000,-0.400000,0.400000,-0.400000,$1*%
%AMFreePoly1*
4,1,101,0.191400,0.774751,0.198967,0.774006,0.206469,0.772767,0.213875,0.771041,0.221151,0.768833,0.228268,0.766155,0.235194,0.763017,0.241900,0.759432,0.248357,0.755417,0.254538,0.750988,0.260416,0.746164,0.265966,0.740966,0.271164,0.735416,0.275988,0.729538,0.280417,0.723357,0.284432,0.716900,0.288017,0.710194,0.291155,0.703268,0.293833,0.696151,0.296041,0.688875,
0.297767,0.681469,0.299006,0.673967,0.299751,0.666400,0.300000,0.658800,0.300000,-0.658800,0.299751,-0.666400,0.299006,-0.673967,0.297767,-0.681469,0.296041,-0.688875,0.293833,-0.696151,0.291155,-0.703268,0.288017,-0.710194,0.284432,-0.716900,0.280417,-0.723357,0.275988,-0.729538,0.271164,-0.735416,0.265966,-0.740966,0.260416,-0.746164,0.254538,-0.750988,0.248357,-0.755417,
0.241900,-0.759432,0.235194,-0.763017,0.228268,-0.766155,0.221151,-0.768833,0.213875,-0.771041,0.206469,-0.772767,0.198967,-0.774006,0.191400,-0.774751,0.183800,-0.775000,-0.183800,-0.775000,-0.191400,-0.774751,-0.198967,-0.774006,-0.206469,-0.772767,-0.213875,-0.771041,-0.221151,-0.768833,-0.228268,-0.766155,-0.235194,-0.763017,-0.241900,-0.759432,-0.248357,-0.755417,-0.254538,-0.750988,
-0.260416,-0.746164,-0.265966,-0.740966,-0.271164,-0.735416,-0.275988,-0.729538,-0.280417,-0.723357,-0.284432,-0.716900,-0.288017,-0.710194,-0.291155,-0.703268,-0.293833,-0.696151,-0.296041,-0.688875,-0.297767,-0.681469,-0.299006,-0.673967,-0.299751,-0.666400,-0.300000,-0.658800,-0.300000,0.658800,-0.299751,0.666400,-0.299006,0.673967,-0.297767,0.681469,-0.296041,0.688875,-0.293833,0.696151,
-0.291155,0.703268,-0.288017,0.710194,-0.284432,0.716900,-0.280417,0.723357,-0.275988,0.729538,-0.271164,0.735416,-0.265966,0.740966,-0.260416,0.746164,-0.254538,0.750988,-0.248357,0.755417,-0.241900,0.759432,-0.235194,0.763017,-0.228268,0.766155,-0.221151,0.768833,-0.213875,0.771041,-0.206469,0.772767,-0.198967,0.774006,-0.191400,0.774751,-0.183800,0.775000,0.183800,0.775000,
0.191400,0.774751,0.191400,0.774751,$1*%
%AMFreePoly2*
4,1,101,0.473829,0.899711,0.482621,0.898845,0.491337,0.897406,0.499941,0.895400,0.508394,0.892836,0.516662,0.889724,0.524709,0.886078,0.532500,0.881913,0.540002,0.877248,0.547183,0.872103,0.554012,0.866498,0.560459,0.860459,0.566498,0.854012,0.572103,0.847183,0.577248,0.840002,0.581913,0.832500,0.586078,0.824709,0.589724,0.816662,0.592836,0.808394,0.595400,0.799941,
0.597406,0.791337,0.598845,0.782621,0.599711,0.773829,0.600000,0.765000,0.600000,-0.765000,0.599711,-0.773829,0.598845,-0.782621,0.597406,-0.791337,0.595400,-0.799941,0.592836,-0.808394,0.589724,-0.816662,0.586078,-0.824709,0.581913,-0.832500,0.577248,-0.840002,0.572103,-0.847183,0.566498,-0.854012,0.560459,-0.860459,0.554012,-0.866498,0.547183,-0.872103,0.540002,-0.877248,
0.532500,-0.881913,0.524709,-0.886078,0.516662,-0.889724,0.508394,-0.892836,0.499941,-0.895400,0.491337,-0.897406,0.482621,-0.898845,0.473829,-0.899711,0.465000,-0.900000,-0.465000,-0.900000,-0.473829,-0.899711,-0.482621,-0.898845,-0.491337,-0.897406,-0.499941,-0.895400,-0.508394,-0.892836,-0.516662,-0.889724,-0.524709,-0.886078,-0.532500,-0.881913,-0.540002,-0.877248,-0.547183,-0.872103,
-0.554012,-0.866498,-0.560459,-0.860459,-0.566498,-0.854012,-0.572103,-0.847183,-0.577248,-0.840002,-0.581913,-0.832500,-0.586078,-0.824709,-0.589724,-0.816662,-0.592836,-0.808394,-0.595400,-0.799941,-0.597406,-0.791337,-0.598845,-0.782621,-0.599711,-0.773829,-0.600000,-0.765000,-0.600000,0.765000,-0.599711,0.773829,-0.598845,0.782621,-0.597406,0.791337,-0.595400,0.799941,-0.592836,0.808394,
-0.589724,0.816662,-0.586078,0.824709,-0.581913,0.832500,-0.577248,0.840002,-0.572103,0.847183,-0.566498,0.854012,-0.560459,0.860459,-0.554012,0.866498,-0.547183,0.872103,-0.540002,0.877248,-0.532500,0.881913,-0.524709,0.886078,-0.516662,0.889724,-0.508394,0.892836,-0.499941,0.895400,-0.491337,0.897406,-0.482621,0.898845,-0.473829,0.899711,-0.465000,0.900000,0.465000,0.900000,
0.473829,0.899711,0.473829,0.899711,$1*%
%AMFreePoly3*
4,1,65,0.057738,0.389241,0.095613,0.381707,0.132566,0.370498,0.168243,0.355720,0.202299,0.337516,0.234408,0.316062,0.264258,0.291564,0.291564,0.264258,0.316062,0.234408,0.337516,0.202299,0.355720,0.168243,0.370498,0.132566,0.381707,0.095613,0.389241,0.057738,0.393026,0.019308,0.393026,-0.019308,0.389241,-0.057738,0.381707,-0.095613,0.370498,-0.132566,0.355720,-0.168243,
0.337516,-0.202299,0.316062,-0.234408,0.291564,-0.264258,0.264258,-0.291564,0.234408,-0.316062,0.202299,-0.337516,0.168243,-0.355720,0.132566,-0.370498,0.095613,-0.381707,0.057738,-0.389241,0.019308,-0.393026,-0.019308,-0.393026,-0.057738,-0.389241,-0.095613,-0.381707,-0.132566,-0.370498,-0.168243,-0.355720,-0.202299,-0.337516,-0.234408,-0.316062,-0.264258,-0.291564,-0.291564,-0.264258,
-0.316062,-0.234408,-0.337516,-0.202299,-0.355720,-0.168243,-0.370498,-0.132566,-0.381707,-0.095613,-0.389241,-0.057738,-0.393026,-0.019308,-0.393026,0.019308,-0.389241,0.057738,-0.381707,0.095613,-0.370498,0.132566,-0.355720,0.168243,-0.337516,0.202299,-0.316062,0.234408,-0.291564,0.264258,-0.264258,0.291564,-0.234408,0.316062,-0.202299,0.337516,-0.168243,0.355720,-0.132566,0.370498,
-0.095613,0.381707,-0.057738,0.389241,-0.019308,0.393026,0.019308,0.393026,0.057738,0.389241,0.057738,0.389241,$1*%
%AMFreePoly4*
4,1,5,0.280000,-0.310000,-0.280000,-0.310000,-0.280000,0.310000,0.280000,0.310000,0.280000,-0.310000,0.280000,-0.310000,$1*%
%AMFreePoly5*
4,1,101,0.333457,0.474848,0.338093,0.474391,0.342690,0.473632,0.347228,0.472574,0.351686,0.471221,0.356047,0.469580,0.360291,0.467657,0.364400,0.465461,0.368357,0.463001,0.372144,0.460287,0.375745,0.457331,0.379146,0.454146,0.382331,0.450745,0.385287,0.447144,0.388001,0.443357,0.390461,0.439400,0.392657,0.435291,0.394580,0.431047,0.396221,0.426686,0.397574,0.422228,
0.398632,0.417690,0.399391,0.413093,0.399848,0.408457,0.400000,0.403800,0.400000,-0.403800,0.399848,-0.408457,0.399391,-0.413093,0.398632,-0.417690,0.397574,-0.422228,0.396221,-0.426686,0.394580,-0.431047,0.392657,-0.435291,0.390461,-0.439400,0.388001,-0.443357,0.385287,-0.447144,0.382331,-0.450745,0.379146,-0.454146,0.375745,-0.457331,0.372144,-0.460287,0.368357,-0.463001,
0.364400,-0.465461,0.360291,-0.467657,0.356047,-0.469580,0.351686,-0.471221,0.347228,-0.472574,0.342690,-0.473632,0.338093,-0.474391,0.333457,-0.474848,0.328800,-0.475000,-0.328800,-0.475000,-0.333457,-0.474848,-0.338093,-0.474391,-0.342690,-0.473632,-0.347228,-0.472574,-0.351686,-0.471221,-0.356047,-0.469580,-0.360291,-0.467657,-0.364400,-0.465461,-0.368357,-0.463001,-0.372144,-0.460287,
-0.375745,-0.457331,-0.379146,-0.454146,-0.382331,-0.450745,-0.385287,-0.447144,-0.388001,-0.443357,-0.390461,-0.439400,-0.392657,-0.435291,-0.394580,-0.431047,-0.396221,-0.426686,-0.397574,-0.422228,-0.398632,-0.417690,-0.399391,-0.413093,-0.399848,-0.408457,-0.400000,-0.403800,-0.400000,0.403800,-0.399848,0.408457,-0.399391,0.413093,-0.398632,0.417690,-0.397574,0.422228,-0.396221,0.426686,
-0.394580,0.431047,-0.392657,0.435291,-0.390461,0.439400,-0.388001,0.443357,-0.385287,0.447144,-0.382331,0.450745,-0.379146,0.454146,-0.375745,0.457331,-0.372144,0.460287,-0.368357,0.463001,-0.364400,0.465461,-0.360291,0.467657,-0.356047,0.469580,-0.351686,0.471221,-0.347228,0.472574,-0.342690,0.473632,-0.338093,0.474391,-0.333457,0.474848,-0.328800,0.475000,0.328800,0.475000,
0.333457,0.474848,0.333457,0.474848,$1*%
%AMFreePoly6*
4,1,65,0.239569,0.309602,0.242572,0.309107,0.248447,0.307532,0.251295,0.306460,0.256750,0.303770,0.259334,0.302163,0.264160,0.298461,0.268461,0.294160,0.272163,0.289334,0.273770,0.286750,0.276460,0.281295,0.277532,0.278447,0.279107,0.272572,0.279602,0.269569,0.280000,0.263500,0.280000,-0.263500,0.279602,-0.269569,0.279107,-0.272572,0.277532,-0.278447,0.276460,-0.281295,
0.273770,-0.286750,0.272163,-0.289334,0.268461,-0.294160,0.264160,-0.298461,0.259334,-0.302163,0.256750,-0.303770,0.251295,-0.306460,0.248447,-0.307532,0.242572,-0.309107,0.239569,-0.309602,0.233500,-0.310000,-0.233500,-0.310000,-0.239569,-0.309602,-0.242572,-0.309107,-0.248447,-0.307532,-0.251295,-0.306460,-0.256750,-0.303770,-0.259334,-0.302163,-0.264160,-0.298461,-0.268461,-0.294160,
-0.272163,-0.289334,-0.273770,-0.286750,-0.276460,-0.281295,-0.277532,-0.278447,-0.279107,-0.272572,-0.279602,-0.269569,-0.280000,-0.263500,-0.280000,0.263500,-0.279602,0.269569,-0.279107,0.272572,-0.277532,0.278447,-0.276460,0.281295,-0.273770,0.286750,-0.272163,0.289334,-0.268461,0.294160,-0.264160,0.298461,-0.259334,0.302163,-0.256750,0.303770,-0.251295,0.306460,-0.248447,0.307532,
-0.242572,0.309107,-0.239569,0.309602,-0.233500,0.310000,0.233500,0.310000,0.239569,0.309602,0.239569,0.309602,$1*%
%AMFreePoly7*
4,1,69,0.228265,0.319589,0.231364,0.319078,0.237429,0.317453,0.243230,0.315050,0.246000,0.313569,0.251221,0.310081,0.253649,0.308088,0.255941,0.305941,0.258088,0.303649,0.260081,0.301221,0.263569,0.296000,0.265050,0.293230,0.267453,0.287429,0.269078,0.281364,0.269589,0.278265,0.270000,0.272000,0.270000,-0.272000,0.269589,-0.278265,0.269078,-0.281364,0.267453,-0.287429,
0.265050,-0.293230,0.263569,-0.296000,0.260081,-0.301221,0.258088,-0.303649,0.255941,-0.305941,0.253649,-0.308088,0.251221,-0.310081,0.246000,-0.313569,0.243230,-0.315050,0.237429,-0.317453,0.231364,-0.319078,0.228265,-0.319589,0.222000,-0.320000,-0.222000,-0.320000,-0.228265,-0.319589,-0.231364,-0.319078,-0.237429,-0.317453,-0.243230,-0.315050,-0.246000,-0.313569,-0.251221,-0.310081,
-0.253649,-0.308088,-0.255941,-0.305941,-0.258088,-0.303649,-0.260081,-0.301221,-0.263569,-0.296000,-0.265050,-0.293230,-0.267453,-0.287429,-0.269078,-0.281364,-0.269589,-0.278265,-0.270000,-0.272000,-0.270000,0.272000,-0.269589,0.278265,-0.269078,0.281364,-0.267453,0.287429,-0.265050,0.293230,-0.263569,0.296000,-0.260081,0.301221,-0.258088,0.303649,-0.255941,0.305941,-0.253649,0.308088,
-0.251221,0.310081,-0.246000,0.313569,-0.243230,0.315050,-0.237429,0.317453,-0.231364,0.319078,-0.228265,0.319589,-0.222000,0.320000,0.222000,0.320000,0.228265,0.319589,0.228265,0.319589,$1*%
%AMFreePoly8*
4,1,14,0.328000,0.154000,0.330000,0.150000,0.330000,0.000000,0.329000,-0.004000,0.179000,-0.154000,0.175000,-0.155000,-0.175000,-0.155000,-0.178000,-0.154000,-0.180000,-0.150000,-0.180000,0.150000,-0.179000,0.153000,-0.175000,0.155000,0.325000,0.155000,0.328000,0.154000,0.328000,0.154000,$1*%
%AMFreePoly9*
4,1,14,0.004000,0.329000,0.154000,0.179000,0.155000,0.175000,0.155000,-0.175000,0.154000,-0.178000,0.150000,-0.180000,-0.150000,-0.180000,-0.153000,-0.179000,-0.155000,-0.175000,-0.155000,0.325000,-0.154000,0.328000,-0.150000,0.330000,0.000000,0.330000,0.004000,0.329000,0.004000,0.329000,$1*%
%AMFreePoly10*
4,1,5,0.150000,-0.350000,-0.150000,-0.350000,-0.150000,0.350000,0.150000,0.350000,0.150000,-0.350000,0.150000,-0.350000,$1*%
%AMFreePoly11*
4,1,14,0.178000,0.154000,0.180000,0.150000,0.180000,-0.150000,0.179000,-0.153000,0.175000,-0.155000,-0.175000,-0.155000,-0.179000,-0.154000,-0.329000,-0.004000,-0.330000,0.000000,-0.330000,0.150000,-0.329000,0.153000,-0.325000,0.155000,0.175000,0.155000,0.178000,0.154000,0.178000,0.154000,$1*%
%AMFreePoly12*
4,1,5,0.350000,-0.150000,-0.350000,-0.150000,-0.350000,0.150000,0.350000,0.150000,0.350000,-0.150000,0.350000,-0.150000,$1*%
%AMFreePoly13*
4,1,14,0.153000,0.179000,0.155000,0.175000,0.155000,-0.175000,0.154000,-0.179000,0.004000,-0.329000,0.000000,-0.330000,-0.150000,-0.330000,-0.153000,-0.329000,-0.155000,-0.325000,-0.155000,0.175000,-0.154000,0.178000,-0.150000,0.180000,0.150000,0.180000,0.153000,0.179000,0.153000,0.179000,$1*%
%AMFreePoly14*
4,1,14,0.153000,0.329000,0.155000,0.325000,0.155000,-0.175000,0.154000,-0.178000,0.150000,-0.180000,-0.150000,-0.180000,-0.153000,-0.179000,-0.155000,-0.175000,-0.155000,0.175000,-0.154000,0.179000,-0.004000,0.329000,0.000000,0.330000,0.150000,0.330000,0.153000,0.329000,0.153000,0.329000,$1*%
%AMFreePoly15*
4,1,14,0.153000,0.179000,0.155000,0.175000,0.155000,-0.325000,0.154000,-0.328000,0.150000,-0.330000,0.000000,-0.330000,-0.004000,-0.329000,-0.154000,-0.179000,-0.155000,-0.175000,-0.155000,0.175000,-0.154000,0.178000,-0.150000,0.180000,0.150000,0.180000,0.153000,0.179000,0.153000,0.179000,$1*%
%AMFreePoly16*
4,1,14,0.179000,0.154000,0.329000,0.004000,0.330000,0.000000,0.330000,-0.150000,0.329000,-0.153000,0.325000,-0.155000,-0.175000,-0.155000,-0.178000,-0.154000,-0.180000,-0.150000,-0.180000,0.150000,-0.179000,0.153000,-0.175000,0.155000,0.175000,0.155000,0.179000,0.154000,0.179000,0.154000,$1*%
%AMFreePoly17*
4,1,14,0.178000,0.154000,0.180000,0.150000,0.180000,-0.150000,0.179000,-0.153000,0.175000,-0.155000,-0.325000,-0.155000,-0.328000,-0.154000,-0.330000,-0.150000,-0.330000,0.000000,-0.329000,0.004000,-0.179000,0.154000,-0.175000,0.155000,0.175000,0.155000,0.178000,0.154000,0.178000,0.154000,$1*%
%AMFreePoly18*
4,1,5,0.325000,-0.762500,-0.325000,-0.762500,-0.325000,0.762500,0.325000,0.762500,0.325000,-0.762500,0.325000,-0.762500,$1*%
%AMFreePoly19*
4,1,5,1.355000,-1.700000,-1.355000,-1.700000,-1.355000,1.700000,1.355000,1.700000,1.355000,-1.700000,1.355000,-1.700000,$1*%
%AMFreePoly20*
4,1,101,0.398409,0.724767,0.405488,0.724070,0.412506,0.722911,0.419434,0.721296,0.426240,0.719231,0.432898,0.716726,0.439377,0.713790,0.445650,0.710437,0.451690,0.706681,0.457472,0.702538,0.462971,0.698025,0.468163,0.693163,0.473025,0.687971,0.477538,0.682472,0.481681,0.676690,0.485437,0.670650,0.488790,0.664377,0.491726,0.657898,0.494231,0.651240,0.496296,0.644434,
0.497911,0.637506,0.499070,0.630488,0.499767,0.623409,0.500000,0.616300,0.500000,-0.616300,0.499767,-0.623409,0.499070,-0.630488,0.497911,-0.637506,0.496296,-0.644434,0.494231,-0.651240,0.491726,-0.657898,0.488790,-0.664377,0.485437,-0.670650,0.481681,-0.676690,0.477538,-0.682472,0.473025,-0.687971,0.468163,-0.693163,0.462971,-0.698025,0.457472,-0.702538,0.451690,-0.706681,
0.445650,-0.710437,0.439377,-0.713790,0.432898,-0.716726,0.426240,-0.719231,0.419434,-0.721296,0.412506,-0.722911,0.405488,-0.724070,0.398409,-0.724767,0.391300,-0.725000,-0.391300,-0.725000,-0.398409,-0.724767,-0.405488,-0.724070,-0.412506,-0.722911,-0.419434,-0.721296,-0.426240,-0.719231,-0.432898,-0.716726,-0.439377,-0.713790,-0.445650,-0.710437,-0.451690,-0.706681,-0.457472,-0.702538,
-0.462971,-0.698025,-0.468163,-0.693163,-0.473025,-0.687971,-0.477538,-0.682472,-0.481681,-0.676690,-0.485437,-0.670650,-0.488790,-0.664377,-0.491726,-0.657898,-0.494231,-0.651240,-0.496296,-0.644434,-0.497911,-0.637506,-0.499070,-0.630488,-0.499767,-0.623409,-0.500000,-0.616300,-0.500000,0.616300,-0.499767,0.623409,-0.499070,0.630488,-0.497911,0.637506,-0.496296,0.644434,-0.494231,0.651240,
-0.491726,0.657898,-0.488790,0.664377,-0.485437,0.670650,-0.481681,0.676690,-0.477538,0.682472,-0.473025,0.687971,-0.468163,0.693163,-0.462971,0.698025,-0.457472,0.702538,-0.451690,0.706681,-0.445650,0.710437,-0.439377,0.713790,-0.432898,0.716726,-0.426240,0.719231,-0.419434,0.721296,-0.412506,0.722911,-0.405488,0.724070,-0.398409,0.724767,-0.391300,0.725000,0.391300,0.725000,
0.398409,0.724767,0.398409,0.724767,$1*%
%AMFreePoly21*
4,1,5,0.300000,-0.575000,-0.300000,-0.575000,-0.300000,0.575000,0.300000,0.575000,0.300000,-0.575000,0.300000,-0.575000,$1*%
G04 Aperture macros list end*
%ADD10FreePoly0,270.000000*%
%ADD11FreePoly1,270.000000*%
%ADD12FreePoly2,270.000000*%
%ADD13FreePoly3,180.000000*%
%ADD14FreePoly4,0.000000*%
%ADD15FreePoly0,90.000000*%
%ADD16FreePoly5,0.000000*%
%ADD17FreePoly6,0.000000*%
%ADD18FreePoly7,270.000000*%
%ADD19FreePoly8,0.000000*%
%ADD20FreePoly9,0.000000*%
%ADD21FreePoly10,0.000000*%
%ADD22FreePoly11,0.000000*%
%ADD23FreePoly12,0.000000*%
%ADD24FreePoly13,0.000000*%
%ADD25FreePoly14,0.000000*%
%ADD26FreePoly15,0.000000*%
%ADD27FreePoly16,0.000000*%
%ADD28FreePoly17,0.000000*%
%ADD29FreePoly18,0.000000*%
%ADD30FreePoly19,270.000000*%
%ADD31FreePoly5,180.000000*%
%ADD32FreePoly20,0.000000*%
%ADD33FreePoly21,270.000000*%
G04 APERTURE END LIST*
D10*
%TO.C,*%
X9930800Y-6751398D03*
X11430800Y-6751402D03*
D11*
X-8832499Y1067102D03*
X-8832502Y3067102D03*
X-8832498Y67102D03*
X-8832501Y2067102D03*
D12*
X-12707503Y4367098D03*
X-12707497Y-1232902D03*
D13*
X-1497102Y11420897D03*
X-2767102Y11420900D03*
X-4037102Y11420903D03*
X-4037098Y12690903D03*
X-2767098Y12690900D03*
X-1497098Y12690897D03*
D14*
X11430800Y-9849400D03*
X12390800Y-9849400D03*
D15*
X5935400Y12055900D03*
X4435400Y12055900D03*
D11*
X-8832499Y9390902D03*
X-8832502Y11390902D03*
X-8832498Y8390902D03*
X-8832501Y10390902D03*
D12*
X-12707503Y12690898D03*
X-12707497Y7090898D03*
D16*
X8647200Y7384100D03*
X6997200Y7384100D03*
D17*
X3475400Y8380300D03*
X4435400Y8380300D03*
D10*
X9930800Y-3916798D03*
X11430800Y-3916802D03*
D18*
X-386299Y-6350200D03*
X-386301Y-5330200D03*
D19*
X-3359600Y3970300D03*
D20*
X-884600Y3495300D03*
D21*
X-1384600Y3670300D03*
D22*
X-409600Y3970300D03*
D23*
X-3184600Y5470300D03*
D24*
X-884600Y6445300D03*
D23*
X-584600Y5470300D03*
X-3184600Y4970300D03*
D21*
X-1884600Y3670300D03*
X-2384600Y3670300D03*
D23*
X-584600Y4970300D03*
D25*
X-2884600Y3495300D03*
D21*
X-1384600Y6270300D03*
X-2384600Y6270300D03*
D26*
X-2884600Y6445300D03*
D27*
X-3359600Y5970300D03*
D23*
X-584600Y4470300D03*
X-3184600Y4470300D03*
D21*
X-1884600Y6270300D03*
D28*
X-409600Y5970300D03*
D29*
X6185397Y2247801D03*
X4915397Y2247799D03*
X7455397Y2247802D03*
D30*
X5550400Y-464200D03*
D29*
X4915403Y-3176201D03*
X7455403Y-3176198D03*
X6185403Y-3176199D03*
X3645397Y2247798D03*
X3645403Y-3176202D03*
D31*
X6997200Y9673302D03*
X8647200Y9673298D03*
D17*
X11430800Y-11595700D03*
X12390800Y-11595700D03*
D32*
X9004200Y-10283000D03*
X7104200Y-10283000D03*
D16*
X8447800Y5174700D03*
X6797800Y5174700D03*
D18*
X-1884599Y-6350200D03*
X-1884601Y-5330200D03*
D33*
X215400Y-882903D03*
X215403Y67097D03*
X-2384603Y-1832897D03*
X-2384597Y67103D03*
X215397Y-1832903D03*
D31*
X7354200Y12055902D03*
X9004200Y12055898D03*
%TD*%
M02*
